<?xml version="1.0" encoding="UTF-8"?>
<svg version="1.1" xmlns="http://www.w3.org/2000/svg" width="420" height="420">
<path d="M0 0 C1.67542976 0.28604898 3.34385343 0.61781233 5 1 C5.05607422 2.48113281 5.05607422 2.48113281 5.11328125 3.9921875 C5.17902344 5.27351563 5.24476563 6.55484375 5.3125 7.875 C5.39951172 9.78925781 5.39951172 9.78925781 5.48828125 11.7421875 C5.65714844 12.81726563 5.82601562 13.89234375 6 15 C6.99 15.66 7.98 16.32 9 17 C9.2165625 18.7015625 9.2165625 18.7015625 9.4375 20.4375 C9.5960894 24.06026112 9.5960894 24.06026112 12.0625 25.625 C12.701875 26.07875 13.34125 26.5325 14 27 C14.25 29.6875 14.25 29.6875 14 32 C15.2375 31.9175 16.475 31.835 17.75 31.75 C20.90861045 31.75561032 21.82759424 31.8864645 24.5625 33.6875 C26 36 26 36 25.75 38.5625 C25.37875 39.7690625 25.37875 39.7690625 25 41 C25 41.99 25 42.98 25 44 C25.63421875 43.82726562 26.2684375 43.65453125 26.921875 43.4765625 C31.08971271 42.83128813 35.05399646 43.10858708 39.25 43.375 C40.07757813 43.41882813 40.90515625 43.46265625 41.7578125 43.5078125 C47.86843968 43.86843968 47.86843968 43.86843968 49 45 C49.12368877 46.98292096 49.17796331 48.97020061 49.20532227 50.95678711 C49.22526749 52.23158432 49.24521271 53.50638153 49.26576233 54.81980896 C49.28275158 56.22231925 49.29963021 57.62483089 49.31640625 59.02734375 C49.33697323 60.45602525 49.35796963 61.88470063 49.37937927 63.31336975 C49.43467932 67.08221436 49.48404337 70.85111475 49.53222656 74.62005615 C49.5823162 78.45443807 49.63810761 82.2887365 49.69335938 86.12304688 C50 107.61191079 50 107.61191079 50 111 C50.61875 110.814375 51.2375 110.62875 51.875 110.4375 C54 110 54 110 56 111 C55.9388501 110.09290283 55.9388501 110.09290283 55.87646484 109.16748047 C55.69709778 106.40395778 55.53590593 103.63965652 55.375 100.875 C55.31054688 99.92367187 55.24609375 98.97234375 55.1796875 97.9921875 C54.89405523 92.85080672 54.87333783 88.82151653 57 84 C60.40755272 85.92880342 63.74147635 87.8276509 67 90 C67 81.09 67 72.18 67 63 C68.32 63 69.64 63 71 63 C71 73.56 71 84.12 71 95 C72.65 95.66 74.3 96.32 76 97 C79.98199305 100.07182321 80.88653209 103.17497241 82 108 C81.67 108.33 81.34 108.66 81 109 C80.9832207 111.00163877 81.03737459 113.00394864 81.12109375 115.00390625 C81.19360352 116.82631836 81.19360352 116.82631836 81.26757812 118.68554688 C81.32365234 119.96494141 81.37972656 121.24433594 81.4375 122.5625 C81.48970703 123.84576172 81.54191406 125.12902344 81.59570312 126.45117188 C81.7258696 129.63433391 81.86085001 132.81722004 82 136 C83.98 136.33 85.96 136.66 88 137 C87.99000725 135.27778732 87.99000725 135.27778732 87.97981262 133.52078247 C87.91909324 122.71978505 87.87407157 111.91882209 87.84456348 101.11769295 C87.82888328 95.56422966 87.80760212 90.01090374 87.77368164 84.45751953 C87.74117208 79.10183226 87.72316474 73.74627741 87.71536827 68.39049911 C87.70980962 66.34347319 87.69895548 64.29645481 87.68280983 62.24948502 C87.66114719 59.39028298 87.65802837 56.53163368 87.65942383 53.67236328 C87.64324509 52.39274719 87.64324509 52.39274719 87.6267395 51.08728027 C87.63923645 48.73318481 87.63923645 48.73318481 88 45 C91.22791555 42.8480563 92.28400809 42.79913557 96 43 C96 42.071875 96 41.14375 96 40.1875 C96 36.34413657 96.10288612 32.63472111 96.5 28.8125 C96.5928125 27.91144531 96.685625 27.01039062 96.78125 26.08203125 C96.8534375 25.39496094 96.925625 24.70789063 97 24 C98.98 23.505 98.98 23.505 101 23 C103.56780471 26.8415976 103.22688882 30.8139175 103.125 35.25 C103.11597656 35.99507812 103.10695313 36.74015625 103.09765625 37.5078125 C103.07418358 39.33868059 103.03831525 41.16938238 103 43 C104.11375 43.12375 105.2275 43.2475 106.375 43.375 C110 44 110 44 112 46 C112.2784729 48.17666626 112.2784729 48.17666626 112.31884766 50.90869141 C112.34865219 52.44005234 112.34865219 52.44005234 112.37905884 54.00234985 C112.39638565 55.66021011 112.39638565 55.66021011 112.4140625 57.3515625 C112.44311172 59.04531509 112.44311172 59.04531509 112.4727478 60.77328491 C112.53267069 64.39044572 112.57898002 68.00763813 112.625 71.625 C112.66316805 74.07293078 112.70221908 76.52084796 112.7421875 78.96875 C112.83838259 84.97904624 112.92339265 90.98942393 113 97 C113.99 97 114.98 97 116 97 C116 97.33 116 97.66 116 98 C116.91523438 98.03738281 117.83046875 98.07476562 118.7734375 98.11328125 C119.96195312 98.17902344 121.15046875 98.24476563 122.375 98.3125 C123.55835938 98.37050781 124.74171875 98.42851562 125.9609375 98.48828125 C126.96382813 98.65714844 127.96671875 98.82601562 129 99 C131.07044163 102.10566244 131.25047317 102.76518087 131.25396729 106.28208923 C131.25960693 107.15550461 131.26524658 108.02891998 131.27105713 108.92880249 C131.26498444 110.36191269 131.26498444 110.36191269 131.25878906 111.82397461 C131.26404602 113.33655098 131.26404602 113.33655098 131.26940918 114.87968445 C131.27822805 118.22064044 131.27237627 121.56138551 131.265625 124.90234375 C131.26697171 127.22017965 131.26891229 129.53801528 131.27142334 131.85585022 C131.2743749 136.71732264 131.27007626 141.57872165 131.26074219 146.44018555 C131.24935405 152.67590405 131.25590296 158.91145028 131.26788712 165.14716244 C131.27511022 169.93491415 131.27281558 174.72262495 131.26763153 179.51037788 C131.26629596 181.80971866 131.26793953 184.10906313 131.27259064 186.40839958 C131.27766247 189.62124357 131.26993586 192.83380774 131.25878906 196.04663086 C131.26283752 197.00001343 131.26688599 197.953396 131.27105713 198.93566895 C131.26541748 199.81190414 131.25977783 200.68813934 131.25396729 201.59092712 C131.25283621 202.72994933 131.25283621 202.72994933 131.25168228 203.89198208 C130.96599651 206.28480341 130.1873934 207.91939434 129 210 C128.34 209.67 127.68 209.34 127 209 C127 208.34 127 207.68 127 207 C126.10087891 206.85304687 126.10087891 206.85304687 125.18359375 206.703125 C122.55738445 205.85747621 121.74969771 204.89989182 120.0625 202.75 C116.68042022 198.59656869 113.12334722 194.93612268 109 191.5 C106.15908966 189.13257471 103.57705359 186.64863841 101 184 C100.34 183.34 99.68 182.68 99 182 C96.39719432 182.32041397 96.39719432 182.32041397 94 183 C94.99 183 95.98 183 97 183 C99.4375 185.25 99.4375 185.25 102 188 C102.70125 188.66 103.4025 189.32 104.125 190 C106 192 106 192 107.3125 194.375 C109.31726068 197.49351662 111.67799778 199.39536472 114.57421875 201.66796875 C115.27998047 202.32732422 115.27998047 202.32732422 116 203 C116 203.66 116 204.32 116 205 C116.99 204.67 117.98 204.34 119 204 C119.598125 204.99 120.19625 205.98 120.8125 207 C121.8953125 208.485 121.8953125 208.485 123 210 C123.99 210 124.98 210 126 210 C128 212 128 212 129.3125 214.375 C131.18146401 217.28227734 133.30052063 218.88419184 136 221 C136 221.66 136 222.32 136 223 C136.86625 223.37125 136.86625 223.37125 137.75 223.75 C140.41076851 225.22820473 142.13556544 226.58314039 144 229 C143.75 231.75 143.75 231.75 143 234 C146.12146634 234.70484724 149.19506183 235.13309566 152.375 235.4375 C156.42755762 235.86408501 160.0839047 236.85217896 164 238 C166.77861901 238.51797956 169.56080812 238.98969987 172.3515625 239.4375 C175 240 175 240 177.66796875 241.0703125 C179.99855456 242.18549098 179.99855456 242.18549098 182.6875 241.875 C187.56369189 242.05900724 191.57883713 244.04280537 196 246 C195.67 246.99 195.34 247.98 195 249 C193.70707031 248.9278125 192.41414063 248.855625 191.08203125 248.78125 C182.21769142 248.30320394 173.4104026 247.87557047 164.53125 248.0625 C162 248 162 248 160.08325195 247.5 C155.99834679 246.51958446 151.64772522 246.96557989 147.46289062 247.0390625 C146.73650391 247.04679688 146.01011719 247.05453125 145.26171875 247.0625 C144.28658325 247.07990234 144.28658325 247.07990234 143.29174805 247.09765625 C141 247 141 247 137.84619141 246.50439453 C133.26717266 245.90389607 128.81103717 245.85653426 124.19921875 245.8671875 C122.82283989 245.86575241 122.82283989 245.86575241 121.4186554 245.86428833 C119.49158662 245.86361116 117.5645155 245.86543297 115.63745117 245.86962891 C112.67947334 245.87501461 109.72164522 245.8696525 106.76367188 245.86328125 C104.8880205 245.86394151 103.01236921 245.86522159 101.13671875 245.8671875 C99.80709358 245.86415115 99.80709358 245.86415115 98.4506073 245.86105347 C94.08864233 245.74164768 94.08864233 245.74164768 90 247 C89.18764893 246.69392822 88.37529785 246.38785645 87.53833008 246.07250977 C82.7585812 244.62371125 78.35061741 244.7711132 73.38671875 244.83984375 C72.37656204 244.84504532 71.36640533 244.85024689 70.32563782 244.85560608 C67.11277624 244.8733627 63.90023886 244.90455253 60.6875 244.9375 C57.4569411 244.96508291 54.22642537 244.9897663 50.99580383 245.00868225 C48.98810293 245.02098019 46.9804266 245.03862292 44.9728241 245.06199646 C44.07131119 245.06852737 43.16979828 245.07505829 42.2409668 245.08178711 C41.44409958 245.09004013 40.64723236 245.09829315 39.82621765 245.10679626 C38 245 38 245 37 244 C34.61771457 243.89971633 32.26441006 243.8638132 29.8815918 243.87060547 C29.13684601 243.86885315 28.39210022 243.86710083 27.62478638 243.86529541 C25.14957383 243.86087513 22.6744321 243.86381638 20.19921875 243.8671875 C18.48387132 243.8665143 16.76852398 243.86554413 15.05317688 243.86428833 C11.45088801 243.86281095 7.84862389 243.86496641 4.24633789 243.86962891 C-0.37067044 243.87531338 -4.98762049 243.8720556 -9.60462666 243.86605644 C-13.15022723 243.86244095 -16.69581403 243.86359419 -20.24141502 243.86618423 C-21.94346308 243.86685143 -23.64551238 243.8660323 -25.34755898 243.86370468 C-27.72954234 243.86116341 -30.11143182 243.86504018 -32.4934082 243.87060547 C-33.54949028 243.86756912 -33.54949028 243.86756912 -34.62690735 243.86447144 C-37.92365817 243.87873074 -40.83119243 244.10730187 -44 245 C-46.83444734 245.07300573 -49.64309986 245.09186791 -52.4765625 245.0625 C-54.2571607 245.0537979 -56.03775971 245.04526102 -57.81835938 245.03686523 C-58.76348389 245.03065155 -59.7086084 245.02443787 -60.68237305 245.01803589 C-79.2932196 244.90396667 -97.8926839 245.07367265 -116.5 245.4375 C-117.5951593 245.45723877 -118.6903186 245.47697754 -119.81866455 245.49731445 C-122.93132158 245.55426723 -126.04377056 245.61771213 -129.15625 245.68359375 C-130.54395096 245.70866249 -130.54395096 245.70866249 -131.95968628 245.73423767 C-136.10512795 245.83071636 -139.94421384 246.06350443 -144 247 C-146.4162562 247.04453928 -148.83365016 247.03913117 -151.25 247 C-157.12808177 246.93987316 -162.94723465 247.11047625 -168.8125 247.5 C-175.21791909 247.92537411 -181.58048105 248.12478547 -188 248 C-188 244.09538875 -186.66236719 243.66236719 -184 241 C-183.34 241.66 -182.68 242.32 -182 243 C-177.26705346 241.7697005 -177.26705346 241.7697005 -172.8125 239.8125 C-171 239 -171 239 -169.125 239.5 C-166.01857878 240.23092264 -164.01581021 239.04182535 -161 238 C-158.13759916 237.43318795 -155.26944224 236.94071381 -152.390625 236.46484375 C-149.99722137 236.11039099 -149.99722137 236.11039099 -148 235 C-144.45729153 234.92896825 -140.92556673 235.00333083 -137.3828125 235.0625 C-134.60849592 235.01124242 -132.61512406 234.76882403 -130 234 C-127.33864152 233.60662402 -124.67278227 233.3118246 -122 233 C-123.32 232.01 -124.64 231.02 -126 230 C-126.33 230.99 -126.66 231.98 -127 233 C-130.96 233 -134.92 233 -139 233 C-139 228.0936687 -137.20232463 226.36811255 -134 223 C-133.13375 222.154375 -132.2675 221.30875 -131.375 220.4375 C-128.56579533 217.5543689 -126.78761822 214.57523643 -125 211 C-125.33 210.34 -125.66 209.68 -126 209 C-126.1014684 207.56704656 -126.14209518 206.12954969 -126.15148926 204.69303894 C-126.15983292 203.78878677 -126.16817657 202.88453461 -126.17677307 201.95288086 C-126.18095749 200.95804688 -126.18514191 199.96321289 -126.18945312 198.93823242 C-126.19774643 197.89258621 -126.20603973 196.84694 -126.21458435 195.76960754 C-126.23201345 193.49315612 -126.24717238 191.21668647 -126.26036072 188.94020653 C-126.28134774 185.33869568 -126.30837543 181.7372759 -126.33703613 178.13581848 C-126.39681259 170.48641386 -126.44890703 162.83696689 -126.5 155.1875 C-126.55921274 146.3356802 -126.62154648 137.48390492 -126.69187927 128.63216591 C-126.71845812 125.08195542 -126.73927312 121.53174051 -126.7598877 117.98149109 C-126.77649339 115.80430896 -126.79336547 113.62712884 -126.81054688 111.44995117 C-126.81473129 110.46118988 -126.81891571 109.47242859 -126.82322693 108.45370483 C-126.83157059 107.54099319 -126.83991425 106.62828156 -126.84851074 105.68791199 C-126.85624134 104.50407818 -126.85624134 104.50407818 -126.86412811 103.29632854 C-127.01234015 100.791443 -127.48393813 98.4529062 -128 96 C-128.06371368 94.39696373 -128.08644214 92.79162328 -128.0625 91.1875 C-128.05347656 90.39730469 -128.04445312 89.60710937 -128.03515625 88.79296875 C-128.02355469 88.20128906 -128.01195312 87.60960938 -128 87 C-128.53625 87.763125 -129.0725 88.52625 -129.625 89.3125 C-134.46409222 94.78831488 -139.64580943 95.42562958 -146.609375 96.08203125 C-149 96 -149 96 -151 94 C-151.59765625 91.7578125 -151.59765625 91.7578125 -152.0625 89.125 C-152.70892613 85.48015824 -152.70892613 85.48015824 -153.63671875 81.90234375 C-154.28460762 78.50963535 -152.511409 75.96883911 -151 73 C-149.3125 71.0625 -149.3125 71.0625 -148 70 C-147.01 70.33 -146.02 70.66 -145 71 C-141.6398222 71.02996337 -138.29244446 70.9334572 -134.93359375 70.83984375 C-132 71 -132 71 -130 73 C-129.34 72.34 -128.68 71.68 -128 71 C-128.020625 69.948125 -128.04125 68.89625 -128.0625 67.8125 C-127.98713436 63.21519568 -127.19979966 61.00677795 -125 57 C-122.06232446 54.82043428 -120.81436472 55 -117 55 C-116.505 58.465 -116.505 58.465 -116 62 C-113.87635519 62.22609337 -113.87635519 62.22609337 -112.375 60.5 C-111.92125 60.005 -111.4675 59.51 -111 59 C-109.515 59.99 -109.515 59.99 -108 61 C-108 61.99 -108 62.98 -108 64 C-106.8553125 62.9790625 -106.8553125 62.9790625 -105.6875 61.9375 C-104.3571875 60.9784375 -104.3571875 60.9784375 -103 60 C-101.515 60.495 -101.515 60.495 -100 61 C-99.67 60.01 -99.34 59.02 -99 58 C-97.35546159 57.49656987 -95.70636241 57.00400221 -94.0390625 56.58203125 C-89.09321671 55.170286 -85.14429805 53.14429805 -81.5 49.5 C-79.29110228 44.34590532 -79.71306718 39.52345682 -80 34 C-80 31 -80 31 -78 29 C-76.66172696 27.33729713 -75.32810215 25.67083819 -74 24 C-73.505 23.505 -73.505 23.505 -73 23 C-72.795672 19.40836782 -72.68030088 15.81847463 -72.57421875 12.22265625 C-72 9 -72 9 -69.95703125 7.55859375 C-69.31121094 7.37425781 -68.66539062 7.18992187 -68 7 C-66.13437358 8.57297914 -65.09761557 9.45510217 -64.65942383 11.90112305 C-64.67513428 12.59761963 -64.69084473 13.29411621 -64.70703125 14.01171875 C-64.71669922 14.76904297 -64.72636719 15.52636719 -64.73632812 16.30664062 C-64.76146484 17.09232422 -64.78660156 17.87800781 -64.8125 18.6875 C-64.83280273 19.88342773 -64.83280273 19.88342773 -64.85351562 21.10351562 C-64.88882911 23.06929967 -64.94263553 25.03473582 -65 27 C-64.04867187 27.42539062 -64.04867187 27.42539062 -63.078125 27.859375 C-61 29 -61 29 -59.75 31.25 C-58.92407201 34.27840261 -58.85465006 36.8749763 -59 40 C-57.9275 39.34 -56.855 38.68 -55.75 38 C-52.69019314 36.11704193 -51.8664136 36 -48 36 C-48.33 35.01 -48.66 34.02 -49 33 C-48.01 32.8453125 -48.01 32.8453125 -47 32.6875 C-42.30008315 31.61043572 -37.46159692 30.46159692 -34 27 C-30.875 26.875 -30.875 26.875 -28 27 C-26.875 30.3125 -26.875 30.3125 -26 34 C-26.66 34.99 -27.32 35.98 -28 37 C-28.27831472 39.25122497 -28.27831472 39.25122497 -28.1875 41.625 C-28.18105469 42.42164063 -28.17460937 43.21828125 -28.16796875 44.0390625 C-28.21182898 46.00289734 -28.21182898 46.00289734 -27 47 C-25.88336275 51.24322155 -25.10108575 55.25628674 -27.16796875 59.265625 C-28.70530994 61.25467879 -30.32781243 63.12398857 -32 65 C-33.03013277 66.64821244 -34.04710343 68.30596166 -35 70 C-34.01 70.99 -33.02 71.98 -32 73 C-31.67 72.01 -31.34 71.02 -31 70 C-30.34 70.33 -29.68 70.66 -29 71 C-28.375 73.5625 -28.375 73.5625 -28 76 C-26.68 76 -25.36 76 -24 76 C-23.731875 75.38125 -23.46375 74.7625 -23.1875 74.125 C-22 72 -22 72 -19 70 C-17 72 -17 72 -16.75949097 74.13870239 C-16.76393219 75.0225058 -16.76837341 75.9063092 -16.77294922 76.81689453 C-16.77317581 78.31822433 -16.77317581 78.31822433 -16.77340698 79.84988403 C-16.78372955 80.93325043 -16.79405212 82.01661682 -16.8046875 83.1328125 C-16.8075174 84.23978485 -16.81034729 85.3467572 -16.81326294 86.48727417 C-16.82448481 90.03329137 -16.84959309 93.57905875 -16.875 97.125 C-16.8850272 99.52473594 -16.8941535 101.92447583 -16.90234375 104.32421875 C-16.92443068 110.21623151 -16.95792793 116.10809791 -17 122 C-14.69 122 -12.38 122 -10 122 C-10.08378906 120.92878906 -10.16757813 119.85757813 -10.25390625 118.75390625 C-10.35704896 117.35679134 -10.45989843 115.95965476 -10.5625 114.5625 C-10.61857422 113.85544922 -10.67464844 113.14839844 -10.73242188 112.41992188 C-10.86190993 110.61572163 -10.93521608 108.80768048 -11 107 C-10.67 106.67 -10.34 106.34 -10 106 C-9.80850919 102.36805359 -9.80850919 102.36805359 -11 99 C-10.90693134 96.21367348 -10.75394601 93.45222688 -10.56640625 90.671875 C-9.77732079 77.20186147 -9.89086836 63.7379826 -9.9375 50.25 C-9.94252957 47.69140713 -9.94708988 45.1328133 -9.95117188 42.57421875 C-9.96205154 36.38279095 -9.97867202 30.19140018 -10 24 C-9.01 23.505 -9.01 23.505 -8 23 C-7.01 23.33 -6.02 23.66 -5 24 C-5.33 21.69 -5.66 19.38 -6 17 C-4.35 16.67 -2.7 16.34 -1 16 C-1.01160156 14.92878906 -1.02320313 13.85757813 -1.03515625 12.75390625 C-1.04453299 11.35677257 -1.05363331 9.95963701 -1.0625 8.5625 C-1.07087891 7.85544922 -1.07925781 7.14839844 -1.08789062 6.41992188 C-1.09653588 4.61306441 -1.05220011 2.80612397 -1 1 C-0.67 0.67 -0.34 0.34 0 0 Z M-36 40 C-36 41.98 -36 43.96 -36 46 C-35.34 46 -34.68 46 -34 46 C-34 44.02 -34 42.04 -34 40 C-34.66 40 -35.32 40 -36 40 Z M-46.1875 44.875 C-50.07470182 47.02558179 -53.74574176 48.69099746 -58 50 C-58.66 50.66 -59.32 51.32 -60 52 C-62.31648799 53.03842565 -64.64903024 54.0421975 -67 55 C-66.01 55.33 -65.02 55.66 -64 56 C-63.34 55.67 -62.68 55.34 -62 55 C-59.69 55 -57.38 55 -55 55 C-54.67 68.53 -54.34 82.06 -54 96 C-53.34 96.33 -52.68 96.66 -52 97 C-52.268125 97.556875 -52.53625 98.11375 -52.8125 98.6875 C-52.874375 99.450625 -52.93625 100.21375 -53 101 C-50.64573501 103.77122275 -50.64573501 103.77122275 -48 106 C-46.43670947 104.43670947 -46.6552225 102.72244543 -46.4375 100.5625 C-46.35371094 99.75941406 -46.26992187 98.95632812 -46.18359375 98.12890625 C-45.97136012 96.02403398 -45.97136012 96.02403398 -46 94 C-43.66633067 91.98821609 -41.95214486 90.98404829 -39 90 C-38.67 89.34 -38.34 88.68 -38 88 C-37.030625 87.236875 -36.06125 86.47375 -35.0625 85.6875 C-32.26477565 83.43321851 -31.00507292 81.51775521 -30 78 C-32.70879335 76.64560332 -35.00933268 76.93498549 -38 77 C-41.18333333 70.63333333 -41.18333333 70.63333333 -40.3125 67.625 C-39 66 -39 66 -37 65 C-37 64.34 -37 63.68 -37 63 C-38.2375 62.4740625 -38.2375 62.4740625 -39.5 61.9375 C-42 60 -42 60 -42.40234375 57.91015625 C-42.46395523 53.68634685 -42.40476285 51.60714427 -40 48 C-39.83300768 44.87478167 -39.83300768 44.87478167 -40 42 C-42.1316574 42 -44.4059858 43.87004327 -46.1875 44.875 Z M-71 56 C-71.66 56.66 -72.32 57.32 -73 58 C-70.525 58.495 -70.525 58.495 -68 59 C-67.67 58.01 -67.34 57.02 -67 56 C-68.32 56 -69.64 56 -71 56 Z M-92.875 67.5 C-95.79378391 69.40602848 -98.47177487 70.57165284 -101.8125 71.5625 C-104.44284193 72.38930869 -105.94123405 72.95333292 -108.125 74.6875 C-109.18445437 77.48748654 -108.83649991 79.52310918 -108.328125 82.4296875 C-107.62866548 87.90878708 -107.93029528 93.48558228 -108 99 C-106.35 99.33 -104.7 99.66 -103 100 C-102.67 105.94 -102.34 111.88 -102 118 C-96.82492456 118.24936191 -96.82492456 118.24936191 -91.64892578 118.47802734 C-86.22222222 118.77777778 -86.22222222 118.77777778 -84 121 C-84.00888245 120.36408432 -84.01776489 119.72816864 -84.0269165 119.07298279 C-84.11559876 112.43798841 -84.17582106 105.80316317 -84.21972656 99.16772461 C-84.23980771 96.69337115 -84.26707823 94.21906495 -84.30175781 91.74487305 C-84.35042778 88.18266112 -84.37300454 84.62107819 -84.390625 81.05859375 C-84.41127014 79.95728622 -84.43191528 78.8559787 -84.45318604 77.72129822 C-84.45506855 71.23769447 -83.81426481 67.30235601 -80 62 C-84.68668862 62 -89.07309832 64.98314109 -92.875 67.5 Z M-117 64 C-117 64.99 -117 65.98 -117 67 C-116.01 66.67 -115.02 66.34 -114 66 C-114.33 65.34 -114.66 64.68 -115 64 C-115.66 64 -116.32 64 -117 64 Z M-119 80 C-118.34 81.32 -117.68 82.64 -117 84 C-116.01 84 -115.02 84 -114 84 C-113.67 82.02 -113.34 80.04 -113 78 C-116.18490007 77.7226499 -116.18490007 77.7226499 -119 80 Z M-126 83 C-126.33 83.66 -126.66 84.32 -127 85 C-126.34 85 -125.68 85 -125 85 C-125.33 84.34 -125.66 83.68 -126 83 Z M-117 85 C-117 88.96 -117 92.92 -117 97 C-116.01 96.67 -115.02 96.34 -114 96 C-114 92.37 -114 88.74 -114 85 C-114.99 85 -115.98 85 -117 85 Z M44 111 C48 112 48 112 48 112 Z M34 129 C33.31035156 129.25394531 32.62070313 129.50789062 31.91015625 129.76953125 C27.43753965 131.40765009 22.96858686 133.03023885 18.4375 134.5 C13.53821045 136.11253595 8.74387879 137.97627278 4 140 C2.89591797 140.46212891 2.89591797 140.46212891 1.76953125 140.93359375 C-0.34252092 141.94537443 -0.34252092 141.94537443 -1 145 C2.54758499 144.3855076 5.67592936 143.438873 9 142.0625 C9.825 141.72347656 10.65 141.38445312 11.5 141.03515625 C13.17702887 140.34076148 14.85149865 139.64015614 16.5234375 138.93359375 C19.61074091 137.76976802 22.68209241 137.18021442 25.9140625 136.5625 C28.28059944 136.04327522 28.28059944 136.04327522 31 134 C36.92924154 134.16024977 40.61238177 138.57769131 44.5 142.5625 C47.18675398 145.18208513 49.83223099 147.01093574 53 149 C50.50441814 142.87448089 44.86044764 138.94371055 39.96484375 134.74609375 C37.89359137 132.90543806 35.94159344 130.97618753 34 129 Z M-85 134 C-85 137.96 -85 141.92 -85 146 C-84.67 146 -84.34 146 -84 146 C-84 142.04 -84 138.08 -84 134 C-84.33 134 -84.66 134 -85 134 Z M-8.625 145 C-9.73875 145.66 -10.8525 146.32 -12 147 C-11.34 147.66 -10.68 148.32 -10 149 C-6.18586998 147.8321734 -6.18586998 147.8321734 -3.6875 144.875 C-3.460625 144.25625 -3.23375 143.6375 -3 143 C-5.46301423 143 -6.52063278 143.75296757 -8.625 145 Z M-23.1875 150 C-23.84169922 150.28617188 -24.49589844 150.57234375 -25.16992188 150.8671875 C-26.78209275 151.57324774 -28.39133719 152.28598322 -30 153 C-30 153.66 -30 154.32 -30 155 C-20.22506463 153.24546735 -20.22506463 153.24546735 -13 147 C-16.85249662 147 -19.73608333 148.46295988 -23.1875 150 Z M28.5625 150.25 C26.01492805 152.70208584 26.01492805 152.70208584 25.0625 155 C23.7077293 157.55015661 21.75344018 159.00000015 19.51953125 160.77734375 C16.85233598 162.92344174 14.55986573 165.22105637 12.5625 168 C10.64349072 170.45633188 8.47209466 172.10281107 6 174 C1.94394418 177.01438218 1.94394418 177.01438218 -1 181 C-3.5625 181.625 -3.5625 181.625 -6 182 C-6 182.33 -6 182.66 -6 183 C-1.99745544 183.09181134 -1.99745544 183.09181134 2 183 C2.495 182.505 2.495 182.505 3 182 C3.66 182.66 4.32 183.32 5 184 C7.19721471 184.38934867 7.19721471 184.38934867 9.6875 184.5 C14.07382703 184.85445067 17.81732649 185.66154448 22 187 C24.23525035 187.68636625 24.23525035 187.68636625 26 188 C28.09391167 185.90608833 27.73514572 181.89649151 28 179 C28 178.01 28 177.02 28 176 C28 173.33333333 28 170.66666667 28 168 C34.625 166.875 34.625 166.875 38 168 C40.35188447 167.40206327 42.68925595 166.74118205 45 166 C44.25418905 162.84813973 44.25418905 162.84813973 41.625 161.125 C38.92039753 158.93555991 37.75395236 156.94982897 36 154 C35.01 153.67 34.02 153.34 33 153 C32.505 150.525 32.505 150.525 32 148 C30.5695983 147.88695332 30.5695983 147.88695332 28.5625 150.25 Z M53 149 C53 149.66 53 150.32 53 151 C53.66 150.67 54.32 150.34 55 150 C54.34 149.67 53.68 149.34 53 149 Z M55 151 C56.17487103 155.11204862 57.94546263 156.96231456 61.28515625 159.55078125 C65.43218829 163.05544841 68.81584746 167.4675673 72.125 171.75 C74.78405279 174.94086334 77.88423884 177.24610732 81.3125 179.5625 C81.869375 180.036875 82.42625 180.51125 83 181 C83 181.99 83 182.98 83 184 C81.80375 184.144375 80.6075 184.28875 79.375 184.4375 C75.8994842 184.87039343 72.45049966 185.39616256 69 186 C69.33 186.66 69.66 187.32 70 188 C75.52980788 188.19402835 79.66622978 187.64861989 85 186 C87.32787927 185.63049535 89.66045145 185.28647533 92 185 C90.32668324 180.5924845 90.32668324 180.5924845 86.6875 177.9375 C85.800625 177.628125 84.91375 177.31875 84 177 C80.60806044 174.47408756 77.90561852 171.96400961 75.25 168.6875 C72.06790934 164.82533192 68.2873134 161.97878462 64.33984375 158.93359375 C62.27778328 157.2295538 60.65488036 155.5870153 59 153.5 C58.34 152.675 57.68 151.85 57 151 C56.34 151 55.68 151 55 151 Z M-45.3125 158.375 C-49.50984539 160.3573874 -53.52732119 161.74451121 -58 163 C-59.92059989 163.84528567 -61.83685308 164.70047873 -63.75 165.5625 C-69.51732878 168.03837346 -74.75599607 168.86479519 -81 169 C-80.67 170.32 -80.34 171.64 -80 173 C-79.30132812 173.06058594 -78.60265625 173.12117188 -77.8828125 173.18359375 C-76.97273438 173.26738281 -76.06265625 173.35117188 -75.125 173.4375 C-74.22007812 173.51871094 -73.31515625 173.59992188 -72.3828125 173.68359375 C-70 174 -70 174 -68 175 C-66.12620395 175.07033769 -64.24998898 175.0843022 -62.375 175.0625 C-61.37210938 175.05347656 -60.36921875 175.04445312 -59.3359375 175.03515625 C-58.17964844 175.01775391 -58.17964844 175.01775391 -57 175 C-57.33 174.34 -57.66 173.68 -58 173 C-60.32156597 172.59270772 -62.6568787 172.25561323 -65 172 C-62.74934389 169.47610129 -60.67264238 168.2329556 -57.5625 166.9375 C-55.290174 165.98012407 -53.07780157 165.0415811 -50.90234375 163.87890625 C-49 163 -49 163 -46 163 C-45.67 162.34 -45.34 161.68 -45 161 C-42.35139573 160.40644386 -39.70802678 160.25790731 -37 160 C-36.67 158.68 -36.34 157.36 -36 156 C-40.12614387 156 -41.70010559 156.60712381 -45.3125 158.375 Z M46 158 C47 160 47 160 47 160 Z M47 168 C46.835 169.258125 46.67 170.51625 46.5 171.8125 C46.4071875 172.52019531 46.314375 173.22789062 46.21875 173.95703125 C45.90836321 176.8558222 46.0122489 179.71043636 46.0625 182.625 C46 186 46 186 45 187 C43.48071962 187.07179964 41.95832518 187.08392007 40.4375 187.0625 C39.61121094 187.05347656 38.78492188 187.04445312 37.93359375 187.03515625 C36.97646484 187.01775391 36.97646484 187.01775391 36 187 C35.2406623 188.80870231 35.2406623 188.80870231 35 191 C36.06949705 192.96705879 36.06949705 192.96705879 37.75 194.6875 C38.28109375 195.28949219 38.8121875 195.89148438 39.359375 196.51171875 C41.04012418 198.23736755 41.04012418 198.23736755 44 199 C43.79375 198.21625 43.5875 197.4325 43.375 196.625 C43.25125 195.75875 43.1275 194.8925 43 194 C46.33825202 190.66174798 51.41643139 191.18828222 55.96679688 190.7890625 C57.98511276 190.58912685 59.99429069 190.30117012 62 190 C62.33 189.34 62.66 188.68 63 188 C64.32 188.33 65.64 188.66 67 189 C67 187.68 67 186.36 67 185 C64.74572728 183.47987963 64.74572728 183.47987963 62 182 C60.28641357 180.38161281 58.6292274 178.70328319 57 177 C55.42115459 175.39141606 53.83749203 173.78755131 52.25 172.1875 C51.47140625 171.39730469 50.6928125 170.60710937 49.890625 169.79296875 C48.31333521 167.88531353 48.31333521 167.88531353 47 168 Z M-85 170 C-85.556875 170.886875 -86.11375 171.77375 -86.6875 172.6875 C-88.30169446 175.25580941 -89.84895544 176.76462281 -92.375 178.4375 C-95.72693497 180.66021167 -98.00506314 183.19723779 -100.52734375 186.3046875 C-101.95896047 187.95275556 -103.42084637 189.26680237 -105.125 190.625 C-107.86043741 192.88470916 -109.89143862 195.16155199 -112 198 C-111.67 198.66 -111.34 199.32 -111 200 C-109.05925139 199.72382467 -109.05925139 199.72382467 -107 199 C-106.34 198.01 -105.68 197.02 -105 196 C-103.67532254 195.3162955 -102.34136367 194.65035814 -101 194 C-98.61493584 191.96827868 -98.02322718 191.06968154 -97 188 C-96.01 187.67 -95.02 187.34 -94 187 C-93.835 186.34 -93.67 185.68 -93.5 185 C-93.335 184.34 -93.17 183.68 -93 183 C-92.01 182.67 -91.02 182.34 -90 182 C-89.566875 181.236875 -89.13375 180.47375 -88.6875 179.6875 C-86.62842917 176.40823905 -84.28781317 174.9726879 -81 173 C-81.66 172.01 -82.32 171.02 -83 170 C-83.66 170 -84.32 170 -85 170 Z M-55 174 C-55.33 174.66 -55.66 175.32 -56 176 C-54.68 175.67 -53.36 175.34 -52 175 C-52.99 174.67 -53.98 174.34 -55 174 Z M-50 175 C-48.02 175.99 -48.02 175.99 -46 177 C-46 176.34 -46 175.68 -46 175 C-47.32 175 -48.64 175 -50 175 Z M36 176 C36.33 176.99 36.66 177.98 37 179 C37.66 178.34 38.32 177.68 39 177 C38.01 176.67 37.02 176.34 36 176 Z M-42 177 C-42 177.33 -42 177.66 -42 178 C-39.36 178 -36.72 178 -34 178 C-34 177.67 -34 177.34 -34 177 C-36.64 177 -39.28 177 -42 177 Z M-33 177 C-33.33 177.66 -33.66 178.32 -34 179 C-33.01 179 -32.02 179 -31 179 C-31 178.34 -31 177.68 -31 177 C-31.66 177 -32.32 177 -33 177 Z M-28 178 C-26.515 178.99 -26.515 178.99 -25 180 C-25 179.34 -25 178.68 -25 178 C-25.99 178 -26.98 178 -28 178 Z M-18 179 C-18.33 179.66 -18.66 180.32 -19 181 C-15.37 181.33 -11.74 181.66 -8 182 C-11.44450737 179.70366176 -13.93812283 179.45983515 -18 179 Z M-79 187 C-79.4125 188.2375 -79.825 189.475 -80.25 190.75 C-81.58606168 194.31073041 -82.94449459 196.6128864 -86 199 C-86.99 199.33 -87.98 199.66 -89 200 C-90.09166275 201.93330603 -90.09166275 201.93330603 -91 204 C-91.66 204.66 -92.32 205.32 -93 206 C-90.69 206.33 -88.38 206.66 -86 207 C-85.34 208.65 -84.68 210.3 -84 212 C-83.896875 211.360625 -83.79375 210.72125 -83.6875 210.0625 C-83.460625 209.381875 -83.23375 208.70125 -83 208 C-80.07175348 207.02391783 -78.04386724 206.91773332 -75 207 C-73.875 214.75 -73.875 214.75 -75 217 C-74.93780616 218.85733437 -74.80346698 220.71271391 -74.625 222.5625 C-74.53476563 223.55378906 -74.44453125 224.54507813 -74.3515625 225.56640625 C-74.25607875 227.94350162 -74.25607875 227.94350162 -73 229 C-70.44721941 229.1030814 -67.92786304 229.14050042 -65.375 229.125 C-64.61968994 229.12306641 -63.86437988 229.12113281 -63.08618164 229.11914062 C-55.69789146 229.06364173 -48.36273157 228.60016444 -41 228 C-41 226.68 -41 225.36 -41 224 C-42.65848177 222.98648336 -44.32665961 221.98879205 -46 221 C-47.36011609 219.01811655 -48.69791204 217.02048131 -50 215 C-50.66 215 -51.32 215 -52 215 C-52.928125 213.576875 -52.928125 213.576875 -53.875 212.125 C-55.64621245 208.97349675 -55.64621245 208.97349675 -58 208 C-60.50289058 206.74855471 -61.29483152 205.05649025 -62.72265625 202.72265625 C-64.83531534 199.87347381 -67.56755464 197.76067855 -70.29296875 195.515625 C-72 194 -72 194 -73 192 C-73.99 191.67 -74.98 191.34 -76 191 C-77.6875 188.9375 -77.6875 188.9375 -79 187 Z M97 196 C96.34 196.99 95.68 197.98 95 199 C94.360625 199.12375 93.72125 199.2475 93.0625 199.375 C90.04228925 200.29021538 89.55316449 202.34667733 88 205 C86.66666667 205.66666667 85.33333333 206.33333333 84 207 C83.525625 207.804375 83.05125 208.60875 82.5625 209.4375 C80.73367792 212.43676821 78.96932209 213.21840674 76 215 C74.9590934 216.64142963 73.95495674 218.30712215 73 220 C70 222 70 222 67 221.75 C64 221 64 221 61 219 C61.33 220.65 61.66 222.3 62 224 C59.69 224.66 57.38 225.32 55 226 C54.67 225.67 54.34 225.34 54 225 C51.32941149 224.85884839 48.67567762 224.95752893 46 225 C46 225.99 46 226.98 46 228 C60.85 228.33 75.7 228.66 91 229 C90.67 228.34 90.34 227.68 90 227 C90 224.11604263 91.05905327 221.70522185 92 219 C91.34 218.34 90.68 217.68 90 217 C90.66 215.02 91.32 213.04 92 211 C92.56589844 211.15597656 93.13179688 211.31195313 93.71484375 211.47265625 C94.44832031 211.66730469 95.18179688 211.86195313 95.9375 212.0625 C96.66839844 212.25972656 97.39929688 212.45695312 98.15234375 212.66015625 C99.06693359 212.82837891 99.06693359 212.82837891 100 213 C100.495 212.505 100.495 212.505 101 212 C102.66617115 211.95936168 104.33388095 211.957279 106 212 C106.125 214.875 106.125 214.875 106 218 C105.34 218.66 104.68 219.32 104 220 C104.66 220.33 105.32 220.66 106 221 C106.625 223.5625 106.625 223.5625 107 226 C104 228 104 228 101 229 C101 229.33 101 229.66 101 230 C104.04127817 230.33725065 107.08294191 230.66992332 110.125 231 C110.9809375 231.09539062 111.836875 231.19078125 112.71875 231.2890625 C116.36014101 231.6812123 119.88775349 232 123.5546875 232 C124.36164063 232 125.16859375 232 126 232 C126.33 232.33 126.66 232.66 127 233 C128.68183948 233.23287008 130.3712416 233.41264166 132.0625 233.5625 C132.98160156 233.64628906 133.90070313 233.73007812 134.84765625 233.81640625 C135.91306641 233.90728516 135.91306641 233.90728516 137 234 C137 233.34 137 232.68 137 232 C135.9171875 231.4121875 135.9171875 231.4121875 134.8125 230.8125 C131.58978848 228.73564146 130.13952841 226.61365545 128.11328125 223.42578125 C127.56220703 222.72001953 127.56220703 222.72001953 127 222 C126.34 222 125.68 222 125 222 C123.44921875 220.390625 123.44921875 220.390625 121.6875 218.25 C119.01001611 215.08061928 116.25142119 212.58201094 113 210 C112.505 208.515 112.505 208.515 112 207 C111.236875 206.71125 110.47375 206.4225 109.6875 206.125 C106.32755046 204.71850949 105.23220354 202.84098632 103 200 C101.04148656 198.60644236 99.04872887 197.25717453 97 196 Z M-119 204 C-120.31165257 206.11660427 -120.31165257 206.11660427 -121 208 C-117.54074837 206.7508258 -114.85306797 205.32472205 -112 203 C-112.33 202.01 -112.66 201.02 -113 200 C-115.3190939 200 -117.3868716 202.58359458 -119 204 Z M45 201 C46.32 202.32 47.64 203.64 49 205 C48.34 203.68 47.68 202.36 47 201 C46.34 201 45.68 201 45 201 Z M-96 207 C-95.67 207.66 -95.34 208.32 -95 209 C-94.67 208.34 -94.34 207.68 -94 207 C-94.66 207 -95.32 207 -96 207 Z M-97 209 C-97.7425 209.7425 -98.485 210.485 -99.25 211.25 C-111 223 -111 223 -113.25 225.125 C-115.22443723 226.97977175 -115.22443723 226.97977175 -116 230 C-117.32 230 -118.64 230 -120 230 C-120 230.66 -120 231.32 -120 232 C-113.37608275 233.43518159 -113.37608275 233.43518159 -107 232 C-105.64660742 231.95421928 -104.29112783 231.96180239 -102.9375 232 C-98.21220689 232.06136744 -93.68591781 231.59503718 -89 231 C-89 229.68 -89 228.36 -89 227 C-90.32 226.67 -91.64 226.34 -93 226 C-93.16873478 224.56274129 -93.33490737 223.12518162 -93.5 221.6875 C-93.5928125 220.88699219 -93.685625 220.08648437 -93.78125 219.26171875 C-94 217 -94 217 -94 214 C-94.3185177 211.89179203 -94.3185177 211.89179203 -95 210 C-95.66 209.67 -96.32 209.34 -97 209 Z M53 210 C54.32 211.32 55.64 212.64 57 214 C56.34 212.68 55.68 211.36 55 210 C54.34 210 53.68 210 53 210 Z M-86 215 C-86 216.64587505 -85.9947035 218.29189583 -85.96484375 219.9375 C-85.95582031 220.618125 -85.94679688 221.29875 -85.9375 222 C-85.92589844 222.680625 -85.91429687 223.36125 -85.90234375 224.0625 C-86 226 -86 226 -87 229 C-85.81575674 230.41577477 -85.81575674 230.41577477 -82.4375 230.0625 C-80.7359375 230.0315625 -80.7359375 230.0315625 -79 230 C-79 229.01 -79 228.02 -79 227 C-79.99 226.67 -80.98 226.34 -82 226 C-82 222.7 -82 219.4 -82 216 C-83.32 215.67 -84.64 215.34 -86 215 Z M58 215 C59 217 59 217 59 217 Z M98 218 C98 218.99 98 219.98 98 221 C99.65 220.67 101.3 220.34 103 220 C100.32357511 217.81509993 100.32357511 217.81509993 98 218 Z M-30 223 C-31.41385911 225.38162009 -31.41385911 225.38162009 -32 228 C-24.41 228 -16.82 228 -9 228 C-9 227.34 -9 226.68 -9 226 C-8.34 225.34 -7.68 224.68 -7 224 C-7.62567871 224.00523682 -8.25135742 224.01047363 -8.89599609 224.01586914 C-11.72232057 224.03661618 -14.54862905 224.04965286 -17.375 224.0625 C-18.35984375 224.07087891 -19.3446875 224.07925781 -20.359375 224.08789062 C-21.77089844 224.09272461 -21.77089844 224.09272461 -23.2109375 224.09765625 C-24.51490479 224.10551147 -24.51490479 224.10551147 -25.84521484 224.11352539 C-28 224 -28 224 -30 223 Z M-3 224 C-3 224.99 -3 225.98 -3 227 C11.85 227 26.7 227 42 227 C42.33 226.34 42.66 225.68 43 225 C27.65439298 224.09636804 12.37054735 223.8756583 -3 224 Z M-37 225 C-36.01 226.485 -36.01 226.485 -35 228 C-34.34 227.67 -33.68 227.34 -33 227 C-33 226.34 -33 225.68 -33 225 C-34.32 225 -35.64 225 -37 225 Z M99 226 C98.67 226.66 98.34 227.32 98 228 C98.66 228 99.32 228 100 228 C99.67 227.34 99.34 226.68 99 226 Z M139 233 C139.66 233.66 140.32 234.32 141 235 C141 234.34 141 233.68 141 233 C140.34 233 139.68 233 139 233 Z " fill="#FFFFFF" transform="translate(218,33)"/>
<path d="M0 0 C0.54180908 0.48138428 1.08361816 0.96276855 1.6418457 1.45874023 C4.50960265 3.33306984 6.32366498 3.47834083 9.73046875 3.66015625 C10.8911084 3.72477051 12.05174805 3.78938477 13.24755859 3.85595703 C19.16842569 4.0832382 25.08838888 4.26361129 31.01217651 4.38870239 C43.34878163 4.65040333 55.6785127 5.00683079 68.0078125 5.5078125 C95.08915423 6.59555349 122.0954 7.20452179 149.20092773 7.01391602 C150.32474854 7.007229 151.44856934 7.00054199 152.60644531 6.99365234 C154.71463753 6.97996278 156.82280599 6.96155416 158.9309082 6.93774414 C159.85339355 6.93129883 160.77587891 6.92485352 161.72631836 6.91821289 C162.53225937 6.90995987 163.33820038 6.90170685 164.16856384 6.89320374 C166 7 166 7 167 8 C168.90271268 8.10232752 170.80938249 8.13084419 172.71484375 8.1328125 C173.9898877 8.13490723 175.26493164 8.13700195 176.57861328 8.13916016 C178.03157735 8.1350401 179.48453974 8.13029391 180.9375 8.125 C181.68916443 8.1234491 182.44082886 8.12189819 183.215271 8.12030029 C221.04082751 8.03136797 258.85325206 7.15712966 296.65039062 5.73095703 C311.14121395 5.18644895 325.62689959 4.78343778 340.125 4.5 C354.15641301 4.22340453 368.04343857 3.57969871 382 2 C382.33 2.66 382.66 3.32 383 4 C382.34 4.99 381.68 5.98 381 7 C378.71484375 7.40625 378.71484375 7.40625 375.9375 7.5 C371.46478376 7.79433358 367.8942581 8.57125336 363.71484375 10.10546875 C360.00374546 11.32826229 356.23865152 12.22779052 352.4375 13.125 C351.37474854 13.38083862 351.37474854 13.38083862 350.29052734 13.6418457 C346.73237605 14.47098154 343.22836196 15.13371237 339.59765625 15.5546875 C336.17054426 15.77558029 336.17054426 15.77558029 334 17 C333.278125 16.979375 332.55625 16.95875 331.8125 16.9375 C328.88688393 16.88257361 328.88688393 16.88257361 325.75 17.9375 C322.09466657 18.97317781 318.78421542 19.39271221 315.015625 19.65625 C312.69118017 19.91198969 312.69118017 19.91198969 310 22 C309.34 21.67 308.68 21.34 308 21 C303.85496339 20.75212983 303.85496339 20.75212983 300 22 C297.33333333 22 294.66666667 22 292 22 C291.34 22.33 290.68 22.66 290 23 C288.50158604 23.07203913 286.99999258 23.08386065 285.5 23.0625 C284.613125 23.05476563 283.72625 23.04703125 282.8125 23.0390625 C280.9375 23.01302083 279.0625 22.98697917 277.1875 22.9609375 C276.300625 22.95320313 275.41375 22.94546875 274.5 22.9375 C273.6853125 22.92589844 272.870625 22.91429687 272.03125 22.90234375 C269.93090258 22.86632123 269.93090258 22.86632123 268 24 C266.55429892 24.0940789 265.10433738 24.12629701 263.65557861 24.12698364 C262.74223755 24.12980347 261.82889648 24.13262329 260.88787842 24.13552856 C259.37958466 24.13249222 259.37958466 24.13249222 257.84082031 24.12939453 C256.7834668 24.13114685 255.72611328 24.13289917 254.63671875 24.13470459 C251.11717109 24.13912797 247.59767324 24.13617923 244.078125 24.1328125 C241.62261953 24.1334864 239.16711413 24.13445715 236.71160889 24.13571167 C231.54308441 24.1371901 226.37457716 24.13503312 221.20605469 24.13037109 C214.64143082 24.12473346 208.07684838 24.12791347 201.5122261 24.13394356 C196.42608339 24.13759671 191.3399501 24.136388 186.25380707 24.13381577 C183.83816269 24.13315642 181.4225174 24.13393949 179.00687408 24.13629532 C165.5406696 24.14652659 152.13083762 23.93964392 138.68263245 23.22018433 C132.0171105 22.87517648 125.36043118 22.9249811 118.6875 23 C116.2747826 23.02533037 113.86201555 23.04642362 111.44921875 23.0625 C109.90754028 23.07990234 109.90754028 23.07990234 108.3347168 23.09765625 C106 23 106 23 105 22 C102.87691847 21.90057194 100.75040328 21.87030816 98.625 21.875 C96.88089844 21.87113281 96.88089844 21.87113281 95.1015625 21.8671875 C91.96428577 21.85893157 91.96428577 21.85893157 89 23 C88.505 22.01 88.505 22.01 88 21 C86.865625 21.020625 85.73125 21.04125 84.5625 21.0625 C81 21 81 21 80 20 C78.50134659 19.77303868 76.99357472 19.60551963 75.484375 19.46484375 C74.56269531 19.37783203 73.64101562 19.29082031 72.69140625 19.20117188 C71.72074219 19.11416016 70.75007813 19.02714844 69.75 18.9375 C68.79480469 18.84662109 67.83960937 18.75574219 66.85546875 18.66210938 C61.56011916 18.16127711 61.56011916 18.16127711 56.24707031 18.03735352 C54 18 54 18 53 17 C50.83748305 16.7861247 48.66918861 16.62978052 46.5 16.5 C37.58240917 15.91940406 28.89209891 15.26269487 20.3125 12.625 C19.00732422 12.22861328 19.00732422 12.22861328 17.67578125 11.82421875 C15.94241986 11.29029283 14.21053698 10.75153334 12.48046875 10.20703125 C7.34753263 8.61460855 2.36097261 7.45633642 -2.96875 6.72265625 C-5 6 -5 6 -6.28125 3.93359375 C-6.63703125 2.97646484 -6.63703125 2.97646484 -7 2 C-6.01 2 -5.02 2 -4 2 C-1.1490712 1.2981424 -1.1490712 1.2981424 0 0 Z " fill="#FFFFFF" transform="translate(16,377)"/>
<path d="M0 0 C2.25 3.125 2.25 3.125 4 6 C4.66 6.66 5.32 7.32 6 8 C5.690625 9.0725 5.38125 10.145 5.0625 11.25 C4.51702871 13.1751928 3.97771101 15.10507668 3.5625 17.0625 C2.31715977 21.35200524 0.410179 25.07698943 -3 28 C-2.34 28.66 -1.68 29.32 -1 30 C-1.20625 30.5775 -1.4125 31.155 -1.625 31.75 C-2.29316048 34.1869055 -2.29316048 34.1869055 -0.3125 36.5625 C0.05488281 37.06652344 0.42226563 37.57054687 0.80078125 38.08984375 C3.25655757 42.00148746 5.05857865 46.48390626 6 51 C5.03369141 53.16162109 5.03369141 53.16162109 4 55 C0.7073118 54.91935365 -2.58349221 54.80649721 -5.875 54.6875 C-6.81214844 54.66494141 -7.74929688 54.64238281 -8.71484375 54.61914062 C-9.61074219 54.58369141 -10.50664062 54.54824219 -11.4296875 54.51171875 C-12.25710449 54.48553467 -13.08452148 54.45935059 -13.93701172 54.43237305 C-16 54 -16 54 -18 51 C-18 49.68 -18 48.36 -18 47 C-19.485 47.495 -19.485 47.495 -21 48 C-22.22520264 51.00847418 -22.22520264 51.00847418 -23 54 C-26.14581423 54.02888514 -29.29159469 54.04675923 -32.4375 54.0625 C-33.33533203 54.07087891 -34.23316406 54.07925781 -35.15820312 54.08789062 C-36.43920898 54.09272461 -36.43920898 54.09272461 -37.74609375 54.09765625 C-38.53685303 54.10289307 -39.3276123 54.10812988 -40.14233398 54.11352539 C-42 54 -42 54 -43 53 C-43.13309679 51.43701475 -43.19885756 49.86822553 -43.23706055 48.30004883 C-43.26346115 47.29843216 -43.28986176 46.29681549 -43.31706238 45.2648468 C-43.35154228 43.6274781 -43.35154228 43.6274781 -43.38671875 41.95703125 C-43.41224319 40.84067795 -43.43776764 39.72432465 -43.46406555 38.57414246 C-43.51619738 36.20435139 -43.56560902 33.8344992 -43.61254883 31.46459961 C-43.68682915 27.84518811 -43.77757323 24.22643183 -43.86914062 20.60742188 C-43.91768304 18.30731289 -43.96524071 16.00718287 -44.01171875 13.70703125 C-44.04077805 12.62557327 -44.06983734 11.5441153 -44.09977722 10.42988586 C-44.18685157 5.20167261 -44.15138297 0.88358151 -42 -4 C-37.50040757 -4.19827341 -33.00032507 -4.38168337 -28.5 -4.5625 C-27.2315625 -4.61857422 -25.963125 -4.67464844 -24.65625 -4.73242188 C-6.47243241 -5.44272725 -6.47243241 -5.44272725 0 0 Z M-22 5 C-22 10.28 -22 15.56 -22 21 C-21.01 20.67 -20.02 20.34 -19 20 C-18.67 17.03 -18.34 14.06 -18 11 C-18.66 10.67 -19.32 10.34 -20 10 C-20 8.68 -20 7.36 -20 6 C-20.66 5.67 -21.32 5.34 -22 5 Z M-22 38 C-22 40.64 -22 43.28 -22 46 C-21.34 45.67 -20.68 45.34 -20 45 C-20.33 42.69 -20.66 40.38 -21 38 C-21.33 38 -21.66 38 -22 38 Z " fill="#FFFFFF" transform="translate(335,292)"/>
<path d="M0 0 C1.59712387 3.2749688 1.44084714 6.09898528 1.39453125 9.71875 C1.39066406 11.0284375 1.38679688 12.338125 1.3828125 13.6875 C1.11324595 16.85228135 0.76575951 18.58918236 -0.91796875 21.21875 C-1.57796875 21.21875 -2.23796875 21.21875 -2.91796875 21.21875 C-3.24796875 21.87875 -3.57796875 22.53875 -3.91796875 23.21875 C-2.92796875 23.54875 -1.93796875 23.87875 -0.91796875 24.21875 C2.91291324 29.42505709 3.61286137 34.87291716 3.08203125 41.21875 C1.20050296 45.92257073 -1.18545017 49.17404356 -5.53955078 51.79956055 C-9.40472883 53.42322582 -12.78227138 53.71025741 -16.90625 53.765625 C-18.02195625 53.79610931 -18.02195625 53.79610931 -19.16020203 53.82720947 C-20.72065894 53.86719779 -22.281302 53.90043982 -23.84204102 53.92724609 C-26.24099353 53.96893289 -28.63871715 54.03154437 -31.03710938 54.09765625 C-32.55596109 54.13402252 -34.07484133 54.16922083 -35.59375 54.203125 C-36.31347488 54.2207489 -37.03319977 54.2383728 -37.7747345 54.25653076 C-39.48897963 54.28352572 -41.20392906 54.25660576 -42.91796875 54.21875 C-44.58078097 52.55593778 -44.0682485 50.55829437 -44.09155273 48.27172852 C-44.10504257 47.21715958 -44.11853241 46.16259064 -44.13243103 45.07606506 C-44.14286942 43.92819016 -44.1533078 42.78031525 -44.1640625 41.59765625 C-44.19699502 39.19465773 -44.23020676 36.79166303 -44.26367188 34.38867188 C-44.31117013 30.57872095 -44.35559691 26.76878616 -44.39477539 22.95874023 C-44.43434746 19.29654641 -44.48592496 15.63467474 -44.5390625 11.97265625 C-44.54747665 10.82680557 -44.55589081 9.6809549 -44.56455994 8.50038147 C-44.58120193 7.44266037 -44.59784393 6.38493927 -44.61499023 5.29516602 C-44.6252977 4.36108414 -44.63560516 3.42700226 -44.64622498 2.46461487 C-44.7079863 0.01736698 -44.7079863 0.01736698 -46.91796875 -1.78125 C-43.39724416 -5.14765072 -39.98728468 -5.30795209 -35.3359375 -5.43359375 C-34.23733147 -5.4747506 -34.23733147 -5.4747506 -33.11653137 -5.51673889 C-31.56937715 -5.56998898 -30.02194971 -5.61575887 -28.47436523 -5.65454102 C-26.12247419 -5.71828907 -23.77423014 -5.81960126 -21.42382812 -5.92382812 C-19.91543474 -5.97104713 -18.40696972 -6.01604066 -16.8984375 -6.05859375 C-16.20340622 -6.09170151 -15.50837494 -6.12480927 -14.7922821 -6.15892029 C-8.59276433 -6.25777386 -4.51360204 -4.19185851 0 0 Z M-22.91796875 6.21875 C-22.91796875 8.52875 -22.91796875 10.83875 -22.91796875 13.21875 C-21.92796875 13.71375 -21.92796875 13.71375 -20.91796875 14.21875 C-21.57796875 15.20875 -22.23796875 16.19875 -22.91796875 17.21875 C-22.25796875 17.87875 -21.59796875 18.53875 -20.91796875 19.21875 C-18.48851715 15.5745726 -18.756173 13.50633728 -18.91796875 9.21875 C-19.57796875 8.88875 -20.23796875 8.55875 -20.91796875 8.21875 C-20.91796875 7.55875 -20.91796875 6.89875 -20.91796875 6.21875 C-21.57796875 6.21875 -22.23796875 6.21875 -22.91796875 6.21875 Z M-21.91796875 29.21875 C-22.24796875 29.87875 -22.57796875 30.53875 -22.91796875 31.21875 C-22.25796875 31.87875 -21.59796875 32.53875 -20.91796875 33.21875 C-21.90796875 33.71375 -21.90796875 33.71375 -22.91796875 34.21875 C-22.91796875 36.85875 -22.91796875 39.49875 -22.91796875 42.21875 C-21.92796875 42.21875 -20.93796875 42.21875 -19.91796875 42.21875 C-17.68873098 37.89140609 -17.99326322 34.93474818 -18.91796875 30.21875 C-19.90796875 29.88875 -20.89796875 29.55875 -21.91796875 29.21875 Z " fill="#FFFFFF" transform="translate(232.91796875,292.78125)"/>
<path d="M0 0 C1.5478418 -0.01836914 1.5478418 -0.01836914 3.12695312 -0.03710938 C4.12017578 -0.03904297 5.11339844 -0.04097656 6.13671875 -0.04296875 C7.03479248 -0.04707764 7.93286621 -0.05118652 8.8581543 -0.05541992 C11.49156936 0.20522347 13.10350689 0.74394068 15.3125 2.1875 C16.52053458 5.81160374 16.40071685 9.39417555 16.3125 13.1875 C14.625 14.375 14.625 14.375 12.3125 15.1875 C11.61125 14.754375 10.91 14.32125 10.1875 13.875 C6.0470419 11.44473111 2.08671821 10.93501731 -2.6875 11.1875 C-7.18615577 13.31413727 -9.60057191 15.68412885 -11.6875 20.1875 C-13.80795884 28.93624625 -13.769002 39.00855264 -9.6875 47.1875 C-7.21082152 49.36600995 -7.21082152 49.36600995 -4.6875 50.1875 C-3.99590599 48.34024948 -3.99590599 48.34024948 -3.6875 46.1875 C-4.3475 45.1975 -5.0075 44.2075 -5.6875 43.1875 C-4.6975 42.6925 -4.6975 42.6925 -3.6875 42.1875 C-3.63354522 40.56286158 -3.59472805 38.93771459 -3.5625 37.3125 C-3.53929687 36.40757812 -3.51609375 35.50265625 -3.4921875 34.5703125 C-3.44425164 31.99943006 -3.44425164 31.99943006 -5.6875 30.1875 C-4.2265625 27.71484375 -4.2265625 27.71484375 -1.6875 25.1875 C1.20347017 24.5076668 3.98363376 24.62361814 6.9375 24.75 C7.71351562 24.75580078 8.48953125 24.76160156 9.2890625 24.76757812 C15.01687971 24.89187971 15.01687971 24.89187971 17.3125 27.1875 C17.90036177 31.61775071 17.92011316 36.09798369 18.0625 40.5625 C18.11792969 41.80773437 18.17335937 43.05296875 18.23046875 44.3359375 C18.27300781 45.5321875 18.31554687 46.7284375 18.359375 47.9609375 C18.39901367 49.05841309 18.43865234 50.15588867 18.47949219 51.28662109 C18.31180077 54.19964659 17.93865553 55.78894702 16.3125 58.1875 C9.4168481 60.93023584 0.910369 60.46298556 -6.4375 60.625 C-7.3241333 60.65948242 -8.2107666 60.69396484 -9.12426758 60.72949219 C-15.35859792 60.76914558 -20.01314906 59.49738661 -24.6875 55.1875 C-25.1825 53.7025 -25.1825 53.7025 -25.6875 52.1875 C-27.1725 52.6825 -27.1725 52.6825 -28.6875 53.1875 C-29.1825 51.7025 -29.1825 51.7025 -29.6875 50.1875 C-30.6465625 49.2284375 -30.6465625 49.2284375 -31.625 48.25 C-33.61844872 46.25655128 -34.67833817 44.79450139 -35.6875 42.1875 C-35.6875 40.1875 -35.6875 38.1875 -35.6875 36.1875 C-35.71070313 35.01703125 -35.73390625 33.8465625 -35.7578125 32.640625 C-35.77638686 31.23958787 -35.79460343 29.83854595 -35.8125 28.4375 C-35.82925781 27.7465625 -35.84601562 27.055625 -35.86328125 26.34375 C-35.90752292 21.63643682 -35.29873534 17.67191724 -33.6875 13.1875 C-33.0275 12.5275 -32.3675 11.8675 -31.6875 11.1875 C-31.0275 11.1875 -30.3675 11.1875 -29.6875 11.1875 C-29.130625 10.28 -28.57375 9.3725 -28 8.4375 C-24.66970483 3.75708517 -21.30823183 1.70618651 -15.6875 0.59375 C-10.47929556 -0.05684344 -5.24057243 0.00331053 0 0 Z " fill="#FFFFFF" transform="translate(85.6875,286.8125)"/>
<path d="M0 0 C0.77070328 -0.00570007 1.54140656 -0.01140015 2.33546448 -0.01727295 C3.96882753 -0.02673567 5.60220978 -0.03326196 7.2355957 -0.03710938 C9.74008304 -0.0468214 12.24375215 -0.07783414 14.74804688 -0.109375 C16.33202636 -0.11590411 17.91601173 -0.12115494 19.5 -0.125 C20.62818398 -0.1435202 20.62818398 -0.1435202 21.77915955 -0.16241455 C23.89233398 -0.15332031 23.89233398 -0.15332031 27.31640625 0.203125 C29.31640625 3.203125 29.31640625 3.203125 29.06640625 5.765625 C28.31640625 8.203125 28.31640625 8.203125 26.31640625 10.203125 C23.95131264 10.50372443 21.57198744 10.69827512 19.19140625 10.828125 C17.91007812 10.90289062 16.62875 10.97765625 15.30859375 11.0546875 C13.82746094 11.12816406 13.82746094 11.12816406 12.31640625 11.203125 C12.64640625 15.163125 12.97640625 19.123125 13.31640625 23.203125 C14.30382812 23.24050781 15.29125 23.27789062 16.30859375 23.31640625 C18.23058594 23.41501953 18.23058594 23.41501953 20.19140625 23.515625 C21.46757812 23.57363281 22.74375 23.63164062 24.05859375 23.69140625 C25.13367188 23.86027344 26.20875 24.02914063 27.31640625 24.203125 C29.31640625 27.203125 29.31640625 27.203125 29.00390625 30.328125 C28.31640625 33.203125 28.31640625 33.203125 27.31640625 34.203125 C24.78591223 34.27626067 22.28335788 34.29560027 19.75390625 34.265625 C19.04298828 34.26111328 18.33207031 34.25660156 17.59960938 34.25195312 C15.83850612 34.24013364 14.07744589 34.22219763 12.31640625 34.203125 C12.31640625 38.823125 12.31640625 43.443125 12.31640625 48.203125 C13.86328125 48.0175 15.41015625 47.831875 17.00390625 47.640625 C20.67120218 47.26609265 23.73751722 47.12945829 27.31640625 48.203125 C28.44140625 51.515625 28.44140625 51.515625 29.31640625 55.203125 C28.65640625 56.193125 27.99640625 57.183125 27.31640625 58.203125 C24.64033822 58.55344663 22.1840808 58.71600132 19.5 58.75 C18.34250999 58.78048431 18.34250999 58.78048431 17.16163635 58.81158447 C15.53019457 58.85180918 13.89856565 58.88496897 12.2668457 58.91162109 C9.75998704 58.95302457 7.25435556 59.01561616 4.74804688 59.08203125 C3.1653926 59.11842676 1.58271021 59.153624 0 59.1875 C-0.75414688 59.2051239 -1.50829376 59.2227478 -2.28529358 59.24090576 C-4.08456862 59.26789561 -5.88451464 59.24098632 -7.68359375 59.203125 C-9.40182465 57.4848941 -8.81113696 55.21714751 -8.81298828 52.87304688 C-8.81614044 51.73516724 -8.8192926 50.5972876 -8.82254028 49.42492676 C-8.82051605 48.18641968 -8.81849182 46.9479126 -8.81640625 45.671875 C-8.81736298 44.41048706 -8.8183197 43.14909912 -8.81930542 41.8494873 C-8.8199875 39.17615362 -8.81862904 36.50291063 -8.81396484 33.82958984 C-8.80826756 30.39605809 -8.81154676 26.9626045 -8.81753731 23.52907562 C-8.82201137 20.26417257 -8.81888258 16.99927907 -8.81640625 13.734375 C-8.81843048 12.49586792 -8.82045471 11.25736084 -8.82254028 9.98132324 C-8.81938812 8.8434436 -8.81623596 7.70556396 -8.81298828 6.53320312 C-8.81219269 5.52584106 -8.81139709 4.518479 -8.81057739 3.48059082 C-8.53311765 -1.49568068 -3.93380802 0.02216837 0 0 Z " fill="#FFFFFF" transform="translate(253.68359375,287.796875)"/>
<path d="M0 0 C0.88076706 0.02361099 1.76153412 0.04722198 2.66899109 0.07154846 C5.47091044 0.14787331 8.27253141 0.23203111 11.07421875 0.31640625 C12.97850122 0.36965818 14.88279808 0.42239835 16.78710938 0.47460938 C21.4455 0.60344608 26.10363875 0.7393063 30.76171875 0.87890625 C32.60972887 5.76586636 32.8491137 8.00831804 30.76171875 12.87890625 C28.80859375 12.81380208 26.85546875 12.74869792 24.90234375 12.68359375 C22.45447417 12.90693951 20.91626546 13.73849599 18.76171875 14.87890625 C18.72413452 16.82494751 18.72413452 16.82494751 18.68579102 18.81030273 C18.59190123 23.60549481 18.49163626 28.40053575 18.3894043 33.19555664 C18.34598541 35.27429682 18.30431563 37.35307428 18.2644043 39.43188477 C18.20686954 42.4130377 18.14312756 45.39400174 18.078125 48.375 C18.05305626 49.77811684 18.05305626 49.77811684 18.02748108 51.20957947 C18.00753586 52.07039627 17.98759064 52.93121307 17.96704102 53.81811523 C17.95149673 54.579785 17.93595245 55.34145477 17.91993713 56.12620544 C17.76171875 57.87890625 17.76171875 57.87890625 16.76171875 58.87890625 C15.42156654 59.03472928 14.07412972 59.12934767 12.7265625 59.1953125 C11.91767578 59.23720703 11.10878906 59.27910156 10.27539062 59.32226562 C9.42525391 59.36158203 8.57511719 59.40089844 7.69921875 59.44140625 C6.84521484 59.48458984 5.99121094 59.52777344 5.11132812 59.57226562 C2.99499838 59.67867327 0.87838062 59.77932356 -1.23828125 59.87890625 C-2.60190212 57.22401991 -3.72788197 54.83922206 -4.23828125 51.87890625 C-3.74328125 51.38390625 -3.74328125 51.38390625 -3.23828125 50.87890625 C-3.14966133 48.06727245 -3.1230577 45.2803237 -3.140625 42.46875 C-3.14203995 41.62671524 -3.1434549 40.78468048 -3.14491272 39.91712952 C-3.15052862 37.2168529 -3.16308377 34.51665797 -3.17578125 31.81640625 C-3.1807942 29.99023557 -3.18535746 28.16406359 -3.18945312 26.33789062 C-3.20050321 21.85153083 -3.21777846 17.36523241 -3.23828125 12.87890625 C-4.33269531 12.89953125 -5.42710937 12.92015625 -6.5546875 12.94140625 C-10.06900183 12.88177844 -12.11953368 12.39102629 -15.23828125 10.87890625 C-16.21484375 4.82421875 -16.21484375 4.82421875 -16.23828125 2.87890625 C-11.99694397 -1.36243103 -5.60324326 -0.17839602 0 0 Z " fill="#FFFFFF" transform="translate(359.23828125,287.12109375)"/>
<path d="M0 0 C3.12482562 -0.08687496 6.24934246 -0.14034568 9.375 -0.1875 C10.70917969 -0.22520508 10.70917969 -0.22520508 12.0703125 -0.26367188 C13.34648437 -0.27817383 13.34648437 -0.27817383 14.6484375 -0.29296875 C15.82672119 -0.31653442 15.82672119 -0.31653442 17.02880859 -0.34057617 C17.67930176 -0.22818604 18.32979492 -0.1157959 19 0 C21.09020153 3.13530229 21.2474595 3.8183177 21.22705078 7.37963867 C21.22689972 8.26032516 21.22674866 9.14101166 21.22659302 10.04838562 C21.21627045 10.99534805 21.20594788 11.94231049 21.1953125 12.91796875 C21.1924826 13.89034988 21.18965271 14.86273102 21.18673706 15.86457825 C21.17553599 18.97234366 21.15043148 22.07982159 21.125 25.1875 C21.11497011 27.29361563 21.10584427 29.39973578 21.09765625 31.50585938 C21.07559688 36.6706838 21.04106746 41.83529315 21 47 C22.49853516 46.98259766 22.49853516 46.98259766 24.02734375 46.96484375 C25.31769531 46.95582031 26.60804688 46.94679688 27.9375 46.9375 C29.22527344 46.92589844 30.51304687 46.91429687 31.83984375 46.90234375 C35 47 35 47 36 48 C36.27314815 53.73611111 36.27314815 53.73611111 36 56 C33.50257597 58.49742403 32.02282389 58.23676464 28.61521912 58.25224304 C27.51984581 58.24146477 27.51984581 58.24146477 26.40234375 58.23046875 C25.27814781 58.22978142 25.27814781 58.22978142 24.13124084 58.2290802 C22.54670631 58.22605811 20.96217474 58.21817306 19.37768555 58.20581055 C16.94374142 58.18754683 14.51017738 58.18530089 12.07617188 58.18554688 C10.53905919 58.18063201 9.0019491 58.17480382 7.46484375 58.16796875 C6.73257065 58.16685593 6.00029755 58.1657431 5.24583435 58.16459656 C0.11605238 58.11605238 0.11605238 58.11605238 -1 57 C-1.13320613 55.40105292 -1.19887992 53.79641457 -1.23706055 52.19238281 C-1.26346115 51.1675177 -1.28986176 50.14265259 -1.31706238 49.08673096 C-1.34004898 47.97014099 -1.36303558 46.85355103 -1.38671875 45.703125 C-1.41224319 44.56220398 -1.43776764 43.42128296 -1.46406555 42.24578857 C-1.51619364 39.82472161 -1.56560576 37.40359492 -1.61254883 34.98242188 C-1.68690546 31.27960685 -1.77761612 27.57742523 -1.86914062 23.875 C-1.91767529 21.52606229 -1.96523306 19.17710415 -2.01171875 16.828125 C-2.04077805 15.71963196 -2.06983734 14.61113892 -2.09977722 13.46905518 C-2.11672134 12.43158142 -2.13366547 11.39410767 -2.15112305 10.32519531 C-2.17031296 9.41554016 -2.18950287 8.50588501 -2.20927429 7.56866455 C-1.97721962 4.72039009 -1.18256894 2.58727146 0 0 Z " fill="#FFFFFF" transform="translate(147,288)"/>
<path d="M0 0 C1.00160156 -0.00515625 2.00320312 -0.0103125 3.03515625 -0.015625 C6.13768166 0.2683208 8.24940432 0.65918402 10.9375 2.25 C11.89453318 5.66963363 12.05442611 8.90015584 12.02270508 12.43579102 C12.01551956 13.44356094 12.00833405 14.45133087 12.00093079 15.48963928 C11.98644394 16.56684738 11.97195709 17.64405548 11.95703125 18.75390625 C11.94290695 19.86934311 11.92878265 20.98477997 11.91423035 22.13401794 C11.88116808 24.48839969 11.84482149 26.8427373 11.80541992 29.19702148 C11.7501518 32.80259662 11.72163592 36.40779769 11.69335938 40.01367188 C11.65791022 42.30210965 11.62085526 44.59052324 11.58203125 46.87890625 C11.57766556 47.95813858 11.57329987 49.03737091 11.56880188 50.14930725 C11.5343824 51.6562339 11.5343824 51.6562339 11.49926758 53.19360352 C11.4814196 54.51667259 11.4814196 54.51667259 11.46321106 55.86647034 C10.77815395 58.97246155 9.31204126 60.21493972 6.9375 62.25 C6.6075 61.26 6.2775 60.27 5.9375 59.25 C4.87789062 59.34539062 3.81828125 59.44078125 2.7265625 59.5390625 C1.33858691 59.65160106 -0.04943661 59.76354965 -1.4375 59.875 C-2.48550781 59.97167969 -2.48550781 59.97167969 -3.5546875 60.0703125 C-5.38619111 60.21119739 -7.22562748 60.23761659 -9.0625 60.25 C-11.66806168 57.64443832 -11.33249371 56.51380117 -11.38134766 52.88232422 C-11.40121735 51.76131317 -11.42108704 50.64030212 -11.44155884 49.48532104 C-11.45888565 47.66340744 -11.45888565 47.66340744 -11.4765625 45.8046875 C-11.49592865 44.56453888 -11.5152948 43.32439026 -11.5352478 42.04666138 C-11.5849881 38.74888221 -11.62622477 35.45113861 -11.66339111 32.15319824 C-11.70339002 28.78822666 -11.75450103 25.42342608 -11.8046875 22.05859375 C-11.90089787 15.45583893 -11.98590383 8.85300989 -12.0625 2.25 C-7.85938391 0.77921974 -4.46723821 -0.02305671 0 0 Z " fill="#FFFFFF" transform="translate(124.0625,286.75)"/>
<path d="M0 0 C3.28788824 3.11016455 5.83735988 6.01618925 8 10 C8.33 7.36 8.66 4.72 9 2 C10.9375 1.4375 10.9375 1.4375 13 1 C14.56775495 2.56775495 14.2183326 4.19059913 14.31640625 6.3671875 C14.35830078 7.25277344 14.40019531 8.13835937 14.44335938 9.05078125 C14.48267578 9.98277344 14.52199219 10.91476562 14.5625 11.875 C14.60568359 12.79925781 14.64886719 13.72351563 14.69335938 14.67578125 C14.85087381 18.121097 15 21.55066891 15 25 C10.14871609 24.58417566 8.22639071 22.4952566 5 19 C3.52263018 18.88361269 3.52263018 18.88361269 1.4375 21.5 C0.2309375 22.7375 0.2309375 22.7375 -1 24 C-2.65 22.35 -4.3 20.7 -6 19 C-5.67 18.34 -5.34 17.68 -5 17 C-4.80087808 13.42908019 -4.68142625 9.85997198 -4.57421875 6.28515625 C-4 3 -4 3 -1.95703125 1.05859375 C-1.31121094 0.70925781 -0.66539063 0.35992187 0 0 Z " fill="#FFFFFF" transform="translate(126,351)"/>
<path d="M0 0 C1.875 0.6875 1.875 0.6875 4 2 C4.68753301 3.65816784 5.35561283 5.32459336 6 7 C6.99 7.33 7.98 7.66 9 8 C9.66 5.69 10.32 3.38 11 1 C12.65 1.33 14.3 1.66 16 2 C17.51708428 16.78132118 17.51708428 16.78132118 15 23 C11.65626525 22.44271087 8.96687001 21.64826111 6 20 C5.01 21.32 4.02 22.64 3 24 C-1.875 22.25 -1.875 22.25 -3 20 C-3.08692438 16.99614756 -2.85695787 13.99917218 -2.6875 11 C-2.63432617 9.75089844 -2.63432617 9.75089844 -2.58007812 8.4765625 C-2.53689453 7.67992187 -2.49371094 6.88328125 -2.44921875 6.0625 C-2.39254028 4.96615234 -2.39254028 4.96615234 -2.3347168 3.84765625 C-2 2 -2 2 0 0 Z M4 15 C4.33 16.32 4.66 17.64 5 19 C5.33 17.68 5.66 16.36 6 15 C5.34 15 4.68 15 4 15 Z " fill="#FFFFFF" transform="translate(335,351)"/>
<path d="M0 0 C1.33346118 2.89009578 1.84782899 5.82695269 2 9 C0.625 11.5625 0.625 11.5625 -1 13 C0.98 15.97 0.98 15.97 3 19 C1.75 20.5625 1.75 20.5625 0 22 C-2.62925184 21.74138507 -3.78283446 21.20770191 -5.703125 19.37109375 C-6.21359375 18.73300781 -6.7240625 18.09492188 -7.25 17.4375 C-7.77078125 16.79683594 -8.2915625 16.15617187 -8.828125 15.49609375 C-9.21484375 15.00238281 -9.6015625 14.50867188 -10 14 C-10.0825 15.11375 -10.165 16.2275 -10.25 17.375 C-11 21 -11 21 -13.0625 22.4375 C-13.701875 22.623125 -14.34125 22.80875 -15 23 C-16.65394117 21.34605883 -16.12999683 19.39684587 -16.1328125 17.125 C-16.13410156 16.14015625 -16.13539063 15.1553125 -16.13671875 14.140625 C-16.13285156 13.10421875 -16.12898437 12.0678125 -16.125 11 C-16.13080078 9.44539063 -16.13080078 9.44539063 -16.13671875 7.859375 C-16.13542969 6.87453125 -16.13414062 5.8896875 -16.1328125 4.875 C-16.13168457 3.96492188 -16.13055664 3.05484375 -16.12939453 2.1171875 C-16 0 -16 0 -15 -1 C-13.23783655 -1.28835402 -11.46388573 -1.50633218 -9.6875 -1.6875 C-8.23923828 -1.84798828 -8.23923828 -1.84798828 -6.76171875 -2.01171875 C-3.78796408 -1.99910027 -2.3772811 -1.77225235 0 0 Z M-11 5 C-10.67 5.66 -10.34 6.32 -10 7 C-8.35 7 -6.7 7 -5 7 C-5 6.34 -5 5.68 -5 5 C-6.98 5 -8.96 5 -11 5 Z " fill="#FFFFFF" transform="translate(211,353)"/>
<path d="M0 0 C3.68577742 2.80439586 5.7987427 5.52258643 7 10 C7.50756495 13.97592546 7.17071399 15.68295973 5.25 19.25 C2.34386914 22.80193772 0.24732089 23.58422637 -4 25 C-8.35377184 23.67831926 -10.30159379 22.99128623 -12.9375 19.25 C-14.58695512 14.20460787 -14.62057853 10.11736164 -12.6875 5.1875 C-9.80687244 -0.2536854 -5.80875552 -1.11183211 0 0 Z M-6 7 C-8.29013653 10.4352048 -8.17842973 11.985331 -8 16 C-5.6984589 16.77802187 -5.6984589 16.77802187 -3 17 C-0.69495956 15.66846734 -0.69495956 15.66846734 1 14 C0.42547254 10.06924356 0.42547254 10.06924356 -2 7 C-3.32 7 -4.64 7 -6 7 Z " fill="#FFFFFF" transform="translate(109,351)"/>
<path d="M0 0 C2.75262393 2.29385328 3.85784096 3.57352289 5 7 C5 8.32 5 9.64 5 11 C5.268125 11.969375 5.53625 12.93875 5.8125 13.9375 C6 17 6 17 4.0625 19.8125 C0.08457018 22.65387844 -2.14644541 22.84343372 -7 23 C-7.99 22.67 -8.98 22.34 -10 22 C-10 21.34 -10 20.68 -10 20 C-10.99 20.33 -11.98 20.66 -13 21 C-13 17.42424104 -11.91159393 15.94704065 -10 13 C-7.36 14.32 -4.72 15.64 -2 17 C-3.27929846 14.44140308 -4.44271068 14.13851266 -7 12.9375 C-10.91525424 11.08474576 -10.91525424 11.08474576 -12 10 C-12.07179964 8.48071962 -12.08392007 6.95832518 -12.0625 5.4375 C-12.05347656 4.61121094 -12.04445312 3.78492188 -12.03515625 2.93359375 C-12.02355469 2.29550781 -12.01195312 1.65742188 -12 1 C-4.21518987 -1.59493671 -4.21518987 -1.59493671 0 0 Z " fill="#FFFFFF" transform="translate(160,352)"/>
<path d="M0 0 C3.35489713 0.22324639 4.26829122 0.72442656 7.1875 2.75 C9.125 5.625 9.125 5.625 8.8125 8.75 C8.585625 9.69875 8.35875 10.6475 8.125 11.625 C9.115 13.11 9.115 13.11 10.125 14.625 C10.125 18.125 10.125 18.125 9.125 21.625 C5.83151197 24.19552724 3.03447311 24.88606184 -1.0625 24.75 C-4.875 23.625 -4.875 23.625 -6.05078125 21.98828125 C-6.875 20.0625 -6.875 20.0625 -7.875 16.625 C-6.885 15.635 -5.895 14.645 -4.875 13.625 C-5.535 12.965 -6.195 12.305 -6.875 11.625 C-7.24898428 8.25914152 -6.98886866 5.95237239 -5.875 2.75 C-3.875 0.625 -3.875 0.625 0 0 Z M-0.875 14.625 C-1.205 15.615 -1.535 16.605 -1.875 17.625 C-0.555 17.625 0.765 17.625 2.125 17.625 C2.125 16.965 2.125 16.305 2.125 15.625 C1.135 15.295 0.145 14.965 -0.875 14.625 Z " fill="#FFFFFF" transform="translate(365.875,350.375)"/>
<path d="M0 0 C3.547 2.76142282 5.61111524 5.80904043 7 10.0625 C7 14.55557734 6.01064898 17.65246802 3.3125 21.25 C0.12940082 23.65883181 -2.00213226 24.59343718 -6 25 C-9.93378438 22.77994347 -12.56721809 20.29834574 -14 16 C-14.27042894 11.22242203 -14.07777272 7.35342855 -12 3 C-8.21343205 -0.24562967 -4.88056575 -0.85623961 0 0 Z M-6 7 C-8.56687367 10.8503105 -7.83288724 12.58569763 -7 17 C-4.08347826 17.16681109 -4.08347826 17.16681109 -1 17 C1.22966747 15.17796419 1.22966747 15.17796419 1.3125 12.5625 C1.19984395 9.98992726 1.19984395 9.98992726 -0.25 8.1875 C-2.19917293 6.62566572 -2.19917293 6.62566572 -6 7 Z " fill="#FFFFFF" transform="translate(320,351)"/>
<path d="M0 0 C2.875 2 2.875 2 5 4 C4.67 5.65 4.34 7.3 4 9 C0.94736336 9.98120464 -0.94736336 9.98120464 -4 9 C-4 8.34 -4 7.68 -4 7 C-4.66 7 -5.32 7 -6 7 C-6.04125 8.27875 -6.0825 9.5575 -6.125 10.875 C-6.15980469 11.95394531 -6.15980469 11.95394531 -6.1953125 13.0546875 C-6.18331689 15.23863645 -6.18331689 15.23863645 -4 17 C-3.566875 16.525625 -3.13375 16.05125 -2.6875 15.5625 C-1 14 -1 14 2 13 C2.99 13.99 3.98 14.98 5 16 C3.66390614 21.58730159 3.66390614 21.58730159 0.6875 23.4375 C-3.30383958 24.27289666 -5.79919019 23.43932066 -9.5625 22.0625 C-13.33946094 18.86660997 -14.45360316 14.60463417 -16 10 C-15.01 9.67 -14.02 9.34 -13 9 C-12.71125 8.05125 -12.4225 7.1025 -12.125 6.125 C-11 3 -11 3 -8.75 1.125 C-5.48300095 -0.21149961 -3.4988931 -0.51025524 0 0 Z " fill="#FFFFFF" transform="translate(83,351)"/>
<path d="M0 0 C3.42561087 -0.41905531 6.59223158 -0.61912129 10 0 C12.43990832 2.13961191 13.43792489 4.08412645 15 7 C13.68 8.32 12.36 9.64 11 11 C10.236875 10.505 9.47375 10.01 8.6875 9.5 C6.07636249 7.75631692 6.07636249 7.75631692 3 8 C2.03483757 11.00272755 1.77606525 13.04215769 3 16 C3.99 16.33 4.98 16.66 6 17 C8.19038423 15.62831762 8.19038423 15.62831762 10 14 C11.32 14.66 12.64 15.32 14 16 C13.38722388 18.96175123 12.74627478 20.38058783 11 23 C8.8359375 23.94921875 8.8359375 23.94921875 6.375 24.6875 C5.55773437 24.93886719 4.74046875 25.19023437 3.8984375 25.44921875 C3.27195313 25.63097656 2.64546875 25.81273437 2 26 C1.67 25.01 1.34 24.02 1 23 C0.01 22.67 -0.98 22.34 -2 22 C-3.86367976 18.4658648 -4.29596705 15.3998962 -4.3125 11.4375 C-4.32925781 10.50808594 -4.34601563 9.57867187 -4.36328125 8.62109375 C-3.941144 5.57535082 -2.9846877 4.29620831 -1 2 C-0.67 1.34 -0.34 0.68 0 0 Z " fill="#FFFFFF" transform="translate(249,351)"/>
<path d="M0 0 C0.66 0.33 1.32 0.66 2 1 C2.11644156 4.08301416 2.18732432 7.16546123 2.25 10.25 C2.30027344 11.55904297 2.30027344 11.55904297 2.3515625 12.89453125 C2.45055556 19.37857697 2.45055556 19.37857697 0.15625 22.54296875 C-2.79059472 24.53422433 -4.41022144 25.0690342 -8 25 C-10.9102298 23.57115071 -13.33551239 21.88351711 -16 20 C-15.505 11.09 -15.505 11.09 -15 2 C-13.35 1.67 -11.7 1.34 -10 1 C-7.94077598 3.05922402 -8.58572421 7.21708124 -8.4375 10.0625 C-8.39431641 10.82111328 -8.35113281 11.57972656 -8.30664062 12.36132812 C-8.20026367 14.24065438 -8.09960066 16.12030244 -8 18 C-5.91414494 17.51972502 -5.91414494 17.51972502 -4 16 C-3.40512745 12.72258755 -3.40512745 12.72258755 -3.4375 9 C-3.37109375 5.1875 -3.37109375 5.1875 -3 2 C-2.01 1.34 -1.02 0.68 0 0 Z " fill="#FFFFFF" transform="translate(235,351)"/>
<path d="M0 0 C2.45862401 -0.05383848 4.9160755 -0.09359038 7.375 -0.125 C8.42300781 -0.15013672 8.42300781 -0.15013672 9.4921875 -0.17578125 C11.32897486 -0.19344267 13.16601963 -0.10303261 15 0 C15.66 0.66 16.32 1.32 17 2 C16.625 4.125 16.625 4.125 16 6 C14.02 6 12.04 6 10 6 C10.09539062 6.88042969 10.19078125 7.76085937 10.2890625 8.66796875 C10.39992187 9.82941406 10.51078125 10.99085938 10.625 12.1875 C10.74101562 13.33605469 10.85703125 14.48460937 10.9765625 15.66796875 C11.00023426 19.03330416 10.47419799 21.01221706 9 24 C6.53515625 22.4140625 6.53515625 22.4140625 4 20 C3.43359375 16.8359375 3.43359375 16.8359375 3.4375 13.375 C3.51877086 9.9830403 3.51877086 9.9830403 3 7 C1.08234488 5.52612616 1.08234488 5.52612616 -1 5 C-0.67 3.35 -0.34 1.7 0 0 Z " fill="#FFFFFF" transform="translate(172,352)"/>
<path d="M0 0 C1.87365234 0.09667969 1.87365234 0.09667969 3.78515625 0.1953125 C6.9375 0.875 6.9375 0.875 8.37109375 2.9296875 C8.55800781 3.57164062 8.74492187 4.21359375 8.9375 4.875 C7.125 6.4375 7.125 6.4375 4.9375 7.875 C3.9475 7.545 2.9575 7.215 1.9375 6.875 C1.9375 12.155 1.9375 17.435 1.9375 22.875 C0.9475 23.205 -0.0425 23.535 -1.0625 23.875 C-2.0525 23.215 -3.0425 22.555 -4.0625 21.875 C-4.28387393 19.24802936 -4.34412025 16.86606036 -4.25 14.25 C-4.23646484 13.54359375 -4.22292969 12.8371875 -4.20898438 12.109375 C-4.1736104 10.36425872 -4.11980221 8.61953392 -4.0625 6.875 C-5.7125 6.545 -7.3625 6.215 -9.0625 5.875 C-9.3925 4.555 -9.7225 3.235 -10.0625 1.875 C-6.29340451 -0.63773033 -4.46751709 -0.28643853 0 0 Z " fill="#FFFFFF" transform="translate(279.0625,351.125)"/>
<path d="M0 0 C2.475 0.99 2.475 0.99 5 2 C5 8.6 5 15.2 5 22 C3.35 22.33 1.7 22.66 0 23 C-2.16657517 20.83342483 -1.51286893 16.19348273 -1.6875 13.1875 C-1.74744141 12.36701172 -1.80738281 11.54652344 -1.86914062 10.70117188 C-1.91619141 9.90646484 -1.96324219 9.11175781 -2.01171875 8.29296875 C-2.05772217 7.5661792 -2.10372559 6.83938965 -2.15112305 6.09057617 C-1.97496349 3.65365489 -1.21189 2.10015533 0 0 Z " fill="#FFFFFF" transform="translate(294,351)"/>
</svg>
