<?xml version="1.0" encoding="UTF-8"?>
<svg version="1.1" xmlns="http://www.w3.org/2000/svg" width="468" height="128">
<path d="M0 0 C154.44 0 308.88 0 468 0 C468 42.24 468 84.48 468 128 C313.56 128 159.12 128 0 128 C0 85.76 0 43.52 0 0 Z " fill="#FDFDFD" transform="translate(0,0)"/>
<path d="M0 0 C2.5 1.625 2.5 1.625 4.5 3.625 C5.15456589 7.64590473 4.53484994 10.0139177 2.3125 13.3125 C0.65850997 15.59658147 -0.3608985 16.56151152 -2.96484375 17.75 C-6.86276693 20.63290158 -7.50519474 24.4155576 -8.875 28.9375 C-12.32266557 39.545481 -16.66926143 49.08858119 -22.5 58.625 C-21.91992188 58.66238281 -21.33984375 58.69976562 -20.7421875 58.73828125 C-15.68321136 59.16403667 -11.95720842 59.99638991 -7.5 62.625 C-7.5 63.285 -7.5 63.945 -7.5 64.625 C-10.93227719 64.11015842 -14.2259398 63.4370226 -17.5625 62.5 C-20.91349566 61.67180716 -23.22764996 61.20992971 -26.5 62.625 C-27.64607131 64.00702717 -28.7855017 65.39535469 -29.8828125 66.81640625 C-38.04257546 75.94193826 -51.24249936 82.87405912 -63.4375 83.86328125 C-71.57667298 84.06053162 -71.57667298 84.06053162 -75.8125 82.0625 C-77.5 79.625 -77.5 79.625 -77.875 76.375 C-75.5623869 70.06787336 -70.89694609 66.36567113 -64.984375 63.3359375 C-56.39621128 59.96752598 -46.65923016 57.59033455 -37.41796875 57.53515625 C-30.54276185 57.73573872 -30.54276185 57.73573872 -24.47265625 55.09375 C-22.7822005 52.69034342 -21.66440938 50.32513197 -20.5 47.625 C-19.90813138 46.42811011 -19.31007343 45.23426804 -18.70703125 44.04296875 C-15.26633693 37.11997665 -12.35942802 30.15125627 -10.5 22.625 C-10.84289062 23.11226562 -11.18578125 23.59953125 -11.5390625 24.1015625 C-20.88654764 36.76441183 -34.3574116 52.35932395 -50.81640625 54.99609375 C-56.81847296 55.17354616 -56.81847296 55.17354616 -60.0625 52.5625 C-62.45906809 47.6651652 -62.09834278 44.67419165 -60.6171875 39.6015625 C-58.02197521 32.2284097 -54.71397533 26.44000995 -49.5 20.625 C-49.809375 20.00625 -50.11875 19.3875 -50.4375 18.75 C-52.43145036 14.76209928 -52.58376556 12.14834019 -52.5 7.625 C-51.51 7.625 -50.52 7.625 -49.5 7.625 C-49.396875 8.73875 -49.29375 9.8525 -49.1875 11 C-48.960625 12.19625 -48.73375 13.3925 -48.5 14.625 C-47.51 15.285 -46.52 15.945 -45.5 16.625 C-44.86835937 16.05652344 -44.23671875 15.48804687 -43.5859375 14.90234375 C-32.25283523 5.12060274 -15.42253619 -6.0588535 0 0 Z " fill="#171717" transform="translate(130.5,31.375)"/>
<path d="M0 0 C0.99 0.33 1.98 0.66 3 1 C1.24238397 4.81761762 -1.07182771 8.24869157 -3.375 11.75 C-8.63764186 19.8605002 -12.52189115 27.97171744 -16 37 C-15.41992188 36.32453125 -14.83984375 35.6490625 -14.2421875 34.953125 C-5.6093409 25.09515495 -5.6093409 25.09515495 -1 23 C1.8125 23.625 1.8125 23.625 4 25 C5.4783226 27.95664519 5.06032783 30.74229737 5 34 C6.32 34 7.64 34 9 34 C8.67 34.99 8.34 35.98 8 37 C7.36578125 37.15210938 6.7315625 37.30421875 6.078125 37.4609375 C3.89175455 37.79774079 3.89175455 37.79774079 2.796875 39.6015625 C2.45140625 40.26929688 2.1059375 40.93703125 1.75 41.625 C-1.49230705 47.18895901 -5.90557756 51.1750842 -11.4375 54.4375 C-15.75758877 55.38581217 -20.95694724 56.02152638 -25 54 C-25.125 48.25 -25.125 48.25 -24 46 C-24.4125 46.433125 -24.825 46.86625 -25.25 47.3125 C-28.45791912 50.40585058 -30.72222986 52.43286625 -35.3125 52.5 C-39 52 -39 52 -41 50 C-41.56520003 47.34462628 -41.73788198 44.70855287 -42 42 C-42.39832031 42.55429688 -42.79664063 43.10859375 -43.20703125 43.6796875 C-43.73683594 44.40414062 -44.26664063 45.12859375 -44.8125 45.875 C-45.59560547 46.95394531 -45.59560547 46.95394531 -46.39453125 48.0546875 C-48.38401366 50.46530123 -50.04031945 51.86827914 -53.19140625 52.30078125 C-54.36509766 52.30658203 -54.36509766 52.30658203 -55.5625 52.3125 C-56.34753906 52.32925781 -57.13257812 52.34601563 -57.94140625 52.36328125 C-58.62074219 52.24339844 -59.30007812 52.12351563 -60 52 C-62.51243812 48.23134282 -62.39906805 46.47791478 -62 42 C-60.9675507 39.4023134 -59.9422237 37.12070489 -58.625 34.6875 C-58.30789062 34.06810547 -57.99078125 33.44871094 -57.6640625 32.81054688 C-56.30797394 30.20855195 -55.08569981 28.08569981 -53 26 C-52.01 26 -51.02 26 -50 26 C-50.62890753 29.45113008 -51.99151626 31.70910123 -54 34.5625 C-57.50435587 39.55789191 -58.11566368 42.86982487 -58 49 C-55.29987653 49.67350769 -55.29987653 49.67350769 -52 49 C-47.77637616 45.33774389 -44.77188561 40.81432764 -42 36 C-41.01 35.505 -41.01 35.505 -40 35 C-39.35064913 33.40023557 -38.78059316 31.76797708 -38.25 30.125 C-34.81543058 20.31739622 -29.74987645 9.71784734 -21.5625 3 C-18.27197592 1.71589304 -15.49867072 1.79419584 -12 2 C-11.25 4.0625 -11.25 4.0625 -11 7 C-15.04444381 15.55555421 -20.93099034 20.96247975 -28.28125 26.75390625 C-34.03698783 31.50900575 -36.99410268 34.64257957 -38 42 C-38.25269417 45.29285101 -38.25269417 45.29285101 -38 48 C-36.96367261 49.23007345 -36.96367261 49.23007345 -34.75 49.375 C-30.7521754 48.8298421 -29.60126451 47.04538285 -27 44 C-25.41450122 41.87684446 -23.85244594 39.74452045 -22.33203125 37.57421875 C-21.89246094 37.05472656 -21.45289063 36.53523438 -21 36 C-20.34 36 -19.68 36 -19 36 C-18.67 34.845 -18.34 33.69 -18 32.5 C-14.28149606 21.39710852 -8.34685551 8.34685551 0 0 Z " fill="#121212" transform="translate(181,34)"/>
<path d="M0 0 C2.8011466 2.27593161 2.96162721 3.66743585 3.375 7.25 C2.8137742 12.86225799 1.12096756 17.31854866 -2 22 C6.91131448 19.181892 10.81355823 8.82143853 14.93359375 1.0546875 C15.46146484 0.03761719 15.46146484 0.03761719 16 -1 C17.32 -0.67 18.64 -0.34 20 0 C19.34 2.64 18.68 5.28 18 8 C21.3 7.67 24.6 7.34 28 7 C26.34436289 10.31127423 24.68673222 12.8706039 22.5 15.8125 C19.60694449 19.87240118 17.95345596 23.12678067 17 28 C23.66138744 26.3851182 27.34021576 20.15323361 31.3125 15 C31.869375 14.34 32.42625 13.68 33 13 C33.66 13 34.32 13 35 13 C33.61047587 17.01018103 31.73301706 19.90032723 29.0625 23.1875 C28.37285156 24.04730469 27.68320312 24.90710938 26.97265625 25.79296875 C25 28 25 28 22 30 C18.375 30.1875 18.375 30.1875 15 30 C14 29 14 29 13.75 26.3046875 C14.03772228 22.50135855 15.08388927 20.39835583 17 17.125 C17.556875 16.15820312 18.11375 15.19140625 18.6875 14.1953125 C19.120625 13.47085938 19.55375 12.74640625 20 12 C18.02 11.01 16.04 10.02 14 9 C13.73316406 9.73089844 13.46632813 10.46179688 13.19140625 11.21484375 C10.59732044 17.2790509 6.76423335 22.60306602 0.625 25.3125 C-0.91426805 25.88153095 -2.45599478 26.44395122 -4 27 C-5.56591674 27.74283984 -7.12849218 28.49276763 -8.6875 29.25 C-12.26747481 30.82443918 -15.04707855 31.75293742 -19 31 C-20.875 29.5 -20.875 29.5 -22 27 C-22.83989356 19.16099348 -21.16537557 10.78940725 -17.25 3.9375 C-11.68334976 -0.85600437 -6.8993585 -1.72483963 0 0 Z " fill="#161616" transform="translate(412,57)"/>
<path d="M0 0 C0.66 0 1.32 0 2 0 C0.31326082 4.49797113 -1.81673892 8.72886302 -4 13 C-1.69 13 0.62 13 3 13 C2.67 13.99 2.34 14.98 2 16 C-0.64 16 -3.28 16 -6 16 C-6.27585938 16.85980469 -6.55171875 17.71960938 -6.8359375 18.60546875 C-7.96918325 21.91013503 -9.27919637 25.08965445 -10.625 28.3125 C-12.81037278 33.90090195 -13.50437994 38.04831672 -13 44 C-10.525 43.505 -10.525 43.505 -8 43 C-8.66 44.32 -9.32 45.64 -10 47 C-12.375 47.125 -12.375 47.125 -15 47 C-17 45 -17 45 -17.1953125 42.6171875 C-17.17210937 41.71226563 -17.14890625 40.80734375 -17.125 39.875 C-17.10695312 38.96492188 -17.08890625 38.05484375 -17.0703125 37.1171875 C-17.04710937 36.41851562 -17.02390625 35.71984375 -17 35 C-17.45890625 35.54269531 -17.9178125 36.08539063 -18.390625 36.64453125 C-19.31101562 37.71767578 -19.31101562 37.71767578 -20.25 38.8125 C-20.85328125 39.52019531 -21.4565625 40.22789063 -22.078125 40.95703125 C-23.94710237 42.94376939 -25.69500632 44.54249895 -28 46 C-32.41025641 45.58974359 -32.41025641 45.58974359 -34 44 C-35.04442118 36.98745777 -31.84323414 32.68478383 -28 27 C-29.98 26.34 -31.96 25.68 -34 25 C-34.43570313 25.64066406 -34.87140625 26.28132813 -35.3203125 26.94140625 C-46.10769231 42.60879121 -46.10769231 42.60879121 -53 45 C-57.40834824 45.61871554 -59.23305758 45.52217356 -62.9375 43 C-65.03203328 39.95340614 -65.7973174 38.02853623 -65.55078125 34.31640625 C-63.77797648 26.86056773 -59.49730826 20.06081766 -53 16 C-49.8125 15.0625 -49.8125 15.0625 -47 15 C-46.01 15.66 -45.02 16.32 -44 17 C-43.44741055 21.10495019 -43.73329069 23.455913 -45.5625 27.1875 C-48.38490968 30.44412655 -50.93646206 32.53307966 -55 34 C-58.9375 34.25 -58.9375 34.25 -62 34 C-61.34 36.31 -60.68 38.62 -60 41 C-56.19178002 41.4760275 -53.45874766 41.75363871 -50.00390625 39.96875 C-42.35272788 33.93401776 -37.9248466 24.50132437 -33.42578125 16.0390625 C-32.95527344 15.36617187 -32.48476562 14.69328125 -32 14 C-31.01 14 -30.02 14 -29 14 C-29.48578543 17.12290635 -29.9986012 19.99580359 -31 23 C-27.7 22.67 -24.4 22.34 -21 22 C-22.10079971 25.52255907 -23.71053704 27.98138361 -26 30.8125 C-29.09719218 34.77841682 -30.12063731 38.07556894 -31 43 C-25.12945693 40.58221853 -22.61591372 37.24267925 -19.08203125 32.11914062 C-18.09324336 30.71807267 -17.05062946 29.35531201 -16 28 C-15.34 28 -14.68 28 -14 28 C-13.79503906 27.37351562 -13.59007812 26.74703125 -13.37890625 26.1015625 C-13.10949219 25.28429687 -12.84007812 24.46703125 -12.5625 23.625 C-12.29566406 22.81289062 -12.02882812 22.00078125 -11.75390625 21.1640625 C-11 19 -11 19 -10 17 C-12.31 17.33 -14.62 17.66 -17 18 C-17 17.01 -17 16.02 -17 15 C-16.41992188 14.98324219 -15.83984375 14.96648438 -15.2421875 14.94921875 C-12.48788607 14.64470028 -10.50297464 14.22086365 -8 13 C-5.99006086 10.29058518 -4.60426113 7.59042295 -3.19140625 4.53125 C-2 2 -2 2 0 0 Z " fill="#0F0F0F" transform="translate(254,42)"/>
<path d="M0 0 C1.57040706 0.2069191 3.13971532 0.42801023 4.69970703 0.70263672 C9.73895302 1.35406971 14.86532295 1.09998624 19.9375 1.0625 C21.67870117 1.05573242 21.67870117 1.05573242 23.45507812 1.04882812 C26.30343934 1.03710647 29.15169222 1.0206976 32 1 C24.05721514 14.55219173 12.41311513 24.08092488 -2 30 C-7.40841822 31.24908707 -7.40841822 31.24908707 -10.375 30 C-12 28 -12 28 -12.4375 24.8125 C-11.38544478 15.64459024 -6.53028849 6.53028849 0 0 Z " fill="#F8F8F8" transform="translate(84,53)"/>
<path d="M0 0 C1.83884766 -0.03867187 1.83884766 -0.03867187 3.71484375 -0.078125 C7.36504004 0.27965387 8.49572171 0.72291238 11.0625 3.25 C12.63218975 10.77513467 10.35339849 19.02820047 8.6875 26.375 C8.35492188 27.90447266 8.35492188 27.90447266 8.015625 29.46484375 C7.37598466 32.39590153 6.72135765 35.32321018 6.0625 38.25 C5.67400598 39.99729069 5.28593805 41.74467621 4.8984375 43.4921875 C4.62257813 44.73226562 4.34671875 45.97234375 4.0625 47.25 C4.75214844 46.35539062 5.44179688 45.46078125 6.15234375 44.5390625 C11.19698639 38.03322548 16.30402639 31.67194028 21.88671875 25.61328125 C23.36808938 24.00425211 24.82840904 22.37564366 26.26953125 20.73046875 C43.70419605 0.85311886 43.70419605 0.85311886 52.4921875 0.01953125 C54.70051124 0.00233247 56.86226546 0.07038902 59.0625 0.25 C59.5575 2.23 59.5575 2.23 60.0625 4.25 C59.0725 4.25 58.0825 4.25 57.0625 4.25 C57.0625 3.59 57.0625 2.93 57.0625 2.25 C34.34575756 7.51765042 17.48554468 35.09842657 5.0625 53.25 C4.07070151 54.86732128 3.0888072 56.49084332 2.125 58.125 C1.444375 59.15625 0.76375 60.1875 0.0625 61.25 C-0.9275 61.25 -1.9175 61.25 -2.9375 61.25 C-2.37034859 55.72027371 -1.30151247 50.63546491 0.3125 45.3125 C2.55459968 37.5943273 4.29584667 29.81669809 5.875 21.9375 C6.09381836 20.85799072 6.31263672 19.77848145 6.53808594 18.66625977 C7.92430792 12.01153095 7.92430792 12.01153095 8.0625 5.25 C5.53833796 2.72583796 4.56465204 2.92474648 1.0625 2.875 C-5.01223338 3.0092919 -9.55746322 4.51971187 -14.9375 7.25 C-15.94296875 7.75917969 -16.9484375 8.26835938 -17.984375 8.79296875 C-25.00299364 12.60781495 -31.27521866 16.92543731 -34.9375 24.25 C-35.12454404 26.94013339 -35.02331391 29.54686177 -34.9375 32.25 C-33.80048403 33.61532549 -33.80048403 33.61532549 -30.77734375 33.34765625 C-29.48957031 33.33605469 -28.20179688 33.32445312 -26.875 33.3125 C-25.58464844 33.30347656 -24.29429687 33.29445312 -22.96484375 33.28515625 C-21.46630859 33.26775391 -21.46630859 33.26775391 -19.9375 33.25 C-20.2675 34.24 -20.5975 35.23 -20.9375 36.25 C-22.66472728 36.47384382 -24.39446007 36.67839969 -26.125 36.875 C-27.08792969 36.99101563 -28.05085938 37.10703125 -29.04296875 37.2265625 C-32.89831199 37.25777985 -35.55692443 36.15451503 -38.75 34.0625 C-40.7873735 30.95282465 -40.466709 28.89566202 -39.9375 25.25 C-34.370005 12.84761277 -22.00495819 6.04955724 -9.9375 1.25 C-6.47405473 0.09551824 -3.64912274 0.04594908 0 0 Z " fill="#141414" transform="translate(308.9375,27.75)"/>
<path d="M0 0 C1.1796875 1.6953125 1.1796875 1.6953125 1.1796875 5.1328125 C-0.0038622 9.34920831 -1.04745497 10.55164345 -4.8203125 12.6953125 C-6.48697917 12.6953125 -8.15364583 12.6953125 -9.8203125 12.6953125 C-10.4390625 13.6234375 -10.4390625 13.6234375 -11.0703125 14.5703125 C-13.9147408 18.02426115 -17.58462115 18.24470704 -21.8203125 18.6953125 C-24.55841008 18.8256981 -27.26927424 18.91896532 -30.0078125 18.9453125 C-30.68481201 18.9546582 -31.36181152 18.96400391 -32.05932617 18.97363281 C-36.3470248 18.94629919 -39.83454137 18.25738765 -43.8203125 16.6953125 C-38.14771892 8.18642213 -27.33127126 1.97084711 -17.5078125 -0.5546875 C-4.32461614 -3.09961758 -4.32461614 -3.09961758 0 0 Z " fill="#F8F8F8" transform="translate(130.8203125,34.3046875)"/>
<path d="M0 0 C0.66 0 1.32 0 2 0 C1.32116957 3.11547441 0.25893098 5.85137721 -1.0625 8.75 C-1.42472656 9.54921875 -1.78695312 10.3484375 -2.16015625 11.171875 C-2.43730469 11.77515625 -2.71445312 12.3784375 -3 13 C-0.69 13 1.62 13 4 13 C4 13.66 4 14.32 4 15 C3.14728516 14.95552734 3.14728516 14.95552734 2.27734375 14.91015625 C-0.6940167 15.10361711 -2.39616162 15.49794426 -5 17 C-10.40926529 25.40777146 -13.19652536 33.97720666 -13 44 C-10.525 43.505 -10.525 43.505 -8 43 C-8 43.99 -8 44.98 -8 46 C-11.465 46.495 -11.465 46.495 -15 47 C-17.29633824 43.55549263 -17.54016485 41.06187717 -18 37 C-18.54269531 37.49371094 -19.08539063 37.98742187 -19.64453125 38.49609375 C-20.35996094 39.13675781 -21.07539063 39.77742188 -21.8125 40.4375 C-22.52019531 41.07558594 -23.22789062 41.71367188 -23.95703125 42.37109375 C-27.73297679 45.38174248 -31.31504427 45.48465059 -36 45 C-39.15954305 42.45862841 -40.71540886 40.85377341 -42 37 C-42.40089844 37.5053125 -42.80179687 38.010625 -43.21484375 38.53125 C-47.73727506 43.69974293 -47.73727506 43.69974293 -51.3984375 44.5703125 C-53.7645607 44.623914 -55.71853706 44.64122584 -58 44 C-60.52248475 40.21627288 -60.83548483 37.37022832 -60 33 C-57.6920848 27.72892555 -54.84457345 22.31883842 -51 18 C-50.01 18 -49.02 18 -48 18 C-48.62464881 21.76548858 -50.38021523 24.16394072 -52.5625 27.25 C-55.84326012 32.23809447 -56.77699897 35.11700781 -56 41 C-51.42143447 40.90842869 -49.48083507 40.45992919 -46.125 37.25 C-44.25481884 34.83976653 -42.55283043 32.34296746 -40.8359375 29.8203125 C-40.45034668 29.2540918 -40.06475586 28.68787109 -39.66748047 28.10449219 C-38.54487002 26.44146993 -37.44382565 24.76395145 -36.34375 23.0859375 C-32.94801619 18.61488799 -29.9008981 15.48327918 -24.3125 14.0625 C-21 14 -21 14 -18 16 C-17.5625 19.375 -17.5625 19.375 -18 23 C-20 25.4375 -20 25.4375 -22 27 C-22.495 26.01 -22.495 26.01 -23 25 C-22.3507041 23.65812182 -21.68268138 22.32520503 -21 21 C-21 20.01 -21 19.02 -21 18 C-24.86732844 18 -26.98930958 18.11665657 -29.953125 20.70703125 C-35.42942938 26.90814062 -37.39952668 30.74311526 -37 39 C-36.67 39.66 -36.34 40.32 -36 41 C-30.51423042 41.46249155 -30.51423042 41.46249155 -25.625 39.5 C-25.08875 39.005 -24.5525 38.51 -24 38 C-23.34 38 -22.68 38 -22 38 C-21.7525 37.46375 -21.505 36.9275 -21.25 36.375 C-19.6859619 33.4033276 -18.01623538 30.68831383 -16 28 C-15.01 28 -14.02 28 -13 28 C-12.814375 26.63875 -12.814375 26.63875 -12.625 25.25 C-12.07890323 22.41029677 -11.42736197 20.47409409 -10 18 C-12.31 18 -14.62 18 -17 18 C-16.505 16.515 -16.505 16.515 -16 15 C-14.40285156 14.95359375 -14.40285156 14.95359375 -12.7734375 14.90625 C-8.80102853 14.35219146 -8.80102853 14.35219146 -6.6015625 11.09375 C-5.91844415 9.90950236 -5.25994241 8.71076063 -4.625 7.5 C-3.95089457 6.30187298 -3.2764335 5.10394596 -2.6015625 3.90625 C-2.07304687 2.9471875 -1.54453125 1.988125 -1 1 C-0.67 0.67 -0.34 0.34 0 0 Z " fill="#131313" transform="translate(390,42)"/>
<path d="M0 0 C-3.90073822 8.93269051 -14.35686936 14.5889799 -22.953125 18.26171875 C-29.21304084 20.54899569 -35.31733111 22.09053041 -42 21 C-45 19 -45 19 -45.75 16.3125 C-44.71420432 11.73773576 -42.31804013 10.33905548 -38.65234375 7.61328125 C-27.10042559 0.5868568 -13.2339226 -0.61184231 0 0 Z " fill="#F6F6F6" transform="translate(101,92)"/>
<path d="M0 0 C2.3125 1.25 2.3125 1.25 3.3125 3.25 C3.35272391 5.5829866 3.35570247 7.91706666 3.3125 10.25 C4.6325 10.25 5.9525 10.25 7.3125 10.25 C6.9825 11.24 6.6525 12.23 6.3125 13.25 C5.67828125 13.40210937 5.0440625 13.55421875 4.390625 13.7109375 C2.20425455 14.04774079 2.20425455 14.04774079 1.109375 15.8515625 C0.76390625 16.51929687 0.4184375 17.18703125 0.0625 17.875 C-2.87187872 22.91704394 -7.05906595 27.8538891 -12.63671875 30 C-15.12943555 30.30387405 -17.00634764 29.92028809 -19.4375 29.3125 C-20.23671875 29.11785156 -21.0359375 28.92320313 -21.859375 28.72265625 C-22.46265625 28.56667969 -23.0659375 28.41070312 -23.6875 28.25 C-22.98875449 24.45910483 -21.57261619 22.88215504 -18.51171875 20.48828125 C-10.79475552 15.25 -10.79475552 15.25 -6.6875 15.25 C-6.6875 14.59 -6.6875 13.93 -6.6875 13.25 C-11.1425 14.735 -11.1425 14.735 -15.6875 16.25 C-15.3575 14.93 -15.0275 13.61 -14.6875 12.25 C-14.6875 11.26 -14.6875 10.27 -14.6875 9.25 C-13.078125 7.27734375 -13.078125 7.27734375 -10.9375 5.1875 C-10.24140625 4.49527344 -9.5453125 3.80304687 -8.828125 3.08984375 C-3.95046172 -1.10245443 -3.95046172 -1.10245443 0 0 Z " fill="#1B1B1B" transform="translate(182.6875,57.75)"/>
<path d="M0 0 C1.0326802 2.78823655 1.04509293 3.8677274 0.0625 6.75 C-0.4634375 7.86375 -0.4634375 7.86375 -1 9 C1.52259061 7.02579865 1.9929808 6.03254358 2.6875 2.8125 C2.790625 1.884375 2.89375 0.95625 3 0 C5.97 0 8.94 0 12 0 C10.68 3.63 9.36 7.26 8 11 C7.01 11 6.02 11 5 11 C4.7525 11.721875 4.505 12.44375 4.25 13.1875 C1.80733473 18.68349686 -1.66389336 22.22932925 -7 25 C-9.91539388 25.48952509 -11.99650792 25.35040741 -15 25 C-17.50111106 21.24833341 -17.85707292 18.3379919 -17 14 C-13.81987898 7.40947333 -8.22089016 -1.20895443 0 0 Z " fill="#F6F6F6" transform="translate(369,59)"/>
<path d="M0 0 C1 1 1 1 1.3125 4.1875 C0.93842569 8.75120662 -0.0148618 10.55560977 -3 14 C-7.50922721 17.60514948 -11.16312106 18.47647991 -17 18 C-16.34 20.31 -15.68 22.62 -15 25 C-11.00624982 25.49921877 -8.37558578 25.82233373 -4.86328125 23.72265625 C-0.17682993 19.78603714 3.1018886 15.36429273 6 10 C6.66 11.32 7.32 12.64 8 14 C-2.79053621 28.19163493 -2.79053621 28.19163493 -11.625 29.5625 C-15 29 -15 29 -17.9375 27 C-20.03203328 23.95340614 -20.7973174 22.02853623 -20.55078125 18.31640625 C-18.74986035 10.74232049 -14.43543709 4.2902914 -8 0 C-4.69676014 -1.10107995 -3.29495231 -0.86709271 0 0 Z " fill="#161616" transform="translate(209,58)"/>
<path d="M0 0 C0.75 2.0625 0.75 2.0625 1 5 C-3.46879161 14.45321302 -11.57493059 23.28746529 -21 28 C-21.99 27.67 -22.98 27.34 -24 27 C-24.66 27.33 -25.32 27.66 -26 28 C-23.37194706 18.27620412 -17.43139047 7.45652552 -9.5625 1 C-6.27197592 -0.28410696 -3.49867072 -0.20580416 0 0 Z " fill="#232323" transform="translate(169,36)"/>
<path d="M0 0 C1.83884766 -0.03867187 1.83884766 -0.03867187 3.71484375 -0.078125 C7.27074935 0.27041184 8.69873554 0.59513154 11.0625 3.25 C12.88235553 11.21724153 10.2608936 21.52536929 8.0625 29.25 C7.0725 29.745 7.0725 29.745 6.0625 30.25 C5.4025 31.24 4.7425 32.23 4.0625 33.25 C4.84077358 27.46206249 5.8946953 21.75953968 7.04492188 16.03515625 C8.09155234 10.67642927 8.09155234 10.67642927 8.0625 5.25 C5.53833796 2.72583796 4.56465204 2.92474648 1.0625 2.875 C-5.01223338 3.0092919 -9.55746322 4.51971187 -14.9375 7.25 C-15.94296875 7.75917969 -16.9484375 8.26835938 -17.984375 8.79296875 C-25.00299364 12.60781495 -31.27521866 16.92543731 -34.9375 24.25 C-35.12454404 26.94013339 -35.02331391 29.54686177 -34.9375 32.25 C-33.80048403 33.61532549 -33.80048403 33.61532549 -30.77734375 33.34765625 C-29.48957031 33.33605469 -28.20179688 33.32445312 -26.875 33.3125 C-25.58464844 33.30347656 -24.29429687 33.29445312 -22.96484375 33.28515625 C-21.46630859 33.26775391 -21.46630859 33.26775391 -19.9375 33.25 C-20.2675 34.24 -20.5975 35.23 -20.9375 36.25 C-22.66472728 36.47384382 -24.39446007 36.67839969 -26.125 36.875 C-27.08792969 36.99101563 -28.05085938 37.10703125 -29.04296875 37.2265625 C-32.89831199 37.25777985 -35.55692443 36.15451503 -38.75 34.0625 C-40.7873735 30.95282465 -40.466709 28.89566202 -39.9375 25.25 C-34.370005 12.84761277 -22.00495819 6.04955724 -9.9375 1.25 C-6.47405473 0.09551824 -3.64912274 0.04594908 0 0 Z " fill="#252525" transform="translate(308.9375,27.75)"/>
<path d="M0 0 C-1.61977401 1.93758595 -2.56153233 2.90203783 -5.06201172 3.46069336 C-5.84334473 3.50331299 -6.62467773 3.54593262 -7.4296875 3.58984375 C-8.30141602 3.64946289 -9.17314453 3.70908203 -10.07128906 3.77050781 C-10.99651367 3.82561523 -11.92173828 3.88072266 -12.875 3.9375 C-25.2735302 4.9133298 -37.75134598 6.75134598 -47 16 C-47.04080783 17.99958364 -47.04254356 20.00045254 -47 22 C-41.54264534 24.72867733 -34.62956209 23.13592572 -29.0625 21.4375 C-19.37459847 17.90558211 -11.45058531 12.02361767 -4 5 C-3.34 5.33 -2.68 5.66 -2 6 C-5.45460675 14.92945136 -17.95434031 20.27702913 -26.08984375 23.90625 C-32.5684338 26.34115633 -39.13681653 26.6626522 -46 26 C-49.3125 24.4375 -49.3125 24.4375 -51 22 C-51.375 18.75 -51.375 18.75 -50 15 C-38.30148229 0.64516748 -17.22528865 -0.65969191 0 0 Z " fill="#1F1F1F" transform="translate(104,89)"/>
<path d="M0 0 C1.32 0.33 2.64 0.66 4 1 C3.34 3.64 2.68 6.28 2 9 C5.3 8.67 8.6 8.34 12 8 C10.34436289 11.31127423 8.68673222 13.8706039 6.5 16.8125 C3.60694449 20.87240118 1.95345596 24.12678067 1 29 C7.66138744 27.3851182 11.34021576 21.15323361 15.3125 16 C16.1478125 15.01 16.1478125 15.01 17 14 C17.66 14 18.32 14 19 14 C17.61047587 18.01018103 15.73301706 20.90032723 13.0625 24.1875 C12.37285156 25.04730469 11.68320312 25.90710938 10.97265625 26.79296875 C9 29 9 29 6 31 C2.375 31.1875 2.375 31.1875 -1 31 C-2 30 -2 30 -2.25 27.3046875 C-1.96227772 23.50135855 -0.91611073 21.39835583 1 18.125 C1.556875 17.15820312 2.11375 16.19140625 2.6875 15.1953125 C3.120625 14.47085938 3.55375 13.74640625 4 13 C2.02 12.01 0.04 11.02 -2 10 C-2.26167969 10.72832031 -2.52335937 11.45664063 -2.79296875 12.20703125 C-4.02454484 15.05679468 -5.42874403 17.22733976 -7.3125 19.6875 C-7.88613281 20.45449219 -8.45976562 21.22148438 -9.05078125 22.01171875 C-11.23019429 24.2348074 -13.06159628 25.05424872 -16 26 C-16 25.01 -16 24.02 -16 23 C-15.26007813 22.40960938 -14.52015625 21.81921875 -13.7578125 21.2109375 C-10.57127315 18.65628981 -8.95630813 16.12649485 -6.875 12.625 C-6.21242188 11.52414063 -5.54984375 10.42328125 -4.8671875 9.2890625 C-3.1347355 6.23733744 -1.53463477 3.15505657 0 0 Z " fill="#181818" transform="translate(428,56)"/>
<path d="M0 0 C2 2 2 2 2.4375 5.5 C2.33971385 10.82934514 -0.18408329 17.18408329 -4 21 C-8.09019588 21.55775398 -9.57530807 21.31625995 -12.9375 18.8125 C-15 16 -15 16 -15.125 13.6875 C-13.51541799 9.84238741 -11.32139513 6.45211157 -9 3 C-9.66 2.67 -10.32 2.34 -11 2 C-6.93150591 -0.71232939 -4.83523216 -0.30699887 0 0 Z " fill="#F6F6F6" transform="translate(410,59)"/>
<path d="M0 0 C-2.24922691 6.56024514 -5.88629528 10.70800515 -12 14 C-18.75062972 15.62468514 -18.75062972 15.62468514 -22 14 C-21.75902146 10.74678972 -20.82200888 9.82635012 -18.4375 7.5 C-13.06327941 3.30422296 -6.9187774 0 0 0 Z " fill="#F3F3F3" transform="translate(181,72)"/>
<path d="M0 0 C2 2 2 2 2.4375 4.6875 C1.85389238 9.10624337 0.09287509 11.83189281 -3 15 C-5.8125 16.4375 -5.8125 16.4375 -8 17 C-8.33 16.01 -8.66 15.02 -9 14 C-8.030625 13.484375 -7.06125 12.96875 -6.0625 12.4375 C-2.68310791 10.23856754 -2.68310791 10.23856754 -2 6.375 C-2 5.26125 -2 4.1475 -2 3 C-4.52338447 0.47661553 -5.4409983 0.70254951 -8.9375 0.6875 C-15.84098584 0.80543077 -22.36814667 2.30800898 -28.6328125 5.2265625 C-29.41398437 5.48179688 -30.19515625 5.73703125 -31 6 C-31.99 5.34 -32.98 4.68 -34 4 C-10.77480087 -7.00362056 -10.77480087 -7.00362056 0 0 Z " fill="#222222" transform="translate(133,33)"/>
<path d="M0 0 C-0.5046847 8.07495518 -8.26489535 14.93206636 -14 20 C-15.95379772 21.45568665 -17.91663473 22.72965533 -20 24 C-17.66674853 15.13364442 -10.31506075 0 0 0 Z " fill="#EFEFEF" transform="translate(167,38)"/>
<path d="M0 0 C0.99 0 1.98 0 3 0 C2.37535119 3.76548858 0.61978477 6.16394072 -1.5625 9.25 C-4.84326012 14.23809447 -5.77699897 17.11700781 -5 23 C0.3086849 22.41825155 0.3086849 22.41825155 5 20 C4.42655063 22.86724686 4.1385485 23.8614515 2 26 C-0.09375 26.30078125 -0.09375 26.30078125 -2.5 26.3125 C-3.2940625 26.32925781 -4.088125 26.34601563 -4.90625 26.36328125 C-5.5971875 26.24339844 -6.288125 26.12351562 -7 26 C-9.52248475 22.21627288 -9.83548483 19.37022832 -9 15 C-6.6920848 9.72892555 -3.84457345 4.31883842 0 0 Z " fill="#202020" transform="translate(339,60)"/>
<path d="M0 0 C0.49405138 4.1500316 0.18902785 5.71915862 -2.1875 9.25 C-6.17033786 13.14433036 -8.46650033 14 -14 14 C-12.40858815 6.92705846 -7.93336654 -0.79197119 0 0 Z " fill="#ECECEC" transform="translate(207,60)"/>
<path d="M0 0 C0.99 0.33 1.98 0.66 3 1 C1.24243144 4.81751451 -1.07122419 8.24915962 -3.375 11.75 C-6.60305007 16.70802795 -9.51005402 21.62171668 -12 27 C-12.66288954 28.33521522 -13.3286876 29.66899967 -14 31 C-14.99 31 -15.98 31 -17 31 C-15.33117954 24.76973696 -12.75897582 19.41260789 -9.625 13.8125 C-9.24996338 13.13574219 -8.87492676 12.45898438 -8.48852539 11.76171875 C-6.02374942 7.44293587 -3.28597604 3.73300811 0 0 Z " fill="#232323" transform="translate(181,34)"/>
<path d="M0 0 C1.22589844 0.01353516 1.22589844 0.01353516 2.4765625 0.02734375 C3.41628906 0.04474609 3.41628906 0.04474609 4.375 0.0625 C4.87 2.0425 4.87 2.0425 5.375 4.0625 C4.385 4.0625 3.395 4.0625 2.375 4.0625 C2.375 3.4025 2.375 2.7425 2.375 2.0625 C-8.39268632 4.5593548 -15.66010613 11.61477903 -22.8359375 19.69140625 C-24.625 21.0625 -24.625 21.0625 -26.8515625 20.77734375 C-27.43679688 20.54144531 -28.02203125 20.30554688 -28.625 20.0625 C-9.43021802 -0.1347174 -9.43021802 -0.1347174 0 0 Z " fill="#262626" transform="translate(363.625,27.9375)"/>
<path d="M0 0 C0.33 0.66 0.66 1.32 1 2 C1.66 2 2.32 2 3 2 C2.02504374 4.69987888 1.21101398 6.75772469 -0.6875 8.9375 C-2.3032051 11.01725018 -2.3032051 11.01725018 -1.75 14 C-1.37875 15.485 -1.37875 15.485 -1 17 C-0.814375 17.78375 -0.62875 18.5675 -0.4375 19.375 C-0.293125 19.91125 -0.14875 20.4475 0 21 C-1.32 20.34 -2.64 19.68 -4 19 C-4.99 20.32 -5.98 21.64 -7 23 C-7.208106 16.54871386 -7.19700298 10.1494003 -5 4 C-2.375 1.375 -2.375 1.375 0 0 Z " fill="#090909" transform="translate(398,60)"/>
<path d="M0 0 C0.99 0 1.98 0 3 0 C2.37109247 3.45113008 1.00848374 5.70910123 -1 8.5625 C-4.50435587 13.55789191 -5.11566368 16.86982487 -5 23 C-2.69 23.66 -0.38 24.32 2 25 C2 25.33 2 25.66 2 26 C0.54257537 26.08096803 -0.91612807 26.13917774 -2.375 26.1875 C-3.18710938 26.22230469 -3.99921875 26.25710937 -4.8359375 26.29296875 C-5.55007812 26.19628906 -6.26421875 26.09960938 -7 26 C-9.51243812 22.23134282 -9.39906805 20.47791478 -9 16 C-7.9675507 13.4023134 -6.9422237 11.12070489 -5.625 8.6875 C-5.30789062 8.06810547 -4.99078125 7.44871094 -4.6640625 6.81054688 C-3.30797394 4.20855195 -2.08569981 2.08569981 0 0 Z " fill="#101010" transform="translate(128,60)"/>
<path d="M0 0 C0.5775 0.23847656 1.155 0.47695313 1.75 0.72265625 C1.75 3.03265625 1.75 5.34265625 1.75 7.72265625 C-0.1651579 8.53870624 -2.08218834 9.35036257 -4 10.16015625 C-5.06734375 10.61261719 -6.1346875 11.06507812 -7.234375 11.53125 C-9.5913841 12.46245178 -11.77992835 13.20106345 -14.25 13.72265625 C-5.60208535 -0.69053483 -5.60208535 -0.69053483 0 0 Z " fill="#EFEFEF" transform="translate(181.25,60.27734375)"/>
<path d="M0 0 C-1.62948254 1.95328997 -2.57825779 2.90400644 -5.09375 3.4765625 C-5.8878125 3.52554688 -6.681875 3.57453125 -7.5 3.625 C-8.38228271 3.69025879 -9.26456543 3.75551758 -10.17358398 3.82275391 C-11.10630127 3.88124512 -12.03901855 3.93973633 -13 4 C-19.90408882 4.52878391 -26.26057816 5.30142127 -32.890625 7.40234375 C-35.63115661 8.17882771 -38.17195856 8.22930066 -41 8 C-30.15905659 -0.84522428 -13.28941208 -0.32678882 0 0 Z " fill="#212121" transform="translate(104,89)"/>
<path d="M0 0 C-0.33 1.65 -0.66 3.3 -1 5 C-1.33 4.01 -1.66 3.02 -2 2 C-11.51946895 5.04623007 -15.02466611 12.74295242 -19.703125 21.09375 C-20.13109375 21.7228125 -20.5590625 22.351875 -21 23 C-21.66 23 -22.32 23 -23 23 C-22.4552215 18.29347095 -20.33771951 14.83485188 -17.8125 10.9375 C-17.43802734 10.32583984 -17.06355469 9.71417969 -16.67773438 9.08398438 C-12.44769887 2.48569965 -8.10030371 -0.6480243 0 0 Z " fill="#1D1D1D" transform="translate(169,36)"/>
<path d="M0 0 C-2.56467625 2.051741 -5.07744478 4.05162985 -7.8125 5.875 C-10.34166896 7.87321348 -10.34166896 7.87321348 -10.3125 11.25 C-10.209375 12.1575 -10.10625 13.065 -10 14 C-7.56612247 15.21693876 -5.58161154 15.31959896 -2.875 15.5625 C-1.96492188 15.64628906 -1.05484375 15.73007813 -0.1171875 15.81640625 C0.93082031 15.90728516 0.93082031 15.90728516 2 16 C2 16.66 2 17.32 2 18 C-7.72471667 18.61311699 -7.72471667 18.61311699 -12.25 16.4375 C-14 14 -14 14 -14.3125 10.6875 C-11.99356649 4.17240109 -7.18718219 -0.61568519 0 0 Z " fill="#171717" transform="translate(67,97)"/>
<path d="M0 0 C0.66 0.99 1.32 1.98 2 3 C0.92173635 4.27513763 -0.16285519 5.54492569 -1.25 6.8125 C-1.85328125 7.52019531 -2.4565625 8.22789063 -3.078125 8.95703125 C-4.94710237 10.94376939 -6.69500632 12.54249895 -9 14 C-13.41025641 13.58974359 -13.41025641 13.58974359 -15 12 C-15.1875 8.5625 -15.1875 8.5625 -15 5 C-14.34 4.34 -13.68 3.68 -13 3 C-12.34 3.33 -11.68 3.66 -11 4 C-11.33 6.31 -11.66 8.62 -12 11 C-6.06107964 8.73755415 -3.41662234 5.10070214 0 0 Z " fill="#2D2D2D" transform="translate(235,74)"/>
<path d="M0 0 C0.66 0 1.32 0 2 0 C0.61047587 4.01018103 -1.26698294 6.90032723 -3.9375 10.1875 C-4.62714844 11.04730469 -5.31679688 11.90710938 -6.02734375 12.79296875 C-8 15 -8 15 -11 17 C-14.625 17.1875 -14.625 17.1875 -18 17 C-19 16 -19 16 -19.0625 12.9375 C-19.041875 11.968125 -19.02125 10.99875 -19 10 C-18.67 10 -18.34 10 -18 10 C-18 11.65 -18 13.3 -18 15 C-11.02163709 13.86067544 -8.2089984 10.47588598 -4 5 C-2.69694744 3.30955344 -1.37639625 1.63128444 0 0 Z " fill="#282828" transform="translate(445,70)"/>
<path d="M0 0 C4.875 0.875 4.875 0.875 6 2 C6.55910632 7.7028845 5.61852911 10.57735331 2 15 C0.0625 16.9375 0.0625 16.9375 -2 18 C-4.75 17.6875 -4.75 17.6875 -7 17 C-5.15855343 15.77236895 -3.30651854 14.56023127 -1.4375 13.375 C1.91359087 10.10983454 2.16511591 7.55391323 3 3 C2.01 2.67 1.02 2.34 0 2 C0 1.34 0 0.68 0 0 Z " fill="#1B1B1B" transform="translate(204,57)"/>
<path d="M0 0 C0.99 0.33 1.98 0.66 3 1 C-0.67949421 5.04324649 -4.2228036 7.5013049 -9.125 9.875 C-9.74503906 10.1946875 -10.36507812 10.514375 -11.00390625 10.84375 C-15.61962256 13.12679248 -15.61962256 13.12679248 -19 12 C-19 11.34 -19 10.68 -19 10 C-18.21496094 9.69707031 -17.42992188 9.39414063 -16.62109375 9.08203125 C-9.43231544 6.24199557 -9.43231544 6.24199557 -2.9375 2.125 C-1.968125 1.42375 -0.99875 0.7225 0 0 Z " fill="#232323" transform="translate(98,73)"/>
<path d="M0 0 C0.33 0 0.66 0 1 0 C1.309375 1.134375 1.61875 2.26875 1.9375 3.4375 C2.62924531 6.78775099 2.62924531 6.78775099 4 8 C6.35313555 8.07271741 8.70833668 8.08370868 11.0625 8.0625 C12.35285156 8.05347656 13.64320313 8.04445313 14.97265625 8.03515625 C15.97167969 8.02355469 16.97070312 8.01195312 18 8 C17.67 8.99 17.34 9.98 17 11 C15.27277272 11.22384382 13.54303993 11.42839969 11.8125 11.625 C10.84957031 11.74101563 9.88664062 11.85703125 8.89453125 11.9765625 C5.71307439 12.00232328 3.82063686 11.43224048 1 10 C-1 8 -1 8 -1.1875 4.4375 C-1 1 -1 1 0 0 Z " fill="#1D1D1D" transform="translate(271,53)"/>
<path d="M0 0 C-1.34313185 3.78091617 -3.02964684 6.65651916 -5.5 9.8125 C-6.41265625 10.99779297 -6.41265625 10.99779297 -7.34375 12.20703125 C-7.8903125 12.79871094 -8.436875 13.39039062 -9 14 C-9.66 14 -10.32 14 -11 14 C-10.46930939 10.17902761 -9.50298434 7.93828597 -7 5 C-7.99 4.34 -8.98 3.68 -10 3 C-9.34 3 -8.68 3 -8 3 C-8 2.34 -8 1.68 -8 1 C-5.23735711 0.40267181 -2.83967231 0 0 0 Z " fill="#181818" transform="translate(233,64)"/>
<path d="M0 0 C1.13055826 3.39167479 0.7231605 5.54489981 0 9 C-0.03824623 11.33301986 -0.04574284 13.66711508 0 16 C1.65 15.67 3.3 15.34 5 15 C5 15.99 5 16.98 5 18 C2.6739143 18.38063221 0.33944736 18.71269945 -2 19 C-3.97960509 17.02039491 -3.229944 13.32253166 -3.25 10.625 C-3.270625 9.93921875 -3.29125 9.2534375 -3.3125 8.546875 C-3.35209301 3.45917285 -3.35209301 3.45917285 -1.484375 1.0234375 C-0.99453125 0.68570313 -0.5046875 0.34796875 0 0 Z " fill="#0E0E0E" transform="translate(377,70)"/>
<path d="M0 0 C0.99 0 1.98 0 3 0 C2.67 3.96 2.34 7.92 2 12 C1.67 12 1.34 12 1 12 C0.67 9.69 0.34 7.38 0 5 C-0.51949219 5.51691406 -1.03898437 6.03382812 -1.57421875 6.56640625 C-2.27160156 7.22511719 -2.96898437 7.88382812 -3.6875 8.5625 C-4.71423828 9.55443359 -4.71423828 9.55443359 -5.76171875 10.56640625 C-8 12 -8 12 -10.76953125 11.71484375 C-11.50558594 11.47894531 -12.24164063 11.24304688 -13 11 C-12.01 10.34 -11.02 9.68 -10 9 C-9.319375 8.46375 -8.63875 7.9275 -7.9375 7.375 C-6 6 -6 6 -4 6 C-3.566875 5.071875 -3.566875 5.071875 -3.125 4.125 C-2 2 -2 2 0 0 Z " fill="#353535" transform="translate(372,74)"/>
<path d="M0 0 C0.33 0.66 0.66 1.32 1 2 C1.66 2.33 2.32 2.66 3 3 C0.49470177 8.75685551 -2.15149769 14.40472761 -5 20 C-5.99 19.67 -6.98 19.34 -8 19 C-6.37003104 14.86177782 -4.63344645 10.77231222 -2.875 6.6875 C-2.59785156 6.04232422 -2.32070312 5.39714844 -2.03515625 4.73242188 C-1.35732446 3.15470995 -0.67873926 1.57732174 0 0 Z " fill="#191919" transform="translate(116,65)"/>
<path d="M0 0 C0.66 0 1.32 0 2 0 C0.31326082 4.49797113 -1.81673892 8.72886302 -4 13 C-1.69 13 0.62 13 3 13 C2.67 13.99 2.34 14.98 2 16 C0.35 16 -1.3 16 -3 16 C-3 15.34 -3 14.68 -3 14 C-4.32 13.67 -5.64 13.34 -7 13 C-5.60332244 8.11162854 -3.65571105 3.65571105 0 0 Z " fill="#151515" transform="translate(254,42)"/>
<path d="M0 0 C1.11375 0.556875 1.11375 0.556875 2.25 1.125 C1.92 1.785 1.59 2.445 1.25 3.125 C0.13818359 3.00318359 0.13818359 3.00318359 -0.99609375 2.87890625 C-4.5993834 3.20090235 -5.45239767 4.39272221 -7.8125 7.0625 C-10.36212345 9.92514652 -11.88219387 11.58230114 -15.75 12.125 C-14.3713147 9.02637066 -12.77976802 6.88376568 -10.375 4.5 C-9.78976563 3.90960938 -9.20453125 3.31921875 -8.6015625 2.7109375 C-5.56892271 0.11335995 -3.932281 -1.25118032 0 0 Z " fill="#242424" transform="translate(182.75,57.875)"/>
<path d="M0 0 C0 4.12863161 -2.15678053 6.10249533 -4.6875 9.125 C-5.12255859 9.67542969 -5.55761719 10.22585937 -6.00585938 10.79296875 C-8.14782735 13.37602346 -9.58634845 14.87333704 -12.83203125 15.8671875 C-13.54746094 15.91101562 -14.26289063 15.95484375 -15 16 C-5.66197183 2.83098592 -5.66197183 2.83098592 0 0 Z " fill="#1A1A1A" transform="translate(337,48)"/>
<path d="M0 0 C0.66 0 1.32 0 2 0 C1.32116957 3.11547441 0.25893098 5.85137721 -1.0625 8.75 C-1.60583984 9.94882812 -1.60583984 9.94882812 -2.16015625 11.171875 C-2.43730469 11.77515625 -2.71445312 12.3784375 -3 13 C-0.69 13 1.62 13 4 13 C3.67 13.66 3.34 14.32 3 15 C0.6568787 14.74438677 -1.67843403 14.40729228 -4 14 C-4.33 13.34 -4.66 12.68 -5 12 C-5.99 12.495 -5.99 12.495 -7 13 C-5.65846062 7.99971686 -3.51629997 3.80932497 0 0 Z " fill="#353535" transform="translate(390,42)"/>
<path d="M0 0 C-0.70125 0.495 -1.4025 0.99 -2.125 1.5 C-5.17681947 4.15375607 -7.3279072 6.92293092 -9.66796875 10.1953125 C-11 12 -11 12 -13 14 C-13.66 14 -14.32 14 -15 14 C-13.00318526 6.37579825 -8.58267498 -0.46392838 0 0 Z " fill="#121212" transform="translate(206,58)"/>
<path d="M0 0 C-2.58548555 2.67002459 -4.63400198 3.23031053 -8.22265625 3.36328125 C-9.83602576 3.36195773 -11.44944793 3.34453042 -13.0625 3.3125 C-13.87783203 3.31572266 -14.69316406 3.31894531 -15.53320312 3.32226562 C-21.59883903 3.26744065 -21.59883903 3.26744065 -25 1 C-22.33349537 0.83031334 -19.66684474 0.66418179 -17 0.5 C-16.25621094 0.45230469 -15.51242188 0.40460937 -14.74609375 0.35546875 C-9.82037776 0.05564256 -4.93485224 -0.04486229 0 0 Z " fill="#0C0C0C" transform="translate(117,52)"/>
<path d="M0 0 C0.33 0 0.66 0 1 0 C1.268125 1.051875 1.53625 2.10375 1.8125 3.1875 C2.81183586 6.9461743 2.81183586 6.9461743 4.6875 9.75 C5.120625 10.4925 5.55375 11.235 6 12 C5.67 12.99 5.34 13.98 5 15 C4.01 14.34 3.02 13.68 2 13 C1.01 14.32 0.02 15.64 -1 17 C-1.12036664 11.22240116 -0.8320582 5.72040011 0 0 Z " fill="#151515" transform="translate(392,66)"/>
<path d="M0 0 C0 0.66 0 1.32 0 2 C0.99 2.33 1.98 2.66 3 3 C2.26394531 3.19335938 1.52789062 3.38671875 0.76953125 3.5859375 C-0.20628906 3.84632812 -1.18210937 4.10671875 -2.1875 4.375 C-3.63189453 4.75785156 -3.63189453 4.75785156 -5.10546875 5.1484375 C-8.01351326 5.92891659 -8.01351326 5.92891659 -10.67578125 7.2265625 C-11.44277344 7.48179688 -12.20976563 7.73703125 -13 8 C-13.99 7.34 -14.98 6.68 -16 6 C-14.23002526 5.18563132 -12.45898848 4.3735706 -10.6875 3.5625 C-9.70136719 3.11003906 -8.71523437 2.65757813 -7.69921875 2.19140625 C-2.73442623 0 -2.73442623 0 0 0 Z " fill="#2C2C2C" transform="translate(115,31)"/>
<path d="M0 0 C0.33 1.32 0.66 2.64 1 4 C0.01 4 -0.98 4 -2 4 C-2 3.34 -2 2.68 -2 2 C-3.4589426 2.47730838 -4.91713496 2.95691042 -6.375 3.4375 C-7.18710937 3.70433594 -7.99921875 3.97117187 -8.8359375 4.24609375 C-11.01031799 4.95179729 -11.01031799 4.95179729 -13 6 C-13.99 5.34 -14.98 4.68 -16 4 C-10.45834744 0.22695996 -6.65545792 -0.54330269 0 0 Z " fill="#2C2C2C" transform="translate(368,28)"/>
<path d="M0 0 C1.58246707 -0.08153933 3.16616273 -0.13943557 4.75 -0.1875 C6.07257813 -0.23970703 6.07257813 -0.23970703 7.421875 -0.29296875 C10.57244954 0.06505108 11.85816071 0.65984226 14 3 C14.390625 5.69921875 14.390625 5.69921875 14.25 8.6875 C14.21390625 9.68136719 14.1778125 10.67523438 14.140625 11.69921875 C14.07101562 12.83810547 14.07101562 12.83810547 14 14 C13.34 14 12.68 14 12 14 C11.96132813 13.07767578 11.96132813 13.07767578 11.921875 12.13671875 C11.67970813 7.19697036 11.67970813 7.19697036 9.375 3 C6.28081352 1.69718464 3.32869938 1.32006725 0 1 C0 0.67 0 0.34 0 0 Z " fill="#111111" transform="translate(306,28)"/>
<path d="M0 0 C0.33 0 0.66 0 1 0 C1.66 2.64 2.32 5.28 3 8 C5.64 8.66 8.28 9.32 11 10 C10.67 10.66 10.34 11.32 10 12 C6.54559864 12.19929239 3.76324916 12.28621844 0.5 11.0625 C-1.38797424 8.46653542 -1.08484025 7.44424114 -0.75 4.3125 C-0.52019671 2.87163335 -0.27632268 1.43267304 0 0 Z " fill="#202020" transform="translate(351,75)"/>
<path d="M0 0 C0.69287109 0.00451172 1.38574219 0.00902344 2.09960938 0.01367188 C3.79561068 0.02536844 5.49156703 0.04330076 7.1875 0.0625 C5.62022547 1.90420838 4.68100359 2.95026232 2.28637695 3.49487305 C1.24163208 3.53414917 1.24163208 3.53414917 0.17578125 3.57421875 C-0.58154297 3.60966797 -1.33886719 3.64511719 -2.11914062 3.68164062 C-2.90482422 3.70419922 -3.69050781 3.72675781 -4.5 3.75 C-5.69592773 3.80124023 -5.69592773 3.80124023 -6.91601562 3.85351562 C-8.88101904 3.93588104 -10.84673696 4.00087067 -12.8125 4.0625 C-12.8125 3.0725 -12.8125 2.0825 -12.8125 1.0625 C-8.52952469 0.00630997 -4.38264354 -0.05452092 0 0 Z " fill="#3C3C3C" transform="translate(96.8125,88.9375)"/>
<path d="M0 0 C1.11375 0.7115625 1.11375 0.7115625 2.25 1.4375 C4.61050015 2.77869327 6.36648477 3.512312 9 4 C9 4.66 9 5.32 9 6 C6 8 6 8 3.375 7.6875 C1 7 1 7 0 6 C-0.04080783 4.00041636 -0.04254356 1.99954746 0 0 Z " fill="#E5E5E5" transform="translate(393,78)"/>
<path d="M0 0 C-2.60409997 2.60409997 -4.32367762 2.50939623 -7.9375 3 C-11.79461942 3.52490568 -13.71811971 3.81207981 -17 6 C-15.97427701 2.6948926 -14.93092146 1.95993445 -11.875 0.1875 C-7.6752858 -1.45701967 -4.36251312 -0.8418885 0 0 Z " fill="#292929" transform="translate(412,57)"/>
<path d="M0 0 C0.33 0 0.66 0 1 0 C1.34338883 3.6914299 1.27811415 5.54677695 -0.6875 8.75 C-3.06787399 11.06603956 -4.85123032 12.03787593 -8 13 C-8.33 12.01 -8.66 11.02 -9 10 C-7.5459375 9.1028125 -7.5459375 9.1028125 -6.0625 8.1875 C-2.76947958 6.28872491 -2.76947958 6.28872491 -2 3 C-1.34 3 -0.68 3 0 3 C0 2.01 0 1.02 0 0 Z " fill="#1B1B1B" transform="translate(133,37)"/>
<path d="M0 0 C3 2 3 2 3.6875 4.625 C3.8421875 5.800625 3.8421875 5.800625 4 7 C6.31 7.66 8.62 8.32 11 9 C11 9.33 11 9.66 11 10 C9.54257537 10.08096803 8.08387193 10.13917774 6.625 10.1875 C5.81289062 10.22230469 5.00078125 10.25710937 4.1640625 10.29296875 C3.44992188 10.19628906 2.73578125 10.09960938 2 10 C-0.4294516 6.3558226 -0.16179575 4.28758728 0 0 Z " fill="#242424" transform="translate(119,76)"/>
<path d="M0 0 C0.99 0.33 1.98 0.66 3 1 C-3.31268537 9.11321074 -3.31268537 9.11321074 -8 10 C-8.99 9.34 -9.98 8.68 -11 8 C-9.9275 7.608125 -8.855 7.21625 -7.75 6.8125 C-4.10859135 5.27616532 -2.23052521 3.30117731 0 0 Z " fill="#1F1F1F" transform="translate(156,76)"/>
<path d="M0 0 C1.31223496 3.93670488 0.24296256 6.12488144 -1 10 C-1.66 9.01 -2.32 8.02 -3 7 C-4.32 7.99 -5.64 8.98 -7 10 C-6.52727227 5.74545047 -4.03562624 3.80795427 -1 1 C-0.67 0.67 -0.34 0.34 0 0 Z " fill="#0B0B0B" transform="translate(351,72)"/>
<path d="M0 0 C1.9375 0.375 1.9375 0.375 4 1 C5.49297212 3.98594424 5.11755228 6.70853624 5 10 C4.67 10.66 4.34 11.32 4 12 C3.34 12 2.68 12 2 12 C1.93941406 11.38511719 1.87882812 10.77023438 1.81640625 10.13671875 C1.73261719 9.32847656 1.64882813 8.52023438 1.5625 7.6875 C1.48128906 6.88699219 1.40007812 6.08648437 1.31640625 5.26171875 C1.04734307 2.83912821 1.04734307 2.83912821 0 0 Z " fill="#151515" transform="translate(410,58)"/>
<path d="M0 0 C2.01136276 2.55991624 3.62845496 5.04590299 5 8 C6.32 7.67 7.64 7.34 9 7 C8.34 8.32 7.68 9.64 7 11 C4.625 11.125 4.625 11.125 2 11 C0 9 0 9 -0.1953125 6.8359375 C-0.17210937 6.02382812 -0.14890625 5.21171875 -0.125 4.375 C-0.10695312 3.55773437 -0.08890625 2.74046875 -0.0703125 1.8984375 C-0.04710937 1.27195312 -0.02390625 0.64546875 0 0 Z " fill="#1F1F1F" transform="translate(237,78)"/>
<path d="M0 0 C0.66 0.99 1.32 1.98 2 3 C0.92807816 4.3218362 -0.15802695 5.63217927 -1.25 6.9375 C-1.85328125 7.66839844 -2.4565625 8.39929688 -3.078125 9.15234375 C-5.10741134 11.10326334 -6.254407 11.61731779 -9 12 C-9 11.34 -9 10.68 -9 10 C-8.2575 9.4225 -7.515 8.845 -6.75 8.25 C-3.75434812 5.7990121 -2.01380994 3.28176435 0 0 Z " fill="#1F1F1F" transform="translate(235,74)"/>
<path d="M0 0 C0.99 0.33 1.98 0.66 3 1 C2.01 3.97 1.02 6.94 0 10 C-0.66 9.34 -1.32 8.68 -2 8 C-1.69347955 5.0574037 -1.32728846 2.65457692 0 0 Z M-5 8 C-4.01 8.33 -3.02 8.66 -2 9 C-2.99 9.99 -3.98 10.98 -5 12 C-5.66 11.67 -6.32 11.34 -7 11 C-6.34 10.01 -5.68 9.02 -5 8 Z " fill="#1D1D1D" transform="translate(379,62)"/>
<path d="M0 0 C1.15957207 3.47871621 0.77456651 4.34219645 -0.4375 7.6875 C-0.72496094 8.49574219 -1.01242188 9.30398437 -1.30859375 10.13671875 C-1.53675781 10.75160156 -1.76492187 11.36648437 -2 12 C-2.66 11.34 -3.32 10.68 -4 10 C-5.32 11.32 -6.64 12.64 -8 14 C-8.66 13.67 -9.32 13.34 -10 13 C-9.52949219 12.48050781 -9.05898437 11.96101563 -8.57421875 11.42578125 C-5.32559823 7.78705723 -2.30339528 4.33580287 0 0 Z " fill="#D5D5D5" transform="translate(120,52)"/>
<path d="M0 0 C0 0.33 0 0.66 0 1 C-0.58007812 1.06058594 -1.16015625 1.12117188 -1.7578125 1.18359375 C-2.53898437 1.26738281 -3.32015625 1.35117187 -4.125 1.4375 C-4.94355469 1.52515625 -5.76210938 1.6128125 -6.60546875 1.703125 C-8.56199673 1.94569617 -10.50427767 2.30085553 -12.4375 2.6875 C-13.283125 2.790625 -14.12875 2.89375 -15 3 C-15.66 2.34 -16.32 1.68 -17 1 C-11.2364368 -1.64812363 -6.09067424 -0.8019749 0 0 Z " fill="#333333" transform="translate(313,29)"/>
<path d="M0 0 C0 0.66 0 1.32 0 2 C-4.76350585 1.28547412 -9.34201396 0.20465156 -14 -1 C-14 -1.33 -14 -1.66 -14 -2 C-8.61108031 -3.38572221 -4.8341517 -2.68563983 0 0 Z " fill="#272727" transform="translate(123,94)"/>
<path d="M0 0 C0.66 0 1.32 0 2 0 C1.67 3.63 1.34 7.26 1 11 C0.67 11 0.34 11 0 11 C-0.33 9.35 -0.66 7.7 -1 6 C-1.33 7.98 -1.66 9.96 -2 12 C-2.33 12 -2.66 12 -3 12 C-3.29162929 7.04230204 -3.12940055 3.97193147 0 0 Z " fill="#3D3D3D" transform="translate(272,48)"/>
<path d="M0 0 C0 0.66 0 1.32 0 2 C-1.26418246 2.69965443 -2.53665402 3.38434763 -3.8125 4.0625 C-4.52019531 4.44535156 -5.22789062 4.82820313 -5.95703125 5.22265625 C-8 6 -8 6 -11 5 C-7.56138316 1.21752148 -5.17193751 0 0 0 Z " fill="#1A1A1A" transform="translate(298,31)"/>
<path d="M0 0 C0.99 0.33 1.98 0.66 3 1 C1.70700306 3.88437779 0.34058637 5.87219421 -2 8 C-2.99 7.34 -3.98 6.68 -5 6 C-3.35 4.02 -1.7 2.04 0 0 Z " fill="#282828" transform="translate(181,34)"/>
<path d="M0 0 C0.99 0.33 1.98 0.66 3 1 C2.01 3.97 1.02 6.94 0 10 C-0.99 9.67 -1.98 9.34 -3 9 C-2.01 6.03 -1.02 3.06 0 0 Z " fill="#222222" transform="translate(243,61)"/>
<path d="M0 0 C0.99 0.66 1.98 1.32 3 2 C4.32 1.34 5.64 0.68 7 0 C6.6875 1.875 6.6875 1.875 6 4 C5.01 4.66 4.02 5.32 3 6 C2.01 5.67 1.02 5.34 0 5 C-0.99 5.495 -0.99 5.495 -2 6 C-1.34 4.02 -0.68 2.04 0 0 Z " fill="#2D2D2D" transform="translate(145,58)"/>
<path d="M0 0 C4.875 0.875 4.875 0.875 6 2 C6.04092937 4.33297433 6.04241723 6.66705225 6 9 C5.01 8.67 4.02 8.34 3 8 C3 6.35 3 4.7 3 3 C2.01 2.67 1.02 2.34 0 2 C0 1.34 0 0.68 0 0 Z " fill="#262626" transform="translate(204,57)"/>
<path d="M0 0 C0.33 0 0.66 0 1 0 C3.14285714 7.42857143 3.14285714 7.42857143 4 11 C0.125 9.125 0.125 9.125 -1 8 C-1.125 4.5 -1.125 4.5 -1 1 C-0.67 0.67 -0.34 0.34 0 0 Z " fill="#0C0C0C" transform="translate(271,53)"/>
<path d="M0 0 C0.99 0.33 1.98 0.66 3 1 C2.34 1 1.68 1 1 1 C-0.07525194 3.65228812 -1.09456151 6.28368454 -2 9 C-3.875 8.6875 -3.875 8.6875 -6 8 C-6.66 7.01 -7.32 6.02 -8 5 C-7.05125 4.731875 -6.1025 4.46375 -5.125 4.1875 C-1.74732727 3.25013412 -1.74732727 3.25013412 0 0 Z " fill="#2B2B2B" transform="translate(121,46)"/>
<path d="M0 0 C0.33 0.66 0.66 1.32 1 2 C1.66 2.33 2.32 2.66 3 3 C2.01 5.64 1.02 8.28 0 11 C-0.33 10.34 -0.66 9.68 -1 9 C-1.66 8.67 -2.32 8.34 -3 8 C-2.01 5.36 -1.02 2.72 0 0 Z " fill="#252525" transform="translate(116,65)"/>
<path d="M0 0 C0.66 0.33 1.32 0.66 2 1 C2 1.66 2 2.32 2 3 C0.46875 4.2890625 0.46875 4.2890625 -1.5 5.625 C-2.1496875 6.07101563 -2.799375 6.51703125 -3.46875 6.9765625 C-3.9740625 7.31429687 -4.479375 7.65203125 -5 8 C-5.66 7.34 -6.32 6.68 -7 6 C-4.69 4.02 -2.38 2.04 0 0 Z " fill="#222222" transform="translate(362,57)"/>
<path d="M0 0 C3.05936637 3.75467691 5 7.08113061 5 12 C1.125 10.25 1.125 10.25 0 8 C-0.13415472 5.3276379 -0.04318541 2.67749512 0 0 Z " fill="#242424" transform="translate(390,76)"/>
<path d="M0 0 C0.99 0 1.98 0 3 0 C2.44225728 3.23490776 1.62788492 4.97855006 -1 7 C-1.99 7 -2.98 7 -4 7 C-2.92598892 4.08482708 -2.22189824 2.22189824 0 0 Z " fill="#2D2D2D" transform="translate(339,60)"/>
<path d="M0 0 C-3.83325617 2.70582788 -6.32538149 3.32613618 -11 3 C-11 2.34 -11 1.68 -11 1 C-3.57142857 -1.42857143 -3.57142857 -1.42857143 0 0 Z " fill="#111111" transform="translate(206,84)"/>
<path d="M0 0 C0.99 0.33 1.98 0.66 3 1 C2.25 3.9375 2.25 3.9375 1 7 C-1.125 7.875 -1.125 7.875 -3 8 C-1.125 2.25 -1.125 2.25 0 0 Z " fill="#272727" transform="translate(411,69)"/>
<path d="M0 0 C0.99 0.66 1.98 1.32 3 2 C2.01 4.31 1.02 6.62 0 9 C-0.66 9 -1.32 9 -2 9 C-1.34 6.03 -0.68 3.06 0 0 Z " fill="#171717" transform="translate(119,58)"/>
<path d="M0 0 C0.99 0 1.98 0 3 0 C2.75 1.875 2.75 1.875 2 4 C0.0625 5.3125 0.0625 5.3125 -2 6 C-2.66 5.67 -3.32 5.34 -4 5 C-2.1875 2.5 -2.1875 2.5 0 0 Z " fill="#2B2B2B" transform="translate(128,60)"/>
<path d="M0 0 C-0.6875 1.9375 -0.6875 1.9375 -2 4 C-4.625 4.75 -4.625 4.75 -7 5 C-6.6875 3.0625 -6.6875 3.0625 -6 1 C-3 0 -3 0 0 0 Z " fill="#2C2C2C" transform="translate(351,47)"/>
<path d="M0 0 C4.455 0.99 4.455 0.99 9 2 C8.67 2.66 8.34 3.32 8 4 C6.02 4 4.04 4 2 4 C1.34 2.68 0.68 1.36 0 0 Z " fill="#151515" transform="translate(71,82)"/>
<path d="M0 0 C0.66 0 1.32 0 2 0 C1.40072174 3.35595828 0.15377564 5.37801226 -2 8 C-2.66 7.67 -3.32 7.34 -4 7 C-2.92598892 4.08482708 -2.22189824 2.22189824 0 0 Z " fill="#202020" transform="translate(390,42)"/>
<path d="M0 0 C1.2065625 0.0309375 1.2065625 0.0309375 2.4375 0.0625 C-1.0712188 3.15842835 -4.05447399 4.80444623 -8.5625 6.0625 C-2.5625 0.0625 -2.5625 0.0625 0 0 Z " fill="#191919" transform="translate(203.5625,57.9375)"/>
<path d="M0 0 C-0.75 1.9375 -0.75 1.9375 -2 4 C-4.125 4.75 -4.125 4.75 -6 5 C-6 4.01 -6 3.02 -6 2 C-3 0 -3 0 0 0 Z " fill="#222222" transform="translate(140,47)"/>
<path d="M0 0 C0 0.66 0 1.32 0 2 C-5.75 5 -5.75 5 -8 5 C-7.1875 3.0625 -7.1875 3.0625 -6 1 C-3 0 -3 0 0 0 Z " fill="#191919" transform="translate(88,106)"/>
<path d="M0 0 C1 3 1 3 -0.4375 6.1875 C-1.2109375 7.5796875 -1.2109375 7.5796875 -2 9 C-2.33 9 -2.66 9 -3 9 C-2.4140625 2.84765625 -2.4140625 2.84765625 -2 1 C-1.34 0.67 -0.68 0.34 0 0 Z " fill="#0F0F0F" transform="translate(74,64)"/>
<path d="M0 0 C0.33 0.99 0.66 1.98 1 3 C-0.32 4.32 -1.64 5.64 -3 7 C-3.99 6.67 -4.98 6.34 -6 6 C-2.25 1.125 -2.25 1.125 0 0 Z " fill="#1C1C1C" transform="translate(117,54)"/>
<path d="M0 0 C0.99 0.33 1.98 0.66 3 1 C1.35 2.65 -0.3 4.3 -2 6 C-2.66 5.34 -3.32 4.68 -4 4 C-2.68 2.68 -1.36 1.36 0 0 Z " fill="#292929" transform="translate(208,78)"/>
<path d="M0 0 C0.66 0.33 1.32 0.66 2 1 C1 4 1 4 -1.0625 5.1875 C-1.701875 5.455625 -2.34125 5.72375 -3 6 C-3.66 5.34 -4.32 4.68 -5 4 C-3.35 2.68 -1.7 1.36 0 0 Z " fill="#282828" transform="translate(286,35)"/>
<path d="M0 0 C0.33 0 0.66 0 1 0 C1.125 5.75 1.125 5.75 0 8 C-0.66 8 -1.32 8 -2 8 C-1.125 1.125 -1.125 1.125 0 0 Z " fill="#0C0C0C" transform="translate(312,68)"/>
<path d="M0 0 C-0.33 0.99 -0.66 1.98 -1 3 C-2.65 3 -4.3 3 -6 3 C-6 2.01 -6 1.02 -6 0 C-3.50907189 -1.24546405 -2.58919267 -0.7767578 0 0 Z " fill="#2C2C2C" transform="translate(182,70)"/>
<path d="M0 0 C2.31 0 4.62 0 7 0 C6.67 0.99 6.34 1.98 6 3 C4.35 3 2.7 3 1 3 C0.67 2.01 0.34 1.02 0 0 Z " fill="#303030" transform="translate(250,55)"/>
<path d="M0 0 C2.0625 0.4375 2.0625 0.4375 4 1 C-0.75 5 -0.75 5 -3 5 C-1.125 1.125 -1.125 1.125 0 0 Z " fill="#191919" transform="translate(351,33)"/>
<path d="M0 0 C0.66 0.33 1.32 0.66 2 1 C0.25 4.875 0.25 4.875 -2 6 C-2.66 5.34 -3.32 4.68 -4 4 C-2.68 2.68 -1.36 1.36 0 0 Z " fill="#242424" transform="translate(100,94)"/>
<path d="M0 0 C0.66 0.66 1.32 1.32 2 2 C4.57061311 2.64767793 4.57061311 2.64767793 7 3 C6.360625 3.12375 5.72125 3.2475 5.0625 3.375 C4.381875 3.58125 3.70125 3.7875 3 4 C2.67 4.66 2.34 5.32 2 6 C1.01 5.34 0.02 4.68 -1 4 C-0.67 2.68 -0.34 1.36 0 0 Z " fill="#2D2D2D" transform="translate(192,81)"/>
<path d="M0 0 C1.31223496 3.93670488 0.24296256 6.12488144 -1 10 C-1.33 10 -1.66 10 -2 10 C-2.1953125 3.9453125 -2.1953125 3.9453125 -2 2 C-1.34 1.34 -0.68 0.68 0 0 Z " fill="#050505" transform="translate(333,72)"/>
<path d="M0 0 C0.33 0.99 0.66 1.98 1 3 C0.67 3.66 0.34 4.32 0 5 C-2.0625 5.625 -2.0625 5.625 -4 6 C-3.6875 4.125 -3.6875 4.125 -3 2 C-2.01 1.34 -1.02 0.68 0 0 Z " fill="#161616" transform="translate(178,40)"/>
<path d="M0 0 C-2.31 1.32 -4.62 2.64 -7 4 C-6.625 2.0625 -6.625 2.0625 -6 0 C-3.50907189 -1.24546405 -2.58919267 -0.7767578 0 0 Z " fill="#151515" transform="translate(102,39)"/>
</svg>
