<svg width="57" height="38" viewBox="0 0 57 38" fill="none" xmlns="http://www.w3.org/2000/svg">
<path d="M1.88257 38C1.18532 38 0.662385 37.8257 0.313761 37.4771C-0.0348624 37.0123 -0.0929665 36.3731 0.13945 35.5597L12.5156 1.74312C12.8642 0.581038 13.6196 0 14.7817 0H26.1119C27.7388 0 28.378 0.755351 28.0294 2.26606L19.6624 36.2569C19.3138 37.419 18.5003 38 17.222 38H1.88257ZM29.9468 38C29.2495 38 28.7266 37.8257 28.378 37.4771C28.0294 37.0123 27.9713 36.3731 28.2037 35.5597L40.5798 1.74312C40.9284 0.581038 41.6838 0 42.8459 0H54.1761C55.8031 0 56.4422 0.755351 56.0936 2.26606L47.7266 36.2569C47.378 37.419 46.5645 38 45.2862 38H29.9468Z" fill="black"/>
</svg>
