<?xml version="1.0" encoding="UTF-8"?>
<svg version="1.1" xmlns="http://www.w3.org/2000/svg" width="420" height="420">
<path d="M0 0 C1.32 0 2.64 0 4 0 C4.33 4.95 4.66 9.9 5 15 C5.99 15.33 6.98 15.66 8 16 C8.33 18.97 8.66 21.94 9 25 C10.32 25.33 11.64 25.66 13 26 C13.33 27.65 13.66 29.3 14 31 C17.3 31.66 20.6 32.32 24 33 C24 36.96 24 40.92 24 45 C24.79664063 44.66226563 25.59328125 44.32453125 26.4140625 43.9765625 C30.92552768 42.74794998 34.75525868 43.00659958 39.375 43.375 C40.62216797 43.46007812 40.62216797 43.46007812 41.89453125 43.546875 C43.93044876 43.6872831 45.96535843 43.84217665 48 44 C48.15360038 52.32719646 48.30178201 60.65446385 48.4429636 68.98187923 C48.50868537 72.84824354 48.57630377 76.71455562 48.64819336 80.58081055 C48.71744636 84.30896503 48.78180004 88.03717428 48.84269524 91.76547432 C48.86685067 93.19092465 48.8927992 94.61634571 48.92053413 96.04173088 C48.95895154 98.03156051 48.99051632 100.02151892 49.02172852 102.01147461 C49.05170677 103.71357338 49.05170677 103.71357338 49.08229065 105.45005798 C49 108 49 108 48 109 C46.31391034 109.07205511 44.62499341 109.08386068 42.9375 109.0625 C41.55884766 109.04896484 41.55884766 109.04896484 40.15234375 109.03515625 C39.08693359 109.01775391 39.08693359 109.01775391 38 109 C38 109.66 38 110.32 38 111 C40.475 110.505 40.475 110.505 43 110 C43 110.66 43 111.32 43 112 C49.435 111.01 49.435 111.01 56 110 C55.98839844 108.54207031 55.97679687 107.08414063 55.96484375 105.58203125 C55.9554624 103.65885545 55.94636257 101.73567826 55.9375 99.8125 C55.92912109 98.85279297 55.92074219 97.89308594 55.91210938 96.90429688 C55.90888672 95.97294922 55.90566406 95.04160156 55.90234375 94.08203125 C55.89710693 93.22843018 55.89187012 92.3748291 55.88647461 91.49536133 C56.00420677 88.90753253 56.42892956 86.52338047 57 84 C59.31 85.32 61.62 86.64 64 88 C64 88.66 64 89.32 64 90 C65.32 90 66.64 90 68 90 C68 80.76 68 71.52 68 62 C68.66 62 69.32 62 70 62 C70.33 72.56 70.66 83.12 71 94 C72.32 94.66 73.64 95.32 75 96 C78.94098471 99.1296055 79.88290073 102.15923652 81 107 C80.67 107.33 80.34 107.66 80 108 C79.91232888 110.07262076 79.89304127 112.14820294 79.90234375 114.22265625 C79.90556641 115.48271484 79.90878906 116.74277344 79.91210938 118.04101562 C79.92046597 119.38151109 79.92893093 120.72200588 79.9375 122.0625 C79.9425134 123.40689942 79.94707658 124.7513006 79.95117188 126.09570312 C79.96300512 129.39717941 79.97949029 132.69856803 80 136 C82.64 136.33 85.28 136.66 88 137 C89.04498303 141.28886054 89.16110484 145.46613593 89.16796875 149.85546875 C89.17129715 150.59831619 89.17462555 151.34116364 89.17805481 152.10652161 C89.18309765 153.66890852 89.18546396 155.23130612 89.18530273 156.79370117 C89.1875024 159.19011861 89.20572127 161.58608497 89.22460938 163.98242188 C89.22754117 165.50260259 89.2295274 167.0227855 89.23046875 168.54296875 C89.23765427 169.2606694 89.24483978 169.97837006 89.25224304 170.71781921 C89.22884317 175.77115683 89.22884317 175.77115683 87 178 C86.34 177.67 85.68 177.34 85 177 C85 176.34 85 175.68 85 175 C84.4225 174.938125 83.845 174.87625 83.25 174.8125 C80.11742429 173.6812921 78.96539149 171.62052199 77 169 C76.34 168.67 75.68 168.34 75 168 C75 167.34 75 166.68 75 166 C74.34 166 73.68 166 73 166 C72.443125 165.278125 71.88625 164.55625 71.3125 163.8125 C69.35519386 161.43199254 68.03998301 160.22133645 65.5625 158.5625 C62.04028304 156.16679166 59.65059727 153.34812287 57 150 C55.63875 148.6696875 55.63875 148.6696875 54.25 147.3125 C52 145 52 145 51 142 C50.34 142 49.68 142 49 142 C47.31183067 140.35511706 45.64646685 138.68662458 44 137 C43.01 136.34 42.02 135.68 41 135 C41 134.34 41 133.68 41 133 C40.01 132.67 39.02 132.34 38 132 C36.62804426 130.70644173 35.28817344 129.37701298 34 128 C33.31035156 128.25394531 32.62070313 128.50789062 31.91015625 128.76953125 C27.43753965 130.40765009 22.96858686 132.03023885 18.4375 133.5 C13.53396714 135.11103503 8.77540028 137.04714591 4 139 C1.48301271 140.01052379 -1.0358106 141.01397487 -3.5625 142 C-5.93471855 142.91882718 -5.93471855 142.91882718 -7.8125 144 C-10 145 -10 145 -13.375 145.75 C-18.7046917 146.99293183 -23.54438326 149.35100618 -28.53515625 151.55078125 C-32.21040111 153.08800317 -35.86361094 154.22358647 -39.6953125 155.28515625 C-42.8984681 156.27867739 -45.86440315 157.68071081 -48.90234375 159.08984375 C-51.85260993 160.36994062 -54.8989504 161.16510203 -58 162 C-58.886875 162.37125 -59.77375 162.7425 -60.6875 163.125 C-63 164 -63 164 -67 164 C-67 164.66 -67 165.32 -67 166 C-70.28467944 167.09489315 -72.92145594 167.13936014 -76.375 167.25 C-81.6673621 167.59283532 -81.6673621 167.59283532 -86.125 170.375 C-86.74375 171.24125 -87.3625 172.1075 -88 173 C-89.6875 174.8125 -89.6875 174.8125 -91 176 C-91.66 176 -92.32 176 -93 176 C-93.33 176.99 -93.66 177.98 -94 179 C-96.4375 181.6875 -96.4375 181.6875 -99 184 C-99.66 184 -100.32 184 -101 184 C-101.33 184.99 -101.66 185.98 -102 187 C-103.40197152 188.1683096 -104.80839219 189.33191028 -106.2421875 190.4609375 C-108.96741953 192.84702954 -111.19072466 195.63104063 -113.484375 198.42578125 C-113.98453125 198.94527344 -114.4846875 199.46476563 -115 200 C-115.66 200 -116.32 200 -117 200 C-117 200.66 -117 201.32 -117 202 C-118.375 203.625 -118.375 203.625 -120 205 C-120.66 205 -121.32 205 -122 205 C-122 205.66 -122 206.32 -122 207 C-122.99 207.33 -123.98 207.66 -125 208 C-125.495 147.115 -125.495 147.115 -126 85 C-123.03 84.01 -123.03 84.01 -120 83 C-119.505 82.01 -119.505 82.01 -119 81 C-117.01304416 82.98695584 -117.54618476 86.71113103 -117.375 89.4375 C-117.3234375 90.13166016 -117.271875 90.82582031 -117.21875 91.54101562 C-116.87575519 96.75151037 -116.87575519 96.75151037 -118 99 C-116.515 98.505 -116.515 98.505 -115 98 C-114.34 98.33 -113.68 98.66 -113 99 C-113 98.34 -113 97.68 -113 97 C-113.99 96.67 -114.98 96.34 -116 96 C-115.01 96 -114.02 96 -113 96 C-113.02320312 94.80761719 -113.04640625 93.61523438 -113.0703125 92.38671875 C-113.08907178 90.82031876 -113.10727181 89.253912 -113.125 87.6875 C-113.14175781 86.90181641 -113.15851563 86.11613281 -113.17578125 85.30664062 C-113.18222656 84.54931641 -113.18867187 83.79199219 -113.1953125 83.01171875 C-113.20578613 82.31522217 -113.21625977 81.61872559 -113.22705078 80.90112305 C-113 79 -113 79 -111 76 C-110.34 76 -109.68 76 -109 76 C-107.58277204 83.7160189 -108.34352614 91.24350887 -109 99 C-108.195625 98.814375 -107.39125 98.62875 -106.5625 98.4375 C-105.2940625 98.2209375 -105.2940625 98.2209375 -104 98 C-103 99 -103 99 -102.88647461 100.85766602 C-102.89171143 101.64842529 -102.89694824 102.43918457 -102.90234375 103.25390625 C-102.90556641 104.10791016 -102.90878906 104.96191406 -102.91210938 105.84179688 C-102.92048828 106.73962891 -102.92886719 107.63746094 -102.9375 108.5625 C-102.94201172 109.46419922 -102.94652344 110.36589844 -102.95117188 111.29492188 C-102.96299756 113.52997589 -102.98093362 115.76499602 -103 118 C-97.39 118 -91.78 118 -86 118 C-83.85471898 127.46447508 -83.85471898 127.46447508 -85 133 C-85.12753414 135.93834318 -85.09454146 138.87207989 -85.0625 141.8125 C-85.05798828 142.60076172 -85.05347656 143.38902344 -85.04882812 144.20117188 C-85.03711312 146.13414761 -85.01917998 148.06708393 -85 150 C-84.34 150 -83.68 150 -83 150 C-83.06928711 149.00403809 -83.13857422 148.00807617 -83.20996094 146.98193359 C-84.1451837 132.30588278 -84.22104337 117.62472044 -84.24023438 102.92480469 C-84.24580166 99.30596645 -84.27007535 95.68748893 -84.29820633 92.06876564 C-84.31681667 89.25317295 -84.32203657 86.43766972 -84.32357025 83.62202072 C-84.32803205 81.64279565 -84.34663553 79.66361858 -84.36553955 77.68447876 C-84.36253845 76.48487518 -84.35953735 75.28527161 -84.35644531 74.04931641 C-84.36191376 72.47315048 -84.36191376 72.47315048 -84.36749268 70.86514282 C-83.94357937 67.56011866 -82.99946553 65.64718454 -81 63 C-80.34 63 -79.68 63 -79 63 C-78.505 62.01 -78.505 62.01 -78 61 C-75.68529088 60.27129528 -73.3494053 59.60760482 -71 59 C-70.01 58.67 -69.02 58.34 -68 58 C-67.505 57.01 -67.505 57.01 -67 56 C-62.94203226 53.85166414 -59.52171308 53.92552473 -55 54 C-54.9906543 55.26593994 -54.98130859 56.53187988 -54.97167969 57.83618164 C-54.93167005 62.5534932 -54.86588054 67.27016012 -54.79248047 71.98706055 C-54.76433443 74.02473643 -54.74308834 76.0625202 -54.72900391 78.1003418 C-54.70748622 81.03750589 -54.66079052 83.97338153 -54.609375 86.91015625 C-54.60814636 87.81459976 -54.60691772 88.71904327 -54.60565186 89.65089417 C-54.46951773 95.59070122 -53.43308959 99.11705592 -50 104 C-47.91444964 105.90332221 -47.91444964 105.90332221 -46 107 C-46.33 106.01 -46.66 105.02 -47 104 C-46.6953125 101.58984375 -46.6953125 101.58984375 -46.125 98.9375 C-45.85042969 97.62072266 -45.85042969 97.62072266 -45.5703125 96.27734375 C-45 94 -45 94 -44 92 C-43.2575 91.566875 -42.515 91.13375 -41.75 90.6875 C-38.84034032 89.04893947 -38.84034032 89.04893947 -36.3125 86.3125 C-35.549375 85.549375 -34.78625 84.78625 -34 84 C-33.34 84 -32.68 84 -32 84 C-31.90203125 83.39027344 -31.8040625 82.78054687 -31.703125 82.15234375 C-30.84996712 79.54073269 -30.04173713 79.00230876 -27.75 77.5625 C-24.39455882 75.33476379 -21.75977094 72.92702978 -19 70 C-18 71 -18 71 -17.87974548 73.01844788 C-17.88196609 73.90447189 -17.88418671 74.79049591 -17.88647461 75.70336914 C-17.88658791 77.20481224 -17.88658791 77.20481224 -17.88670349 78.73658752 C-17.89186478 79.8251152 -17.89702606 80.91364288 -17.90234375 82.03515625 C-17.9037587 83.14354355 -17.90517365 84.25193085 -17.90663147 85.39390564 C-17.91224967 88.95013069 -17.92480525 92.50629383 -17.9375 96.0625 C-17.94251266 98.46679597 -17.94707597 100.87109292 -17.95117188 103.27539062 C-17.96222501 109.18361504 -17.97898083 115.0918031 -18 121 C-15.03 121.33 -12.06 121.66 -9 122 C-9 89.99 -9 57.98 -9 25 C-7.68 24.34 -6.36 23.68 -5 23 C-5 20.69 -5 18.38 -5 16 C-3.35 16 -1.7 16 0 16 C0 10.72 0 5.44 0 0 Z M-30 121 C-30 121.33 -30 121.66 -30 122 C-27.03 122 -24.06 122 -21 122 C-21 121.67 -21 121.34 -21 121 C-23.97 121 -26.94 121 -30 121 Z " fill="#000000" transform="translate(218,34)"/>
<path d="M0 0 C0.9796875 0.09023437 1.959375 0.18046875 2.96875 0.2734375 C5.5 0.625 5.5 0.625 7.5 1.625 C11.16579172 1.85922401 14.82532072 2.01860638 18.49609375 2.14257812 C22.34387923 2.31167649 25.9081364 2.63008025 29.63671875 3.625 C33.40632675 4.60075293 36.80798186 4.9851278 40.6875 5.1875 C45.81733117 5.46463531 50.49930832 6.16851885 55.49609375 7.30859375 C64.41940915 9.26341767 73.2332984 10.26857576 82.34936523 10.89038086 C83.71943726 10.99298218 83.71943726 10.99298218 85.1171875 11.09765625 C86.34864502 11.17898804 86.34864502 11.17898804 87.60498047 11.26196289 C88.23033691 11.38176514 88.85569336 11.50156738 89.5 11.625 C89.83 12.285 90.16 12.945 90.5 13.625 C91.0775 13.439375 91.655 13.25375 92.25 13.0625 C94.70692525 12.58476454 96.14397534 12.86770636 98.5 13.625 C98.5 14.285 98.5 14.945 98.5 15.625 C100.15 15.295 101.8 14.965 103.5 14.625 C103.5 15.285 103.5 15.945 103.5 16.625 C105.48 16.625 107.46 16.625 109.5 16.625 C109.5 17.285 109.5 17.945 109.5 18.625 C110.139375 18.8725 110.77875 19.12 111.4375 19.375 C113.5 20.625 113.5 20.625 114.25 22.75 C114.3325 23.36875 114.415 23.9875 114.5 24.625 C115.09296875 24.71910156 115.6859375 24.81320313 116.296875 24.91015625 C118.99142641 25.78445219 119.96322756 26.89220318 121.75 29.0625 C122.53117187 29.98869141 122.53117187 29.98869141 123.328125 30.93359375 C124.5 32.625 124.5 32.625 124.5 34.625 C125.16 34.625 125.82 34.625 126.5 34.625 C126.5 35.615 126.5 36.605 126.5 37.625 C127.16 37.625 127.82 37.625 128.5 37.625 C128.5 38.285 128.5 38.945 128.5 39.625 C129.16 39.625 129.82 39.625 130.5 39.625 C130.5 40.285 130.5 40.945 130.5 41.625 C131.16 41.625 131.82 41.625 132.5 41.625 C132.83 42.945 133.16 44.265 133.5 45.625 C134.16 45.625 134.82 45.625 135.5 45.625 C136.49 48.1 136.49 48.1 137.5 50.625 C135.19 51.285 132.88 51.945 130.5 52.625 C130.5 51.965 130.5 51.305 130.5 50.625 C129.4584375 50.70878906 128.416875 50.79257812 127.34375 50.87890625 C125.89587288 50.98232604 124.44795368 51.08515772 123 51.1875 C121.98486328 51.27161133 121.98486328 51.27161133 120.94921875 51.35742188 C116.08968583 51.68576869 111.38839523 51.51562518 106.53125 51.15625 C94.86996589 50.30807627 83.18462291 50.51842905 71.5 50.5625 C69.16406346 50.56752736 66.82812588 50.57208807 64.4921875 50.57617188 C58.82810162 50.58707421 53.16405588 50.60371345 47.5 50.625 C47.5 49.635 47.5 48.645 47.5 47.625 C46.84 47.625 46.18 47.625 45.5 47.625 C45.17 48.615 44.84 49.605 44.5 50.625 C35.63826035 51.08959606 35.63826035 51.08959606 31.4375 49.375 C29.31563062 47.45847282 28.79073322 46.43542113 28.5 43.625 C27.84 43.625 27.18 43.625 26.5 43.625 C24.5 41.625 24.5 41.625 22.625 39.1875 C20.67788919 36.63716437 20.67788919 36.63716437 18.5 35.125 C16.03042344 33.27281758 14.42390169 31.02987711 12.5 28.625 C11.7575 28.068125 11.015 27.51125 10.25 26.9375 C9.6725 26.504375 9.095 26.07125 8.5 25.625 C8.5 24.965 8.5 24.305 8.5 23.625 C7.015 23.13 7.015 23.13 5.5 22.625 C5.5 21.965 5.5 21.305 5.5 20.625 C4.84 20.625 4.18 20.625 3.5 20.625 C3.005 19.635 3.005 19.635 2.5 18.625 C1.51 17.965 0.52 17.305 -0.5 16.625 C-0.974375 15.92375 -1.44875 15.2225 -1.9375 14.5 C-2.7109375 13.571875 -2.7109375 13.571875 -3.5 12.625 C-4.82 12.625 -6.14 12.625 -7.5 12.625 C-7.005 13.615 -7.005 13.615 -6.5 14.625 C-5.84 14.295 -5.18 13.965 -4.5 13.625 C-5.05728913 16.96873475 -5.85173889 19.65812999 -7.5 22.625 C-8.16 22.625 -8.82 22.625 -9.5 22.625 C-9.995 24.11 -9.995 24.11 -10.5 25.625 C-11.49 25.955 -12.48 26.285 -13.5 26.625 C-13.78875 27.24375 -14.0775 27.8625 -14.375 28.5 C-15.5 30.625 -15.5 30.625 -17.875 32 C-21.13332333 34.0170573 -22.40920345 36.45508265 -24.5 39.625 C-25.83333333 40.29166667 -27.16666667 40.95833333 -28.5 41.625 C-29.11875 42.57375 -29.7375 43.5225 -30.375 44.5 C-32.71737399 47.94466764 -35.01265269 49.42645495 -38.5 51.625 C-39.16 52.615 -39.82 53.605 -40.5 54.625 C-43.83409693 56.88742291 -46.56922917 56.625 -50.5 56.625 C-51.16 57.285 -51.82 57.945 -52.5 58.625 C-55.1015625 58.8203125 -55.1015625 58.8203125 -58.125 58.75 C-59.12789063 58.73195313 -60.13078125 58.71390625 -61.1640625 58.6953125 C-62.32035156 58.66050781 -62.32035156 58.66050781 -63.5 58.625 C-63.17 57.635 -62.84 56.645 -62.5 55.625 C-61.84 55.625 -61.18 55.625 -60.5 55.625 C-60.4071875 54.75875 -60.4071875 54.75875 -60.3125 53.875 C-59.16615826 50.70051517 -57.24043158 49.49651425 -54.5 47.625 C-53.84 47.625 -53.18 47.625 -52.5 47.625 C-52.396875 46.985625 -52.29375 46.34625 -52.1875 45.6875 C-51.960625 45.006875 -51.73375 44.32625 -51.5 43.625 C-50.015 43.13 -50.015 43.13 -48.5 42.625 C-48.5 41.965 -48.5 41.305 -48.5 40.625 C-47.51 39.965 -46.52 39.305 -45.5 38.625 C-45.17 37.965 -44.84 37.305 -44.5 36.625 C-43.51 36.625 -42.52 36.625 -41.5 36.625 C-41.43039063 35.77228516 -41.43039063 35.77228516 -41.359375 34.90234375 C-40.10472349 31.57751724 -37.56076898 30.15645276 -34.75 28.1875 C-29.51258126 24.34952663 -24.77555304 20.22008993 -20.1875 15.625 C-19.61870117 15.06111572 -19.04990234 14.49723145 -18.46386719 13.91625977 C-15.47017851 11.25867323 -15.47017851 11.25867323 -14.5 7.625 C-13.51 7.295 -12.52 6.965 -11.5 6.625 C-10.13823419 4.64424973 -8.80406884 2.64420337 -7.5 0.625 C-4.80450572 -0.72274714 -2.98451765 -0.29059777 0 0 Z M-9.5 15.625 C-8.5 17.625 -8.5 17.625 -8.5 17.625 Z M-14.5 18.625 C-14.5 19.285 -14.5 19.945 -14.5 20.625 C-13.84 20.625 -13.18 20.625 -12.5 20.625 C-12.5 19.965 -12.5 19.305 -12.5 18.625 C-13.16 18.625 -13.82 18.625 -14.5 18.625 Z M-16.5 22.625 C-17.49 24.11 -17.49 24.11 -18.5 25.625 C-17.51 25.295 -16.52 24.965 -15.5 24.625 C-15.83 23.965 -16.16 23.305 -16.5 22.625 Z M40.5 43.625 C41.49 44.615 42.48 45.605 43.5 46.625 C43.17 45.635 42.84 44.645 42.5 43.625 C41.84 43.625 41.18 43.625 40.5 43.625 Z " fill="#000000" transform="translate(142.5,206.375)"/>
<path d="M0 0 C1.32 0.33 2.64 0.66 4 1 C4 7.6 4 14.2 4 21 C6.64 21 9.28 21 12 21 C13.66623578 22.66623578 13.16740691 24.68758912 13.20532227 26.97875977 C13.22526749 28.03978409 13.24521271 29.10080841 13.26576233 30.19398499 C13.28247482 31.348134 13.29918732 32.50228302 13.31640625 33.69140625 C13.33718735 34.86638168 13.35796844 36.04135712 13.37937927 37.25193787 C13.44500124 41.02206324 13.5038183 44.79226082 13.5625 48.5625 C13.6056732 51.11133573 13.64928708 53.66016403 13.69335938 56.20898438 C13.80069549 62.4725814 13.90192691 68.73625136 14 75 C19.61 75.33 25.22 75.66 31 76 C32.15178569 78.30357138 32.12807164 79.60628369 32.13371277 82.16856384 C32.13797775 83.04204971 32.14224274 83.91553558 32.14663696 84.81549072 C32.14618378 85.77606384 32.14573059 86.73663696 32.14526367 87.72631836 C32.14862228 88.73616287 32.1519809 89.74600739 32.15544128 90.78645325 C32.16497051 94.13759579 32.16689535 97.48868848 32.16796875 100.83984375 C32.17117982 103.16150432 32.17454378 105.48316469 32.17805481 107.80482483 C32.18405092 112.67644724 32.1858942 117.54805189 32.18530273 122.41967773 C32.18520105 128.67232581 32.19885728 134.92486048 32.21607494 141.17748165 C32.22717481 145.97376532 32.22922257 150.7700214 32.22869301 155.5663166 C32.22987602 157.87206984 32.23431563 160.17782373 32.24202538 162.48356438 C32.25178517 165.7038869 32.24896313 168.92396087 32.24291992 172.14428711 C32.24853943 173.102836 32.25415894 174.06138489 32.25994873 175.04898071 C32.25575424 175.92528641 32.25155975 176.8015921 32.24723816 177.70445251 C32.24778293 178.46602126 32.24832769 179.22759001 32.24888897 180.0122366 C32 182 32 182 30 185 C29.67 184.34 29.34 183.68 29 183 C28.01 182.67 27.02 182.34 26 182 C26 181.34 26 180.68 26 180 C25.34 180 24.68 180 24 180 C24 179.34 24 178.68 24 178 C23.34 178 22.68 178 22 178 C22 177.01 22 176.02 22 175 C21.29875 174.814375 20.5975 174.62875 19.875 174.4375 C16.46660938 172.73330469 14.84416858 170.72864125 12.4765625 167.80859375 C9.85561985 164.59828569 7.03457038 161.75495677 3.6875 159.3125 C3.130625 158.879375 2.57375 158.44625 2 158 C2 157.34 2 156.68 2 156 C1.36191406 156.15597656 0.72382813 156.31195313 0.06640625 156.47265625 C-1.17302734 156.76462891 -1.17302734 156.76462891 -2.4375 157.0625 C-3.26121094 157.25972656 -4.08492188 157.45695313 -4.93359375 157.66015625 C-5.95646484 157.82837891 -5.95646484 157.82837891 -7 158 C-8.7110504 156.2889496 -8.14315722 154.05544259 -8.15821838 151.71665955 C-8.1680072 150.57095993 -8.17779602 149.42526031 -8.18788147 148.24484253 C-8.19363693 146.97673737 -8.1993924 145.7086322 -8.20532227 144.40209961 C-8.21489566 143.06206456 -8.22490542 141.72203256 -8.23532104 140.38200378 C-8.26243458 136.73343851 -8.2834091 133.08486021 -8.30332303 129.43624949 C-8.32514295 125.62719884 -8.35255111 121.81818861 -8.37937927 118.00917053 C-8.42936034 110.79145178 -8.47427901 103.57371066 -8.51740164 96.35594803 C-8.56672785 88.14081872 -8.62166304 79.92572996 -8.67708123 71.71063983 C-8.79098435 54.80713068 -8.89780515 37.90358391 -9 21 C-7 20 -7 20 0 21 C0 14.07 0 7.14 0 0 Z " fill="#000000" transform="translate(316,57)"/>
<path d="M0 0 C0.97448593 -0.00315216 1.94897186 -0.00630432 2.95298767 -0.009552 C4.01336746 -0.00752777 5.07374725 -0.00550354 6.16625977 -0.00341797 C7.24770767 -0.00437469 8.32915558 -0.00533142 9.44337463 -0.00631714 C11.73585061 -0.00699918 14.02832849 -0.00514324 16.32080078 -0.00097656 C19.83899257 0.00436617 23.35705638 -0.00091811 26.87524414 -0.00732422 C29.09724963 -0.00666334 31.31925504 -0.00538198 33.54125977 -0.00341797 C35.12879311 -0.00645432 35.12879311 -0.00645432 36.74839783 -0.009552 C37.72603592 -0.00639984 38.70367401 -0.00324768 39.7109375 0 C40.57395981 0.00079559 41.43698212 0.00159119 42.32615662 0.00241089 C44.42016602 0.12939453 44.42016602 0.12939453 46.42016602 1.12939453 C48.17607479 1.24870501 49.93631208 1.30659321 51.69604492 1.3347168 C52.79703522 1.35466202 53.89802551 1.37460724 55.03237915 1.39515686 C56.22511444 1.41186935 57.41784973 1.42858185 58.64672852 1.44580078 C59.86468109 1.46658188 61.08263367 1.48736298 62.3374939 1.5087738 C66.23999222 1.57432037 70.14255952 1.63317809 74.04516602 1.69189453 C76.68579824 1.73507488 79.32642341 1.77868901 81.96704102 1.82275391 C88.45134244 1.93000697 94.93571296 2.03176383 101.42016602 2.12939453 C101.42016602 2.78939453 101.42016602 3.44939453 101.42016602 4.12939453 C102.29157227 4.11779297 103.16297852 4.10619141 104.06079102 4.09423828 C111.9092004 4.03478063 119.61258951 4.32861745 127.42016602 5.12939453 C127.42016602 5.78939453 127.42016602 6.44939453 127.42016602 7.12939453 C128.28899414 7.10619141 129.15782227 7.08298828 130.05297852 7.05908203 C131.20540039 7.04103516 132.35782227 7.02298828 133.54516602 7.00439453 C135.2505957 6.96958984 135.2505957 6.96958984 136.99047852 6.93408203 C140.50678337 7.13432718 143.11261062 7.97855852 146.42016602 9.12939453 C148.39312132 9.35814297 150.37423224 9.52514046 152.35766602 9.62939453 C156.9896278 9.95374566 160.97194267 10.75448913 165.42016602 12.12939453 C171.86912632 13.56674519 171.86912632 13.56674519 178.42016602 14.12939453 C178.42016602 14.78939453 178.42016602 15.44939453 178.42016602 16.12939453 C181.39016602 16.12939453 184.36016602 16.12939453 187.42016602 16.12939453 C187.42016602 16.78939453 187.42016602 17.44939453 187.42016602 18.12939453 C190.39016602 18.45939453 193.36016602 18.78939453 196.42016602 19.12939453 C196.42016602 19.78939453 196.42016602 20.44939453 196.42016602 21.12939453 C195.12723633 21.05720703 193.83430664 20.98501953 192.50219727 20.91064453 C183.63785743 20.43259847 174.83056861 20.004965 165.95141602 20.19189453 C163.42016602 20.12939453 163.42016602 20.12939453 161.50341797 19.62939453 C157.4185128 18.64897899 153.06789124 19.09497442 148.88305664 19.16845703 C148.15666992 19.17619141 147.4302832 19.18392578 146.68188477 19.19189453 C145.70674927 19.20929688 145.70674927 19.20929688 144.71191406 19.22705078 C142.42016602 19.12939453 142.42016602 19.12939453 139.33251953 18.62939453 C134.38246754 17.99677634 129.54453609 18.02480226 124.56079102 18.06689453 C123.02149933 18.07257446 123.02149933 18.07257446 121.45111084 18.07836914 C118.19075211 18.09053211 114.9304841 18.10917103 111.67016602 18.12939453 C107.36287685 18.15593982 103.05563093 18.17594111 98.74829102 18.19189453 C97.26235443 18.20434204 97.26235443 18.20434204 95.74639893 18.21704102 C94.82824402 18.22034424 93.91008911 18.22364746 92.96411133 18.22705078 C91.7533493 18.23490601 91.7533493 18.23490601 90.51812744 18.24291992 C88.42016602 18.12939453 88.42016602 18.12939453 85.42016602 17.12939453 C83.90108978 17.04269924 82.378476 17.01170053 80.85693359 17.01586914 C79.9362056 17.01594467 79.0154776 17.0160202 78.06684875 17.01609802 C77.07613876 17.02125931 76.08542877 17.02642059 75.06469727 17.03173828 C74.04792404 17.03315323 73.03115082 17.03456818 71.98356628 17.036026 C68.73323638 17.04162746 65.48297513 17.05418021 62.23266602 17.06689453 C60.03019305 17.07190934 57.82771901 17.07647228 55.62524414 17.08056641 C50.22352797 17.09159736 44.8218519 17.10833691 39.42016602 17.12939453 C39.42016602 16.46939453 39.42016602 15.80939453 39.42016602 15.12939453 C29.31924455 15.23691708 19.21839435 15.34955487 9.1176033 15.46873379 C4.42746563 15.5239116 -0.26267834 15.57732339 -4.95288086 15.62670898 C-9.47868499 15.67442836 -14.00441407 15.72677392 -18.53012848 15.78233528 C-20.25727725 15.80272452 -21.98444657 15.82144323 -23.71163177 15.83846855 C-26.12968881 15.86258857 -28.54760478 15.89263266 -30.96557617 15.92407227 C-32.03804092 15.93270546 -32.03804092 15.93270546 -33.13217163 15.94151306 C-36.44359835 15.99049285 -39.39478759 16.23727577 -42.57983398 17.12939453 C-45.41428132 17.20240026 -48.22293384 17.22126244 -51.05639648 17.19189453 C-52.83699468 17.18319243 -54.61759369 17.17465555 -56.39819336 17.16625977 C-57.34331787 17.16004608 -58.28844238 17.1538324 -59.26220703 17.14743042 C-77.87305359 17.0333612 -96.47251789 17.20306718 -115.07983398 17.56689453 C-116.17499329 17.5866333 -117.27015259 17.60637207 -118.39849854 17.62670898 C-121.51115556 17.68366177 -124.62360454 17.74710666 -127.73608398 17.81298828 C-129.12378494 17.83805702 -129.12378494 17.83805702 -130.53952026 17.8636322 C-134.68496194 17.96011089 -138.52404783 18.19289896 -142.57983398 19.12939453 C-144.99609019 19.17393382 -147.41348415 19.1685257 -149.82983398 19.12939453 C-155.70791576 19.06926769 -161.52706864 19.23987078 -167.39233398 19.62939453 C-173.79775307 20.05476864 -180.16031503 20.25418 -186.57983398 20.12939453 C-183.32945906 16.87901961 -178.95500568 16.80752682 -174.54858398 15.91064453 C-171.48573307 15.37120764 -171.48573307 15.37120764 -169.57983398 13.12939453 C-169.57983398 13.78939453 -169.57983398 14.44939453 -169.57983398 15.12939453 C-168.7406543 14.83935547 -168.7406543 14.83935547 -167.88452148 14.54345703 C-161.53847982 12.48252389 -155.2961652 11.39509493 -148.68139648 10.55908203 C-145.72107803 10.21034477 -145.72107803 10.21034477 -143.44702148 9.57470703 C-140.56190562 8.886625 -137.74682349 9.11112085 -134.79858398 9.19189453 C-132.55780645 9.12877404 -130.74103502 8.69572081 -128.57983398 8.12939453 C-126.93680482 7.9370399 -125.29046053 7.77160576 -123.64233398 7.62939453 C-120.97385212 7.3875146 -118.50481219 7.1119476 -115.89233398 6.50439453 C-112.66039838 5.98029687 -109.7813286 6.56442489 -106.57983398 7.12939453 C-106.24983398 6.46939453 -105.91983398 5.80939453 -105.57983398 5.12939453 C-98.97983398 5.12939453 -92.37983398 5.12939453 -85.57983398 5.12939453 C-85.24983398 4.46939453 -84.91983398 3.80939453 -84.57983398 3.12939453 C-83.92821289 3.14099609 -83.2765918 3.15259766 -82.60522461 3.16455078 C-73.90802021 3.24743769 -65.27860662 2.77838485 -56.60113525 2.27462769 C-42.26329543 1.44873285 -28.00869168 0.91873411 -13.64428711 1.11572266 C-12.5840332 1.12925781 -11.5237793 1.14279297 -10.43139648 1.15673828 C-9.51181152 1.17470459 -8.59222656 1.1926709 -7.64477539 1.21118164 C-4.8457432 1.10031905 -3.14834114 0.00290504 0 0 Z " fill="#000000" transform="translate(216.579833984375,259.87060546875)"/>
<path d="M0 0 C2.62434749 0.1679836 5.14859394 0.45733038 7.75 0.8125 C17.41071248 1.93940481 27.03658048 2.29633828 36.75 2.5 C48.16519077 2.74069095 59.57186234 3.03876824 70.98046875 3.50390625 C103.6713711 4.82334973 136.28341788 5.25731225 169 5 C169 5.66 169 6.32 169 7 C170.18021729 6.96241577 170.18021729 6.96241577 171.38427734 6.92407227 C187.02135013 6.43631239 202.65768862 6.01885591 218.30078125 5.78125 C219.45980957 5.76360092 220.61883789 5.74595184 221.81298828 5.72776794 C224.21282931 5.69136727 226.61267062 5.65498551 229.01251221 5.61862183 C252.57093656 5.25885416 276.10393871 4.61352739 299.6484375 3.73291016 C314.16017458 3.19185468 328.66904498 2.75003783 343.1875 2.4375 C356.80287736 2.14408027 370.40040491 1.74845547 384 1 C384 1.66 384 2.32 384 3 C382.96552734 3.05607422 382.96552734 3.05607422 381.91015625 3.11328125 C376.48133197 3.49307554 371.80936255 4.24256997 366.7109375 6.1015625 C357.47028089 9.16402795 347.77162793 11.71066385 338 11 C337.67 11.66 337.34 12.32 337 13 C336.319375 12.95875 335.63875 12.9175 334.9375 12.875 C332.09684342 12.995879 329.86400415 13.64643011 327.171875 14.4921875 C323.36068182 15.38329382 319.47204969 15.51426545 315.57421875 15.75390625 C313.01450486 15.84272037 313.01450486 15.84272037 311 17 C309 17 307 17 305 17 C304.34 17.33 303.68 17.66 303 18 C300.33333333 18 297.66666667 18 295 18 C294.34 18.33 293.68 18.66 293 19 C291.40321678 19.01610171 289.8054601 18.96535627 288.2109375 18.87890625 C287.26992188 18.83056641 286.32890625 18.78222656 285.359375 18.73242188 C284.37453125 18.67634766 283.3896875 18.62027344 282.375 18.5625 C281.38242187 18.51029297 280.38984375 18.45808594 279.3671875 18.40429688 C276.91115432 18.27441051 274.4555064 18.13943836 272 18 C271.67 18.66 271.34 19.32 271 20 C256.77697344 20.02354063 242.55394998 20.04101485 228.33090782 20.05181217 C221.72434176 20.05699816 215.11778892 20.06401654 208.51123047 20.07543945 C202.11804706 20.0864224 195.72487624 20.09230897 189.33168411 20.09487724 C186.9104556 20.09670406 184.48922766 20.10027025 182.06800461 20.10573006 C168.5794809 20.13489589 155.15064684 19.94537653 141.68016052 19.22142029 C135.01548181 18.87438841 128.35967504 18.9249896 121.6875 19 C119.2747826 19.02533037 116.86201555 19.04642362 114.44921875 19.0625 C112.90754028 19.07990234 112.90754028 19.07990234 111.3347168 19.09765625 C109 19 109 19 108 18 C105.66713319 17.95334266 103.33302989 17.96237049 101 18 C98.66697011 18.03762951 96.33286681 18.04665734 94 18 C93.67 17.67 93.34 17.34 93 17 C91.48071962 16.92820036 89.95832518 16.91607993 88.4375 16.9375 C87.61121094 16.94652344 86.78492187 16.95554687 85.93359375 16.96484375 C85.29550781 16.97644531 84.65742187 16.98804688 84 17 C84 16.34 84 15.68 84 15 C82.71029297 15.01740234 82.71029297 15.01740234 81.39453125 15.03515625 C73.2074948 15.09765271 65.15135917 14.75826597 57 14 C57 13.34 57 12.68 57 12 C55.85402344 12.01160156 54.70804688 12.02320313 53.52734375 12.03515625 C51.99739748 12.04454242 50.46744942 12.05364173 48.9375 12.0625 C48.18533203 12.07087891 47.43316406 12.07925781 46.65820312 12.08789062 C42.00632375 12.10802863 37.60296752 11.77196201 33 11 C32.05125 10.855625 31.1025 10.71125 30.125 10.5625 C29.42375 10.376875 28.7225 10.19125 28 10 C27.67 9.34 27.34 8.68 27 8 C24.68166208 7.64320854 24.68166208 7.64320854 21.9375 7.5625 C17.52795709 7.24428556 14.10095894 6.48005847 10.05859375 4.765625 C6.17431363 3.3209971 2.07199756 2.70926187 -2 2 C-1.34 1.34 -0.68 0.68 0 0 Z " fill="#000000" transform="translate(13,380)"/>
<path d="M0 0 C1.65 0 3.3 0 5 0 C5 0.66 5 1.32 5 2 C5.5775 2.28875 6.155 2.5775 6.75 2.875 C8.83333333 3.91666667 10.91666667 4.95833333 13 6 C13 6.99 13 7.98 13 9 C13.66 9 14.32 9 15 9 C15 9.99 15 10.98 15 12 C15.99 11.67 16.98 11.34 18 11 C18 11.66 18 12.32 18 13 C18.66 13 19.32 13 20 13 C22.6226227 15.35363576 24.71520675 17.5134782 26.5 20.5625 C27.92509538 23.19045466 27.92509538 23.19045466 30.6875 25.125 C31.450625 25.74375 32.21375 26.3625 33 27 C33 27.99 33 28.98 33 30 C33.99 30.33 34.98 30.66 36 31 C36 31.66 36 32.32 36 33 C36.99 33.33 37.98 33.66 39 34 C39 34.66 39 35.32 39 36 C39.66 36 40.32 36 41 36 C41 36.66 41 37.32 41 38 C41.66 38 42.32 38 43 38 C44.66666667 40 46.33333333 42 48 44 C48.66 44 49.32 44 50 44 C50 44.99 50 45.98 50 47 C50.99 47 51.98 47 53 47 C53 47.99 53 48.98 53 50 C45.81991395 51.33866011 45.81991395 51.33866011 42.125 49.8125 C39.97192355 47.97605244 38.99543855 46.624338 38 44 C37.34 44 36.68 44 36 44 C36.495 44.61875 36.99 45.2375 37.5 45.875 C39 48 39 48 39 50 C39.66 50.33 40.32 50.66 41 51 C40.01 51.33 39.02 51.66 38 52 C33.68220851 49.55950916 30.40211615 46.57658365 27 43 C26.071875 42.113125 25.14375 41.22625 24.1875 40.3125 C22 38 22 38 22 36 C21.34 36 20.68 36 20 36 C20 35.34 20 34.68 20 34 C18.02 33.505 18.02 33.505 16 33 C15.67 31.35 15.34 29.7 15 28 C14.08927734 27.86078125 14.08927734 27.86078125 13.16015625 27.71875 C10.47764229 26.82619563 9.90773823 25.86790844 8.4375 23.5 C6.50827777 20.37762624 6.50827777 20.37762624 3 19 C3 17.02 3 15.04 3 13 C3.99 13.33 4.98 13.66 6 14 C6 13.34 6 12.68 6 12 C4.02 12.33 2.04 12.66 0 13 C-0.0825 13.598125 -0.165 14.19625 -0.25 14.8125 C-1.21576779 17.62932273 -2.48868567 18.47799132 -5 20 C-5.66 20 -6.32 20 -7 20 C-6.505 21.485 -6.505 21.485 -6 23 C-6.9075 23.7425 -7.815 24.485 -8.75 25.25 C-13.51421702 29.08522219 -13.51421702 29.08522219 -17 34 C-19.5625 34.625 -19.5625 34.625 -22 35 C-22.0825 35.598125 -22.165 36.19625 -22.25 36.8125 C-23.21576779 39.62932273 -24.48868567 40.47799132 -27 42 C-27.66 42 -28.32 42 -29 42 C-29.20625 42.804375 -29.4125 43.60875 -29.625 44.4375 C-31 47 -31 47 -33.75 48 C-37 48 -37 48 -39.6875 46.5625 C-44.43048201 44.32524433 -48.84020567 44.75210952 -54 45 C-54 44.34 -54 43.68 -54 43 C-54.9075 43.185625 -55.815 43.37125 -56.75 43.5625 C-59.8916123 43.98540935 -61.06010158 43.76298634 -64 43 C-66.87644873 42.70706604 -69.75341335 42.49511106 -72.63671875 42.28125 C-75 42 -75 42 -76 41 C-77.99958364 40.95919217 -80.00045254 40.95745644 -82 41 C-82 40.34 -82 39.68 -82 39 C-82.804375 39.185625 -83.60875 39.37125 -84.4375 39.5625 C-85.283125 39.706875 -86.12875 39.85125 -87 40 C-87.33 39.67 -87.66 39.34 -88 39 C-90.32817964 38.63239269 -92.6618385 38.29758419 -95 38 C-92.06132624 34.51150985 -89.30222392 34.29937459 -84.9609375 33.625 C-84.31382812 33.41875 -83.66671875 33.2125 -83 33 C-82.67 32.01 -82.34 31.02 -82 30 C-81.030625 29.87625 -80.06125 29.7525 -79.0625 29.625 C-78.051875 29.41875 -77.04125 29.2125 -76 29 C-75.67 28.34 -75.34 27.68 -75 27 C-72.97456444 26.74280183 -70.94649776 26.49157878 -68.91015625 26.34375 C-66.76477844 26.14523788 -66.76477844 26.14523788 -65 24 C-62.06636562 22.89173812 -59.27628495 22.04911732 -56.1875 21.5 C-55.465625 21.335 -54.74375 21.17 -54 21 C-53.67 20.34 -53.34 19.68 -53 19 C-51.07421875 18.4375 -51.07421875 18.4375 -48.6875 18 C-45.44750676 17.4001996 -42.90017786 16.56536797 -40 15 C-37.03529069 13.6984203 -35.26618965 13 -32 13 C-31.67 12.34 -31.34 11.68 -31 11 C-28.67711188 10.60689586 -26.38154824 10.49250305 -24.03125 10.34375 C-23.3609375 10.2303125 -22.690625 10.116875 -22 10 C-21.67 9.34 -21.34 8.68 -21 8 C-15.41754933 5.4155321 -11.15051613 3.86332186 -5 4 C-4.67 3.34 -4.34 2.68 -4 2 C-2.68 2 -1.36 2 0 2 C0 1.34 0 0.68 0 0 Z M6 14 C6.70339566 16.50965614 6.70339566 16.50965614 8 19 C10.04105639 19.88693303 10.04105639 19.88693303 12 20 C12 20.66 12 21.32 12 22 C12.66 22 13.32 22 14 22 C14.66 23.65 15.32 25.3 16 27 C16.66 27 17.32 27 18 27 C17.67 25.68 17.34 24.36 17 23 C16.34 23 15.68 23 15 23 C14.814375 22.443125 14.62875 21.88625 14.4375 21.3125 C12.33639286 17.93245808 9.29334006 16.14859619 6 14 Z M19 26 C19 26.99 19 27.98 19 29 C19.99 29 20.98 29 22 29 C21.16666667 26.83333333 21.16666667 26.83333333 19 26 Z M23 31 C24.04874998 33.62187494 24.64931313 34.79371361 27.125 36.25 C27.74375 36.4975 28.3625 36.745 29 37 C28.67 36.01 28.34 35.02 28 34 C27.34 34 26.68 34 26 34 C26 33.34 26 32.68 26 32 C25.01 31.67 24.02 31.34 23 31 Z M30 38 C30.33 39.32 30.66 40.64 31 42 C31.66 42 32.32 42 33 42 C32.34 40.68 31.68 39.36 31 38 C30.67 38 30.34 38 30 38 Z M-42 42 C-42.33 42.66 -42.66 43.32 -43 44 C-41.68 43.67 -40.36 43.34 -39 43 C-39.99 42.67 -40.98 42.34 -42 42 Z M33 42 C33.33 42.66 33.66 43.32 34 44 C34.66 43.67 35.32 43.34 36 43 C35.01 42.67 34.02 42.34 33 42 Z " fill="#010101" transform="translate(248,167)"/>
<path d="M0 0 C0 0.66 0 1.32 0 2 C0.99 2 1.98 2 3 2 C6.63489427 8.13388408 7.98860015 12.86540375 7 20 C5.75 23.5625 5.75 23.5625 4 26 C1.890625 26.65234375 1.890625 26.65234375 0 27 C0.28020672 33.30465122 1.32997177 36.75710252 5 42 C9.35638629 51.93084112 9.35638629 51.93084112 8 56 C1.4 55.67 -5.2 55.34 -12 55 C-14.93090724 48.16121643 -16.43644299 42.22214426 -18 35 C-18.33 41.6 -18.66 48.2 -19 55 C-25.27 55 -31.54 55 -38 55 C-38.16776972 47.82851033 -38.32831368 40.65690894 -38.48217773 33.48510742 C-38.5355311 31.04561007 -38.59085513 28.60615499 -38.64819336 26.16674805 C-38.73029004 22.65943515 -38.80528742 19.15203108 -38.87890625 15.64453125 C-38.91945885 14.00989677 -38.91945885 14.00989677 -38.96083069 12.34223938 C-38.98092697 11.32155869 -39.00102325 10.30087799 -39.02172852 9.24926758 C-39.04171402 8.35436111 -39.06169952 7.45945465 -39.08229065 6.53742981 C-38.99750036 3.9229238 -38.58446062 1.54571867 -38 -1 C-33.50040757 -1.19827341 -29.00032507 -1.38168337 -24.5 -1.5625 C-23.2315625 -1.61857422 -21.963125 -1.67464844 -20.65625 -1.73242188 C-4.71059783 -2.35529891 -4.71059783 -2.35529891 0 0 Z M-19 6 C-19 11.94 -19 17.88 -19 24 C-17.68 24 -16.36 24 -15 24 C-12.9911417 19.85672976 -12.59784066 16.58461644 -13 12 C-14.38214122 8.64838754 -14.38214122 8.64838754 -16 6 C-16.99 6 -17.98 6 -19 6 Z " fill="#000000" transform="translate(331,290)"/>
<path d="M0 0 C2.41564046 3.62346069 2.29781669 6.31603982 2.25 10.5 C2.26160156 11.51513672 2.26160156 11.51513672 2.2734375 12.55078125 C2.25884811 16.24919257 2.10264442 17.84603337 0 21 C-0.99 21.66 -1.98 22.32 -3 23 C-3 23.66 -3 24.32 -3 25 C-2.01 25 -1.02 25 0 25 C3.89732361 30.1246058 4.39882902 35.71640808 4 42 C2.4594749 46.45829384 0.43716212 49.1344441 -3.60571289 51.56933594 C-7.49445978 53.20841072 -10.87436378 53.47452113 -15.0234375 53.51171875 C-15.76961334 53.52966995 -16.51578918 53.54762115 -17.28457642 53.56611633 C-19.6479949 53.61993105 -22.01121486 53.65402067 -24.375 53.6875 C-25.98570454 53.72069872 -27.59638298 53.75519072 -29.20703125 53.79101562 C-33.13787687 53.87564018 -37.06866659 53.94258743 -41 54 C-41.1536152 46.71589121 -41.30179684 39.43169354 -41.4429636 32.14733219 C-41.50867923 28.76523329 -41.57629498 25.38319426 -41.64819336 22.0012207 C-41.73069127 18.11680222 -41.8050324 14.23224873 -41.87890625 10.34765625 C-41.90594131 9.12788589 -41.93297638 7.90811554 -41.96083069 6.65138245 C-41.99097511 4.96975258 -41.99097511 4.96975258 -42.02172852 3.25415039 C-42.04171402 2.26153702 -42.06169952 1.26892365 -42.08229065 0.24623108 C-42 -2 -42 -2 -41 -3 C-38.56312571 -3.20970757 -36.15310848 -3.35730913 -33.7109375 -3.45703125 C-32.97428864 -3.48729904 -32.23763977 -3.51756683 -31.47866821 -3.54875183 C-29.91346512 -3.60966115 -28.3481382 -3.66745405 -26.78271484 -3.72241211 C-25.18793695 -3.78208287 -23.59347522 -3.85097383 -21.99951172 -3.92944336 C-19.69531375 -4.04280779 -17.39153621 -4.12788645 -15.0859375 -4.20703125 C-14.38149506 -4.24641312 -13.67705261 -4.28579498 -12.95126343 -4.32637024 C-7.38779774 -4.46686598 -4.44391054 -3.09766092 0 0 Z M-21 5 C-22.44207941 7.88415883 -22.09394887 10.41721528 -22.0625 13.625 C-22.05347656 14.81351562 -22.04445312 16.00203125 -22.03515625 17.2265625 C-22.02355469 18.14179688 -22.01195312 19.05703125 -22 20 C-21.01 20.33 -20.02 20.66 -19 21 C-16.33121938 18.33121938 -16.02914822 17.51495189 -15.8125 13.6875 C-15.98778717 10.24018571 -16.51162622 8.06977092 -18 5 C-18.99 5 -19.98 5 -21 5 Z M-21 29 C-22.03590199 34.05002222 -22.10251672 38.87416389 -22 44 C-21.01 44.33 -20.02 44.66 -19 45 C-16.82920916 44.19895527 -16.82920916 44.19895527 -16.296875 42.109375 C-15.44663008 38.44117551 -14.84828315 35.72824089 -15.625 32 C-16.83697863 29.83201179 -16.83697863 29.83201179 -19.125 29.1875 C-19.74375 29.125625 -20.3625 29.06375 -21 29 Z " fill="#000000" transform="translate(231,292)"/>
<path d="M0 0 C0.99 0 1.98 0 3 0 C4.18637743 3.55913229 4.14615346 6.798145 4.125 10.5 C4.12886719 11.17675781 4.13273437 11.85351562 4.13671875 12.55078125 C4.13062416 15.64073767 3.9844023 18.04679311 3 21 C3.99 20.67 4.98 20.34 6 20 C8 21 8 21 9.125 23.125 C10.15945114 26.52391089 10.1385722 29.46640886 10 33 C12.97065509 32.65772428 12.97065509 32.65772428 16 32 C16.33 31.34 16.66 30.68 17 30 C18.7325 29.5359375 18.7325 29.5359375 20.5 29.0625 C21.655 28.711875 22.81 28.36125 24 28 C24.495 26.515 24.495 26.515 25 25 C26.485 25.495 26.485 25.495 28 26 C28.33 25.34 28.66 24.68 29 24 C31.28515625 22.9296875 31.28515625 22.9296875 34.0625 21.875 C35.44115234 21.34519531 35.44115234 21.34519531 36.84765625 20.8046875 C37.55792969 20.53914063 38.26820313 20.27359375 39 20 C39.495 21.485 39.495 21.485 40 23 C40.66 23 41.32 23 42 23 C42.495 24.485 42.495 24.485 43 26 C42.67 26.66 42.34 27.32 42 28 C41.34 28 40.68 28 40 28 C40 31.63 40 35.26 40 39 C40.66 39 41.32 39 42 39 C43.87101889 47.30052015 43.87101889 47.30052015 41.80078125 51.33984375 C40.27979885 53.31748915 38.68059839 55.15772379 37 57 C36.34 57.99 35.68 58.98 35 60 C34.34 60 33.68 60 33 60 C33.495 62.475 33.495 62.475 34 65 C35.32 65 36.64 65 38 65 C38.99 64.01 38.99 64.01 40 63 C40 64.65 40 66.3 40 68 C37.29120665 69.35439668 34.99066732 69.06501451 32 69 C28.81666667 62.63333333 28.81666667 62.63333333 29.6875 59.625 C31 58 31 58 33 57 C33 56.01 33 55.02 33 54 C32.360625 53.855625 31.72125 53.71125 31.0625 53.5625 C29 53 29 53 28 52 C27.90176004 50.52351124 27.87026481 49.04224583 27.875 47.5625 C27.87242187 46.75941406 27.86984375 45.95632812 27.8671875 45.12890625 C28 43 28 43 29 41 C29.66 41 30.32 41 31 41 C30.505 37.04 30.505 37.04 30 33 C28.68 33.33 27.36 33.66 26 34 C26 34.66 26 35.32 26 36 C23.35261084 37.4606285 22.10551666 38 19 38 C18.505 38.99 18.505 38.99 18 40 C16.15234375 40.6328125 16.15234375 40.6328125 13.9375 41.125 C12.83728516 41.37636719 12.83728516 41.37636719 11.71484375 41.6328125 C11.14894531 41.75398438 10.58304687 41.87515625 10 42 C10 42.66 10 43.32 10 44 C9.13117188 44.31453125 8.26234375 44.6290625 7.3671875 44.953125 C0.34772323 47.49006712 0.34772323 47.49006712 -6.125 51.125 C-10.3962432 53.91059339 -15.07367295 54.84292674 -20 56 C-20 56.66 -20 57.32 -20 58 C-22.31 58.66 -24.62 59.32 -27 60 C-27 60.66 -27 61.32 -27 62 C-30.63 62.99 -34.26 63.98 -38 65 C-38 65.66 -38 66.32 -38 67 C-44.5 70 -44.5 70 -49 70 C-49 70.66 -49 71.32 -49 72 C-50.0725 72.4125 -51.145 72.825 -52.25 73.25 C-56.62070063 75.13574584 -59.13069992 77.41258246 -61.4375 81.625 C-63.38532555 84.58569484 -64.66622834 84.92017863 -68 86 C-70.859375 86.44921875 -70.859375 86.44921875 -73.75 86.6875 C-74.71421875 86.77386719 -75.6784375 86.86023438 -76.671875 86.94921875 C-77.44015625 86.96597656 -78.2084375 86.98273438 -79 87 C-81.45575575 84.54424425 -80.99724525 79.13808186 -81.0625 75.8671875 C-81.0625 72.91078895 -81.04368552 69.95605356 -81 67 C-76.34957316 64.67478658 -73.68922129 63.88539979 -68.375 63.9375 C-67.18648437 63.94652344 -65.99796875 63.95554688 -64.7734375 63.96484375 C-63.85820313 63.97644531 -62.94296875 63.98804688 -62 64 C-61.67 64.99 -61.34 65.98 -61 67 C-60.34 67.33 -59.68 67.66 -59 68 C-58.505 66.515 -58.505 66.515 -58 65 C-57.505 65.495 -57.505 65.495 -57 66 C-56.91363281 65.04738281 -56.82726562 64.09476562 -56.73828125 63.11328125 C-56.59777344 61.85902344 -56.45726563 60.60476562 -56.3125 59.3125 C-56.18488281 58.07113281 -56.05726562 56.82976562 -55.92578125 55.55078125 C-54.83214938 51.35621849 -53.34593445 49.68805486 -50 47 C-49.34 47 -48.68 47 -48 47 C-47.505 53.93 -47.505 53.93 -47 61 C-46.34 60.67 -45.68 60.34 -45 60 C-44.01 60.495 -44.01 60.495 -43 61 C-43.04125 59.88625 -43.0825 58.7725 -43.125 57.625 C-43 54 -43 54 -41 52 C-40.01 52.495 -40.01 52.495 -39 53 C-38.67 53.99 -38.34 54.98 -38 56 C-34.9254644 55.2236068 -34.9254644 55.2236068 -33 53 C-32.21625 52.855625 -31.4325 52.71125 -30.625 52.5625 C-27.68300964 51.93207349 -26.3477441 50.81760834 -24 49 C-21.8125 48.375 -21.8125 48.375 -20 48 C-19.67 47.67 -19.34 47.34 -19 47 C-17.33382885 46.95936168 -15.66611905 46.957279 -14 47 C-14 46.34 -14 45.68 -14 45 C-13.34 45 -12.68 45 -12 45 C-11.67 43.68 -11.34 42.36 -11 41 C-10.34 41 -9.68 41 -9 41 C-9.05220703 39.46279297 -9.05220703 39.46279297 -9.10546875 37.89453125 C-9.13362035 36.53387064 -9.16091904 35.1731922 -9.1875 33.8125 C-9.21263672 33.13896484 -9.23777344 32.46542969 -9.26367188 31.77148438 C-9.32860336 27.33449947 -8.94774578 24.39534276 -6 21 C-3.3125 20.1875 -3.3125 20.1875 -1 20 C-1.00523682 19.42967041 -1.01047363 18.85934082 -1.01586914 18.27172852 C-1.03658221 15.70199677 -1.0496419 13.13228253 -1.0625 10.5625 C-1.07087891 9.66466797 -1.07925781 8.76683594 -1.08789062 7.84179688 C-1.09111328 6.98779297 -1.09433594 6.13378906 -1.09765625 5.25390625 C-1.10289307 4.46314697 -1.10812988 3.6723877 -1.11352539 2.85766602 C-1 1 -1 1 0 0 Z M33 32 C32.74984127 35.58357241 32.74984127 35.58357241 33 39 C34.32 39 35.64 39 37 39 C37 36.03 37 33.06 37 30 C35.53774984 29.90754997 35.53774984 29.90754997 33 32 Z " fill="#010101" transform="translate(148,41)"/>
<path d="M0 0 C1.54010742 0.00773437 1.54010742 0.00773437 3.11132812 0.015625 C10.59492426 0.09414142 10.59492426 0.09414142 14.0625 1.25 C14.94117729 4.98437848 15.15162219 8.41774573 15.0625 12.25 C14.0725 12.58 13.0825 12.91 12.0625 13.25 C11.381875 12.79625 10.70125 12.3425 10 11.875 C5.83435793 9.57060226 1.80056426 9.08634975 -2.9375 9.25 C-5.88205734 10.52895058 -5.88205734 10.52895058 -7.9375 12.25 C-8.5975 12.25 -9.2575 12.25 -9.9375 12.25 C-14.89977193 23.94678385 -15.33909726 34.23113079 -10.9375 46.25 C-10.6075 47.24 -10.2775 48.23 -9.9375 49.25 C-8.2875 49.25 -6.6375 49.25 -4.9375 49.25 C-4.6075 48.59 -4.2775 47.93 -3.9375 47.25 C-3.2775 47.25 -2.6175 47.25 -1.9375 47.25 C-2.04578125 45.35314453 -2.04578125 45.35314453 -2.15625 43.41796875 C-2.250044 41.75781499 -2.34379158 40.0976586 -2.4375 38.4375 C-2.48519531 37.60412109 -2.53289062 36.77074219 -2.58203125 35.91210938 C-2.62714844 35.10966797 -2.67226562 34.30722656 -2.71875 33.48046875 C-2.76064453 32.74207764 -2.80253906 32.00368652 -2.84570312 31.24291992 C-2.92229533 29.58009506 -2.9375 27.9145879 -2.9375 26.25 C0.79313784 25.06596885 4.35724166 25.11693211 8.25 25.125 C9.50167969 25.12242187 10.75335938 25.11984375 12.04296875 25.1171875 C15.0625 25.25 15.0625 25.25 16.0625 26.25 C16.47672006 30.69593351 16.57964159 35.16388112 16.75 39.625 C16.80994141 40.883125 16.86988281 42.14125 16.93164062 43.4375 C16.97869141 44.64148438 17.02574219 45.84546875 17.07421875 47.0859375 C17.14322388 48.74955322 17.14322388 48.74955322 17.21362305 50.44677734 C17.0625 53.25 17.0625 53.25 15.0625 56.25 C8.39425885 58.8641742 0.44899543 58.53751476 -6.625 58.6875 C-7.51550049 58.72190186 -8.40600098 58.75630371 -9.32348633 58.79174805 C-17.35713133 58.84328887 -21.979686 56.0106264 -27.75 50.625 C-28.471875 49.84125 -29.19375 49.0575 -29.9375 48.25 C-30.515 47.71375 -31.0925 47.1775 -31.6875 46.625 C-34.09647324 43.97512944 -34.10209408 40.98696136 -34.25390625 37.58203125 C-34.29580078 36.68935547 -34.33769531 35.79667969 -34.38085938 34.87695312 C-34.42017578 33.94818359 -34.45949219 33.01941406 -34.5 32.0625 C-34.54318359 31.12212891 -34.58636719 30.18175781 -34.63085938 29.21289062 C-34.73688665 26.89207146 -34.83895029 24.57114675 -34.9375 22.25 C-34.2775 22.25 -33.6175 22.25 -32.9375 22.25 C-32.97875 21.3425 -33.02 20.435 -33.0625 19.5 C-32.94218444 16.3717954 -32.5460292 14.86385994 -30.9375 12.25 C-30.2775 12.25 -29.6175 12.25 -28.9375 12.25 C-28.710625 11.5075 -28.48375 10.765 -28.25 10 C-26.33574798 5.98918624 -24.01290602 4.08645673 -19.87670898 2.41943359 C-13.14718124 0.23998035 -7.040367 -0.1452558 0 0 Z " fill="#000000" transform="translate(85.9375,287.75)"/>
<path d="M0 0 C11.55 0 23.1 0 35 0 C35.495 2.475 35.495 2.475 36 5 C34 8 34 8 31.50390625 8.51171875 C30.53324219 8.56972656 29.56257813 8.62773437 28.5625 8.6875 C27.59441406 8.75324219 26.62632812 8.81898438 25.62890625 8.88671875 C23.75396413 8.9675112 21.87668201 9 20 9 C19.67 13.95 19.34 18.9 19 24 C20.98 23.67 22.96 23.34 25 23 C27.7734375 23.12109375 27.7734375 23.12109375 30.375 23.4375 C31.24898438 23.53933594 32.12296875 23.64117187 33.0234375 23.74609375 C33.67570312 23.82988281 34.32796875 23.91367187 35 24 C35.79953138 27.28696233 36.09658936 28.71023192 35 32 C30.05 32.33 25.1 32.66 20 33 C19.67 37.95 19.34 42.9 19 48 C20.711875 47.814375 22.42375 47.62875 24.1875 47.4375 C28.06325435 47.01723748 31.20732808 47.0639658 35 48 C36.125 53.75 36.125 53.75 35 56 C17.675 56.495 17.675 56.495 0 57 C0 38.19 0 19.38 0 0 Z " fill="#000000" transform="translate(246,289)"/>
<path d="M0 0 C4.875 4.625 4.875 4.625 6 8 C6.66 8 7.32 8 8 8 C8.5878125 9.051875 8.5878125 9.051875 9.1875 10.125 C11.23184089 13.36774761 13.50984626 15.29584754 16.4765625 17.66796875 C18 19 18 19 19 21 C19.99 21 20.98 21 22 21 C22.0825 21.78375 22.165 22.5675 22.25 23.375 C22.72806339 26.14749104 22.72806339 26.14749104 25.0625 27.3125 C25.701875 27.539375 26.34125 27.76625 27 28 C27 28.66 27 29.32 27 30 C27.99 29.67 28.98 29.34 30 29 C33 32.75 33 32.75 33 35 C33.763125 35.268125 34.52625 35.53625 35.3125 35.8125 C37.88988618 36.95134505 39.26954864 37.81416671 41 40 C41 40.66 41 41.32 41 42 C42.485 42.495 42.485 42.495 44 43 C44 43.66 44 44.32 44 45 C44.66 45 45.32 45 46 45 C46 46.32 46 47.64 46 49 C42.63908751 49.39540147 41.04108615 49.02139904 38 47.4375 C35.45855723 45.37257775 34.0599978 43.87449681 32.25 41.25 C31.5075 40.1775 30.765 39.105 30 38 C29.34 38 28.68 38 28 38 C23 32.52380952 23 32.52380952 23 30 C21.35 29.34 19.7 28.68 18 28 C18 27.34 18 26.68 18 26 C17.34 26 16.68 26 16 26 C15.505 24.515 15.505 24.515 15 23 C14.236875 22.71125 13.47375 22.4225 12.6875 22.125 C9.33451277 20.72142395 8.16908581 18.86879091 6 16 C5.2575 15.443125 4.515 14.88625 3.75 14.3125 C3.1725 13.879375 2.595 13.44625 2 13 C2 12.34 2 11.68 2 11 C1.4225 11.639375 0.845 12.27875 0.25 12.9375 C-2 15 -2 15 -4.0625 15.4375 C-6.98728808 16.28663202 -7.50577377 18.44736352 -9 21 C-10.31747324 21.69748583 -11.64914193 22.36959957 -13 23 C-13.495 24.485 -13.495 24.485 -14 26 C-14.66 26 -15.32 26 -16 26 C-16 26.66 -16 27.32 -16 28 C-16.804375 28.474375 -17.60875 28.94875 -18.4375 29.4375 C-21.2918076 30.79983672 -21.2918076 30.79983672 -22 34 C-22.66 34 -23.32 34 -24 34 C-24 34.66 -24 35.32 -24 36 C-27 38 -27 38 -30.1875 37.625 C-31.115625 37.41875 -32.04375 37.2125 -33 37 C-33 36.34 -33 35.68 -33 35 C-33.66 35 -34.32 35 -35 35 C-35 34.34 -35 33.68 -35 33 C-35.66 33 -36.32 33 -37 33 C-37 32.01 -37 31.02 -37 30 C-37.66 30 -38.32 30 -39 30 C-40.5078125 28.5390625 -40.5078125 28.5390625 -42.125 26.625 C-42.66382813 25.99851563 -43.20265625 25.37203125 -43.7578125 24.7265625 C-45 23 -45 23 -45 21 C-45.66 21 -46.32 21 -47 21 C-47.33 19.68 -47.66 18.36 -48 17 C-48.61875 16.95875 -49.2375 16.9175 -49.875 16.875 C-50.926875 16.441875 -50.926875 16.441875 -52 16 C-53.25 12.9375 -53.25 12.9375 -54 10 C-51.46599183 7.46599183 -50.14697348 7.57386493 -46.625 7.18359375 C-45.02398437 6.99700195 -45.02398437 6.99700195 -43.390625 6.80664062 C-42.27171875 6.68482422 -41.1528125 6.56300781 -40 6.4375 C-37.79130425 6.18940341 -35.58294854 5.93825448 -33.375 5.68359375 C-32.39273437 5.57587646 -31.41046875 5.46815918 -30.3984375 5.35717773 C-27.99286789 5.12584621 -27.99286789 5.12584621 -26 4 C-24.948125 4.020625 -23.89625 4.04125 -22.8125 4.0625 C-18.81078135 3.99689805 -15.83229339 3.10422013 -12 2 C-9.38066993 1.67652852 -6.76835674 1.44356735 -4.13671875 1.24609375 C-1.95039833 1.11767362 -1.95039833 1.11767362 0 0 Z " fill="#010101" transform="translate(315,217)"/>
<path d="M0 0 C1.31902817 0.03753891 1.31902817 0.03753891 2.66470337 0.07583618 C5.45657373 0.15760956 8.24769091 0.25436252 11.0390625 0.3515625 C12.93877192 0.40984573 14.83851171 0.46714803 16.73828125 0.5234375 C21.38063677 0.66312449 26.02237559 0.81624212 30.6640625 0.9765625 C31.51082317 4.70858175 31.62335887 7.24596551 30.6640625 10.9765625 C29.89320313 10.95335937 29.12234375 10.93015625 28.328125 10.90625 C26.82378906 10.87917969 26.82378906 10.87917969 25.2890625 10.8515625 C24.29132813 10.82835937 23.29359375 10.80515625 22.265625 10.78125 C19.50144077 10.70439402 19.50144077 10.70439402 17.6640625 12.9765625 C17.33449315 14.95416511 17.33449315 14.95416511 17.34521484 17.24267578 C17.32534515 18.12343781 17.30547546 19.00419983 17.28500366 19.91165161 C17.26767685 21.33983719 17.26767685 21.33983719 17.25 22.796875 C17.23063385 23.77067108 17.2112677 24.74446716 17.1913147 25.74777222 C17.13141692 28.86561253 17.08509279 31.98348956 17.0390625 35.1015625 C17.00089211 37.21225591 16.96184094 39.32293358 16.921875 41.43359375 C16.82570701 46.61445593 16.74171378 51.79539103 16.6640625 56.9765625 C10.7240625 57.3065625 4.7840625 57.6365625 -1.3359375 57.9765625 C-2.4609375 50.1015625 -2.4609375 50.1015625 -2.44946289 46.41821289 C-2.44938736 45.59789078 -2.44931183 44.77756866 -2.44923401 43.93238831 C-2.44407272 43.07169235 -2.43891144 42.2109964 -2.43359375 41.32421875 C-2.4321788 40.42408554 -2.43076385 39.52395233 -2.42930603 38.59654236 C-2.4237441 35.74401413 -2.41119877 32.89156669 -2.3984375 30.0390625 C-2.39341758 28.09570426 -2.38885553 26.15234479 -2.38476562 24.20898438 C-2.37378716 19.464813 -2.35654903 14.72070141 -2.3359375 9.9765625 C-3.43035156 10.15058594 -4.52476562 10.32460938 -5.65234375 10.50390625 C-8.99359852 10.93263565 -11.1328212 10.85013967 -14.3359375 9.9765625 C-14.6659375 7.3365625 -14.9959375 4.6965625 -15.3359375 1.9765625 C-10.05667566 -0.21130698 -5.5920097 -0.21332444 0 0 Z " fill="#000000" transform="translate(359.3359375,288.0234375)"/>
<path d="M0 0 C6.27 0 12.54 0 19 0 C19.71319661 3.56598304 20.11627119 5.94602622 20.02172852 9.4230957 C19.99158409 10.68383659 19.99158409 10.68383659 19.96083069 11.970047 C19.92027809 13.30938545 19.92027809 13.30938545 19.87890625 14.67578125 C19.85529526 15.6009404 19.83168427 16.52609955 19.80735779 17.47929382 C19.73100288 20.423863 19.64685775 23.3681503 19.5625 26.3125 C19.5092511 28.31313741 19.4565109 30.31378844 19.40429688 32.31445312 C19.27542597 37.20981271 19.13956966 42.10493424 19 47 C24.28 47 29.56 47 35 47 C35 49.64 35 52.28 35 55 C34 56 34 56 30.76538086 56.11352539 C29.33185874 56.11336631 27.89833088 56.10767407 26.46484375 56.09765625 C25.33496788 56.09553383 25.33496788 56.09553383 24.18226624 56.09336853 C21.7673044 56.08775376 19.35243399 56.07519883 16.9375 56.0625 C15.30403779 56.0574869 13.67057414 56.05292366 12.03710938 56.04882812 C8.02470415 56.03777954 4.01236759 56.02050506 0 56 C-0.16829155 48.66779741 -0.32816978 41.33544611 -0.48217773 34.00292969 C-0.53557354 31.50809568 -0.590901 29.01330225 -0.64819336 26.51855469 C-0.73017136 22.93433378 -0.80521997 19.35002477 -0.87890625 15.765625 C-0.90594131 14.64883362 -0.93297638 13.53204224 -0.96083069 12.38140869 C-0.98092697 11.34063171 -1.00102325 10.29985474 -1.02172852 9.22753906 C-1.04171402 8.31264709 -1.06169952 7.39775513 -1.08229065 6.45513916 C-1 4 -1 4 0 0 Z " fill="#000000" transform="translate(147,289)"/>
<path d="M0 0 C1.53333984 -0.00386719 1.53333984 -0.00386719 3.09765625 -0.0078125 C5.55399932 0.10706462 7.59518316 0.41724959 9.9375 1.125 C10.74110848 4.62525485 11.03933426 7.78731045 10.95922852 11.37426758 C10.92908409 12.90528862 10.92908409 12.90528862 10.89833069 14.46723938 C10.85777809 16.10187386 10.85777809 16.10187386 10.81640625 17.76953125 C10.79279526 18.8944548 10.76918427 20.01937836 10.74485779 21.1783905 C10.66839682 24.76489432 10.58429659 28.35117263 10.5 31.9375 C10.44676175 34.37173382 10.39402148 36.80597859 10.34179688 39.24023438 C10.21280542 45.2019619 10.0775445 51.16352243 9.9375 57.125 C6.02610624 58.20991214 2.28489962 58.27303463 -1.75 58.25 C-2.43900391 58.25386719 -3.12800781 58.25773437 -3.83789062 58.26171875 C-8.93580665 58.25169335 -8.93580665 58.25169335 -10.0625 57.125 C-10.1856517 55.37661165 -10.24037811 53.62335496 -10.26782227 51.87084961 C-10.28776749 50.74976303 -10.30771271 49.62867645 -10.32826233 48.47361755 C-10.34497482 47.2538472 -10.36168732 46.03407684 -10.37890625 44.77734375 C-10.39968735 43.53578018 -10.42046844 42.29421661 -10.44187927 41.01502991 C-10.49633609 37.70900877 -10.54654205 34.40297755 -10.59472656 31.09686279 C-10.64489856 27.72532509 -10.70060701 24.35387947 -10.75585938 20.98242188 C-10.86320038 14.36335449 -10.96494198 7.7442184 -11.0625 1.125 C-7.29725467 0.32499957 -3.85606879 -0.00974986 0 0 Z " fill="#000000" transform="translate(124.0625,287.875)"/>
<path d="M0 0 C3.50886032 1.40354413 4.4267148 2.64365823 6 6 C6.99 6.66 7.98 7.32 9 8 C9.33 8.99 9.66 9.98 10 11 C10.33 7.7 10.66 4.4 11 1 C12.32 1 13.64 1 15 1 C15.19656224 3.20754516 15.38185459 5.41609539 15.5625 7.625 C15.66691406 8.85476563 15.77132813 10.08453125 15.87890625 11.3515625 C15.99191061 14.75627462 15.69045563 17.67558398 15 21 C13.68 21 12.36 21 11 21 C11 20.34 11 19.68 11 19 C10.34 19 9.68 19 9 19 C7.61061923 17.03852126 6.2739589 15.03833424 5 13 C3.58422523 14.18424326 3.58422523 14.18424326 3.9375 17.5625 C3.958125 18.696875 3.97875 19.83125 4 21 C3.01 21.33 2.02 21.66 1 22 C-0.93602627 20.39508614 -1.92424289 19.56594199 -2.26464844 17.02294922 C-2.2134082 16.29092285 -2.16216797 15.55889648 -2.109375 14.8046875 C-2.05910156 14.00675781 -2.00882812 13.20882813 -1.95703125 12.38671875 C-1.88871094 11.55785156 -1.82039063 10.72898437 -1.75 9.875 C-1.69714844 9.03839844 -1.64429688 8.20179688 -1.58984375 7.33984375 C-1.15909462 1.15909462 -1.15909462 1.15909462 0 0 Z " fill="#010101" transform="translate(335,352)"/>
<path d="M0 0 C0.73046875 2.06640625 0.73046875 2.06640625 1.1875 4.5625 C1.34605469 5.38878906 1.50460938 6.21507812 1.66796875 7.06640625 C1.77753906 7.70449219 1.88710937 8.34257812 2 9 C0.02 9.99 0.02 9.99 -2 11 C-1.505 11.598125 -1.01 12.19625 -0.5 12.8125 C1 15 1 15 1 18 C1.66 18.33 2.32 18.66 3 19 C2.34 19.66 1.68 20.32 1 21 C-1.125 20.625 -1.125 20.625 -3 20 C-3.1546875 19.0409375 -3.1546875 19.0409375 -3.3125 18.0625 C-3.539375 17.381875 -3.76625 16.70125 -4 16 C-4.99 15.67 -5.98 15.34 -7 15 C-7.66 14.34 -8.32 13.68 -9 13 C-9.33 13 -9.66 13 -10 13 C-10.33 15.64 -10.66 18.28 -11 21 C-11.99 21.33 -12.98 21.66 -14 22 C-14 14.74 -14 7.48 -14 0 C-3.375 -1.125 -3.375 -1.125 0 0 Z M-10 4 C-10 4.99 -10 5.98 -10 7 C-8.93354885 8.29633621 -8.93354885 8.29633621 -6.4375 8.0625 C-5.633125 8.041875 -4.82875 8.02125 -4 8 C-4 6.68 -4 5.36 -4 4 C-5.98 4 -7.96 4 -10 4 Z " fill="#010101" transform="translate(210,353)"/>
<path d="M0 0 C1.5 1.375 1.5 1.375 3 3 C3 3.66 3 4.32 3 5 C3.66 5.33 4.32 5.66 5 6 C8 9.57692308 8 9.57692308 8 12 C8.66 12 9.32 12 10 12 C10 8.37 10 4.74 10 1 C10.99 1 11.98 1 13 1 C13.25494218 4.10261506 13.47447008 7.20674802 13.6875 10.3125 C13.76033203 11.19357422 13.83316406 12.07464844 13.90820312 12.98242188 C13.96298828 13.82998047 14.01777344 14.67753906 14.07421875 15.55078125 C14.16062622 16.72120972 14.16062622 16.72120972 14.2487793 17.9152832 C13.93485931 20.54586488 13.01131557 21.35646785 11 23 C11 22.34 11 21.68 11 21 C10.01 20.67 9.02 20.34 8 20 C6.61328125 18.15234375 6.61328125 18.15234375 5.3125 15.9375 C4.65701172 14.83728516 4.65701172 14.83728516 3.98828125 13.71484375 C3.66214844 13.14894531 3.33601562 12.58304687 3 12 C3.103125 13.093125 3.20625 14.18625 3.3125 15.3125 C3.1578125 17.1378125 3.1578125 17.1378125 3 19 C0.5 20.9375 0.5 20.9375 -2 22 C-3.01971283 17.74845537 -3.19868804 13.67829281 -3.25 9.3125 C-3.270625 8.63638672 -3.29125 7.96027344 -3.3125 7.26367188 C-3.328125 5.30078125 -3.328125 5.30078125 -3 2 C-2.01 1.34 -1.02 0.68 0 0 Z " fill="#000000" transform="translate(126,352)"/>
<path d="M0 0 C3.38342286 2.40401098 4.8688213 5.04087456 6 9 C6.48196076 13.62682331 5.84104235 16.28479077 3 20 C2.34 20 1.68 20 1 20 C0.67 20.66 0.34 21.32 0 22 C-2.65936914 23.18194184 -4.17252232 22.96831223 -7.0625 22.4375 C-10 21 -10 21 -11.875 18.3125 C-13.61178766 13.19862523 -13.6269515 9.11966471 -11.625 4.125 C-9.01225315 -0.89951318 -5.29577544 -0.75653935 0 0 Z M-8 6 C-8.46651207 8.12576782 -8.46651207 8.12576782 -8.625 10.5625 C-8.69976562 11.38878906 -8.77453125 12.21507812 -8.8515625 13.06640625 C-8.90054688 13.70449219 -8.94953125 14.34257812 -9 15 C-6.87391821 16.82725006 -6.87391821 16.82725006 -4 18 C-0.69871355 16.8084595 -0.69871355 16.8084595 2 15 C2.39909856 10.3199914 2.39909856 10.3199914 0.8125 6.0625 C-2.21722037 4.28645703 -4.90451893 4.45225946 -8 6 Z " fill="#010101" transform="translate(109,352)"/>
<path d="M0 0 C3.0993686 2.82985829 4.68538708 4.99323866 5.9375 9 C6.02410128 13.15686152 5.15407502 16.29925787 2.8125 19.75 C0.0963544 21.62320386 -2.82448869 22.221101 -6 23 C-6 22.34 -6 21.68 -6 21 C-6.78375 20.7525 -7.5675 20.505 -8.375 20.25 C-11 19 -11 19 -12.3125 17.3125 C-13.88572856 12.0207312 -13.31028227 6.96710689 -11 2 C-7.71572921 -0.6760725 -4.0699501 -0.57122107 0 0 Z M-6 5 C-7.7089129 6.5787681 -7.7089129 6.5787681 -9 9 C-8.77131906 12.68815293 -8.77131906 12.68815293 -8 16 C-4.67679974 17.10773342 -3.30835256 16.93312508 0 16 C2.34973818 14.10244856 2.34973818 14.10244856 2.125 10.875 C2.08375 9.92625 2.0425 8.9775 2 8 C1.34 8 0.68 8 0 8 C0 7.34 0 6.68 0 6 C-2.97 5.505 -2.97 5.505 -6 5 Z " fill="#010101" transform="translate(320,352)"/>
<path d="M0 0 C7.23897912 -0.48259861 7.23897912 -0.48259861 10.5625 1.625 C12.48479283 4.80096207 11.75396827 6.45634914 11 10 C11.99 11.485 11.99 11.485 13 13 C12.625 16.6875 12.625 16.6875 12 20 C7.31506124 22.48887372 4.0555786 21.85687773 -1 21 C-1.66 19.02 -2.32 17.04 -3 15 C-1.68 14.67 -0.36 14.34 1 14 C1.33 14.66 1.66 15.32 2 16 C3.32 16 4.64 16 6 16 C6.66 15.34 7.32 14.68 8 14 C6.906875 13.71125 5.81375 13.4225 4.6875 13.125 C1 12 1 12 -2 10 C-2.42905061 6.05273438 -2.08466413 3.38757921 0 0 Z M4 4 C3.01 4.495 3.01 4.495 2 5 C2 5.99 2 6.98 2 8 C4.97 8.495 4.97 8.495 8 9 C7.73323796 7.01508358 7.73323796 7.01508358 7 5 C6.01 4.67 5.02 4.34 4 4 Z " fill="#010101" transform="translate(362,352)"/>
<path d="M0 0 C2.47189851 1.94220597 2.97912836 2.93738507 4 6 C2.35 6.33 0.7 6.66 -1 7 C-1 6.34 -1 5.68 -1 5 C-3.97 4.505 -3.97 4.505 -7 4 C-4.80789164 6.19210836 -3.31185945 6.69806749 -0.4375 7.75 C3.82095351 9.59075087 3.82095351 9.59075087 5.3125 13 C5 16 5 16 3.5625 18.3125 C-0.39835299 20.92086661 -4.27598148 21 -9 21 C-10.42944945 18.64561267 -11.08661261 17.51967567 -10.625 14.75 C-10.41875 14.1725 -10.2125 13.595 -10 13 C-9.05125 13.495 -8.1025 13.99 -7.125 14.5 C-4.27721834 16.14424369 -4.27721834 16.14424369 -2 16 C-2.66970511 12.93600134 -2.66970511 12.93600134 -4.84765625 11.83203125 C-5.57855469 11.49558594 -6.30945313 11.15914063 -7.0625 10.8125 C-8.16271484 10.29623047 -8.16271484 10.29623047 -9.28515625 9.76953125 C-9.85105469 9.51558594 -10.41695312 9.26164062 -11 9 C-10.8125 5.6875 -10.8125 5.6875 -10 2 C-6.60539102 -1.0174302 -4.26129477 -1.5699507 0 0 Z " fill="#010101" transform="translate(160,353)"/>
<path d="M0 0 C2.375 1.5 2.375 1.5 4 3 C3.67 4.65 3.34 6.3 3 8 C2.01 8 1.02 8 0 8 C-0.33 7.34 -0.66 6.68 -1 6 C-2.65 6 -4.3 6 -6 6 C-6.20625 7.258125 -6.4125 8.51625 -6.625 9.8125 C-6.74101563 10.52019531 -6.85703125 11.22789062 -6.9765625 11.95703125 C-7.19577848 14.31755824 -7.19577848 14.31755824 -5 17 C-1.73045798 16.43628586 -0.17424117 15.50037734 2 13 C3.0625 14.8125 3.0625 14.8125 4 17 C3 20 3 20 0.75 21.25 C-3.09199893 22.29781789 -5.50724787 21.51180073 -9.1875 20.25 C-11.73469452 18.49331412 -12.19217852 16.9620121 -13 14 C-13.51481298 9.16075797 -12.61171115 6.10411753 -10 2 C-6.85428947 -0.38640109 -3.85913158 -0.40199287 0 0 Z " fill="#010101" transform="translate(83,352)"/>
<path d="M0 0 C1.32 2.31 2.64 4.62 4 7 C3.01 7.66 2.02 8.32 1 9 C0.1646875 8.2265625 0.1646875 8.2265625 -0.6875 7.4375 C-2.91774939 5.76902882 -2.91774939 5.76902882 -5.625 6 C-8.24644841 6.80394254 -8.24644841 6.80394254 -9.3125 9.5625 C-9.539375 10.366875 -9.76625 11.17125 -10 12 C-9.34 12.33 -8.68 12.66 -8 13 C-8.33 13.99 -8.66 14.98 -9 16 C-6.6984589 16.77802187 -6.6984589 16.77802187 -4 17 C-2.63838689 16.03886134 -1.30144802 15.04115841 0 14 C0.99 14.33 1.98 14.66 3 15 C2.49396008 17.16874252 2.00016187 18.99967627 1 21 C-2.46395356 22.61114119 -4.45773205 23.09385407 -8.25 22.4375 C-11 21 -11 21 -12.1640625 18.7734375 C-13.07376073 15.75527984 -13.200749 13.3310834 -13.125 10.1875 C-13.10695312 9.21167969 -13.08890625 8.23585938 -13.0703125 7.23046875 C-13.04710937 6.49441406 -13.02390625 5.75835937 -13 5 C-12.34 5 -11.68 5 -11 5 C-10.71125 4.360625 -10.4225 3.72125 -10.125 3.0625 C-7.84966105 -1.10895475 -4.30949082 -0.07980539 0 0 Z " fill="#010101" transform="translate(259,352)"/>
<path d="M0 0 C0 6.27 0 12.54 0 19 C-1.65 19.66 -3.3 20.32 -5 21 C-5 21.66 -5 22.32 -5 23 C-8.24113913 22.70535099 -10.4792901 22.35705822 -13.1875 20.5 C-15.848551 16.82958483 -15.44009366 13.65871055 -15.25 9.25 C-15.23195312 8.45722656 -15.21390625 7.66445313 -15.1953125 6.84765625 C-15.14833082 4.89791652 -15.07659044 2.94880122 -15 1 C-13.68 1 -12.36 1 -11 1 C-10.93941406 1.98742187 -10.87882813 2.97484375 -10.81640625 3.9921875 C-10.73261719 5.27351563 -10.64882812 6.55484375 -10.5625 7.875 C-10.48128906 9.15117187 -10.40007812 10.42734375 -10.31640625 11.7421875 C-10.20793973 14.88300152 -10.20793973 14.88300152 -9 17 C-7.35 16.67 -5.7 16.34 -4 16 C-3.95101562 14.92878906 -3.90203125 13.85757812 -3.8515625 12.75390625 C-3.77654706 11.35674361 -3.7009987 9.9596095 -3.625 8.5625 C-3.5940625 7.85544922 -3.563125 7.14839844 -3.53125 6.41992188 C-3.42719371 4.60760812 -3.22080108 2.80182012 -3 1 C-1 0 -1 0 0 0 Z " fill="#010101" transform="translate(236,352)"/>
<path d="M0 0 C4.95 0 9.9 0 15 0 C15.33 1.32 15.66 2.64 16 4 C13.69 4 11.38 4 9 4 C9.09539062 4.96421875 9.19078125 5.9284375 9.2890625 6.921875 C9.39992187 8.18515625 9.51078125 9.4484375 9.625 10.75 C9.74101562 12.00296875 9.85703125 13.2559375 9.9765625 14.546875 C9.99888599 17.83586903 9.77961002 19.31020776 8 22 C8 21.34 8 20.68 8 20 C7.01 19.67 6.02 19.34 5 19 C5 14.05 5 9.1 5 4 C4.01 4.33 3.02 4.66 2 5 C1.34 4.67 0.68 4.34 0 4 C0 2.68 0 1.36 0 0 Z " fill="#010101" transform="translate(172,353)"/>
<path d="M0 0 C1.28132813 0.10183594 2.56265625 0.20367187 3.8828125 0.30859375 C4.87023437 0.39238281 5.85765625 0.47617187 6.875 0.5625 C7.205 1.5525 7.535 2.5425 7.875 3.5625 C6.885 4.2225 5.895 4.8825 4.875 5.5625 C3.555 5.2325 2.235 4.9025 0.875 4.5625 C0.875 10.1725 0.875 15.7825 0.875 21.5625 C-0.445 21.2325 -1.765 20.9025 -3.125 20.5625 C-3.125 15.2825 -3.125 10.0025 -3.125 4.5625 C-4.775 4.5625 -6.425 4.5625 -8.125 4.5625 C-8.455 3.2425 -8.785 1.9225 -9.125 0.5625 C-6.07230154 -0.96384923 -3.36654311 -0.27544444 0 0 Z " fill="#010101" transform="translate(279.125,352.4375)"/>
<path d="M0 0 C1.98 0.495 1.98 0.495 4 1 C4 7.6 4 14.2 4 21 C2.68 21 1.36 21 0 21 C-0.19461488 18.06281233 -0.38097593 15.12550068 -0.5625 12.1875 C-0.61857422 11.35412109 -0.67464844 10.52074219 -0.73242188 9.66210938 C-0.78076172 8.85966797 -0.82910156 8.05722656 -0.87890625 7.23046875 C-0.9260376 6.49207764 -0.97316895 5.75368652 -1.02172852 4.99291992 C-1 3 -1 3 0 0 Z " fill="#010101" transform="translate(294,352)"/>
<path d="M0 0 C1.670625 0.061875 1.670625 0.061875 3.375 0.125 C4.035 2.105 4.695 4.085 5.375 6.125 C3.725 7.445 2.075 8.765 0.375 10.125 C-1.5 9.5 -1.5 9.5 -3.625 8.125 C-4.875 5 -4.875 5 -5.625 2.125 C-3.625 0.125 -3.625 0.125 0 0 Z " fill="#010101" transform="translate(128.625,239.875)"/>
<path d="M0 0 C1.134375 0.020625 2.26875 0.04125 3.4375 0.0625 C3.4375 3.0325 3.4375 6.0025 3.4375 9.0625 C1.1114143 9.44313221 -1.22305264 9.77519945 -3.5625 10.0625 C-4.5625 9.0625 -4.5625 9.0625 -4.6953125 7.25 C-4.69273437 6.528125 -4.69015625 5.80625 -4.6875 5.0625 C-4.69007813 4.340625 -4.69265625 3.61875 -4.6953125 2.875 C-4.44680298 -0.5164241 -3.51086809 0.06159418 0 0 Z " fill="#010101" transform="translate(250.5625,210.9375)"/>
<path d="M0 0 C0.33 2.31 0.66 4.62 1 7 C-1.57213134 8.61949011 -2.67669159 9.04408751 -5.75 8.625 C-6.86375 8.315625 -6.86375 8.315625 -8 8 C-8 5.36 -8 2.72 -8 0 C-4.71303767 -0.79953138 -3.28976808 -1.09658936 0 0 Z " fill="#010101" transform="translate(254,201)"/>
<path d="M0 0 C0 2.64 0 5.28 0 8 C-2.3260857 8.38063221 -4.66055264 8.71269945 -7 9 C-8 8 -8 8 -8.09765625 6.15234375 C-8.06510417 4.1015625 -8.03255208 2.05078125 -8 0 C-2.25 -1.125 -2.25 -1.125 0 0 Z " fill="#010101" transform="translate(264,201)"/>
<path d="M0 0 C2.64 0 5.28 0 8 0 C8.33 2.64 8.66 5.28 9 8 C6 10 6 10 3.3125 9.625 C2.549375 9.41875 1.78625 9.2125 1 9 C0.67 6.03 0.34 3.06 0 0 Z " fill="#010101" transform="translate(135,240)"/>
<path d="M0 0 C0.04241723 2.33294775 0.04092937 4.66702567 0 7 C-1 8 -1 8 -3.9375 8.1875 C-7 8 -7 8 -9 6 C-8.625 2.875 -8.625 2.875 -8 0 C-4.71023192 -1.09658936 -3.28696233 -0.79953138 0 0 Z " fill="#010101" transform="translate(264,212)"/>
<path d="M0 0 C2.00720923 0.28674418 4.0085944 0.61866701 6 1 C6 3.64 6 6.28 6 9 C4.0085944 9.38133299 2.00720923 9.71325582 0 10 C-1 9 -1 9 -1.1328125 7.1875 C-1.13023438 6.465625 -1.12765625 5.74375 -1.125 5 C-1.12757812 4.278125 -1.13015625 3.55625 -1.1328125 2.8125 C-1 1 -1 1 0 0 Z " fill="#010101" transform="translate(126,250)"/>
<path d="M0 0 C0 3.3 0 6.6 0 10 C-2.31 9.67 -4.62 9.34 -7 9 C-7 6.36 -7 3.72 -7 1 C-1.125 0 -1.125 0 0 0 Z " fill="#010101" transform="translate(143,250)"/>
<path d="M0 0 C2.97 0.495 2.97 0.495 6 1 C6.33 2.65 6.66 4.3 7 6 C4.42786866 7.61949011 3.32330841 8.04408751 0.25 7.625 C-0.4925 7.41875 -1.235 7.2125 -2 7 C-1.34 4.69 -0.68 2.38 0 0 Z " fill="#010101" transform="translate(310,244)"/>
<path d="M0 0 C0.33 1.65 0.66 3.3 1 5 C-0.97746603 5.73080266 -2.98072489 6.39421747 -5 7 C-5.66 6.67 -6.32 6.34 -7 6 C-7 4.02 -7 2.04 -7 0 C-3.86650268 -1.04449911 -3.01031744 -0.93423645 0 0 Z " fill="#010101" transform="translate(316,254)"/>
<path d="M0 0 C0.33 1.65 0.66 3.3 1 5 C-2 7 -2 7 -5 7 C-5.33 4.69 -5.66 2.38 -6 0 C-3 -1 -3 -1 0 0 Z " fill="#010101" transform="translate(324,254)"/>
<path d="M0 0 C1.2065625 0.0309375 1.2065625 0.0309375 2.4375 0.0625 C2.4375 2.0425 2.4375 4.0225 2.4375 6.0625 C0.4575 6.0625 -1.5225 6.0625 -3.5625 6.0625 C-3.605221 4.39638095 -3.60313832 2.72867115 -3.5625 1.0625 C-2.5625 0.0625 -2.5625 0.0625 0 0 Z " fill="#010101" transform="translate(321.5625,244.9375)"/>
<path d="" fill="#000000" transform="translate(0,0)"/>
<path d="" fill="#000000" transform="translate(0,0)"/>
<path d="" fill="#000000" transform="translate(0,0)"/>
<path d="" fill="#000000" transform="translate(0,0)"/>
<path d="" fill="#000000" transform="translate(0,0)"/>
<path d="" fill="#000000" transform="translate(0,0)"/>
<path d="" fill="#000000" transform="translate(0,0)"/>
<path d="" fill="#000000" transform="translate(0,0)"/>
<path d="" fill="#000000" transform="translate(0,0)"/>
<path d="" fill="#000000" transform="translate(0,0)"/>
<path d="" fill="#000000" transform="translate(0,0)"/>
<path d="" fill="#000000" transform="translate(0,0)"/>
<path d="" fill="#000000" transform="translate(0,0)"/>
<path d="" fill="#000000" transform="translate(0,0)"/>
<path d="" fill="#000000" transform="translate(0,0)"/>
<path d="" fill="#000000" transform="translate(0,0)"/>
<path d="" fill="#000000" transform="translate(0,0)"/>
<path d="" fill="#000000" transform="translate(0,0)"/>
<path d="" fill="#000000" transform="translate(0,0)"/>
<path d="" fill="#000000" transform="translate(0,0)"/>
<path d="" fill="#000000" transform="translate(0,0)"/>
<path d="" fill="#000000" transform="translate(0,0)"/>
<path d="" fill="#000000" transform="translate(0,0)"/>
<path d="" fill="#000000" transform="translate(0,0)"/>
<path d="" fill="#000000" transform="translate(0,0)"/>
<path d="" fill="#000000" transform="translate(0,0)"/>
<path d="" fill="#000000" transform="translate(0,0)"/>
<path d="" fill="#000000" transform="translate(0,0)"/>
<path d="" fill="#000000" transform="translate(0,0)"/>
<path d="" fill="#000000" transform="translate(0,0)"/>
<path d="" fill="#000000" transform="translate(0,0)"/>
<path d="" fill="#000000" transform="translate(0,0)"/>
<path d="" fill="#000000" transform="translate(0,0)"/>
<path d="" fill="#000000" transform="translate(0,0)"/>
<path d="" fill="#000000" transform="translate(0,0)"/>
<path d="" fill="#000000" transform="translate(0,0)"/>
<path d="" fill="#000000" transform="translate(0,0)"/>
<path d="" fill="#000000" transform="translate(0,0)"/>
<path d="" fill="#000000" transform="translate(0,0)"/>
<path d="" fill="#000000" transform="translate(0,0)"/>
<path d="" fill="#000000" transform="translate(0,0)"/>
<path d="" fill="#000000" transform="translate(0,0)"/>
<path d="" fill="#000000" transform="translate(0,0)"/>
<path d="" fill="#000000" transform="translate(0,0)"/>
<path d="" fill="#000000" transform="translate(0,0)"/>
<path d="" fill="#000000" transform="translate(0,0)"/>
<path d="" fill="#000000" transform="translate(0,0)"/>
<path d="" fill="#000000" transform="translate(0,0)"/>
<path d="" fill="#000000" transform="translate(0,0)"/>
<path d="" fill="#000000" transform="translate(0,0)"/>
<path d="" fill="#000000" transform="translate(0,0)"/>
<path d="" fill="#000000" transform="translate(0,0)"/>
<path d="" fill="#000000" transform="translate(0,0)"/>
<path d="" fill="#000000" transform="translate(0,0)"/>
<path d="" fill="#000000" transform="translate(0,0)"/>
<path d="" fill="#000000" transform="translate(0,0)"/>
<path d="" fill="#000000" transform="translate(0,0)"/>
<path d="" fill="#000000" transform="translate(0,0)"/>
<path d="" fill="#000000" transform="translate(0,0)"/>
<path d="" fill="#000000" transform="translate(0,0)"/>
<path d="" fill="#000000" transform="translate(0,0)"/>
<path d="" fill="#000000" transform="translate(0,0)"/>
<path d="" fill="#000000" transform="translate(0,0)"/>
<path d="" fill="#000000" transform="translate(0,0)"/>
<path d="" fill="#000000" transform="translate(0,0)"/>
<path d="" fill="#000000" transform="translate(0,0)"/>
<path d="" fill="#000000" transform="translate(0,0)"/>
<path d="" fill="#000000" transform="translate(0,0)"/>
<path d="" fill="#000000" transform="translate(0,0)"/>
<path d="" fill="#000000" transform="translate(0,0)"/>
<path d="" fill="#000000" transform="translate(0,0)"/>
<path d="" fill="#000000" transform="translate(0,0)"/>
<path d="" fill="#000000" transform="translate(0,0)"/>
<path d="" fill="#000000" transform="translate(0,0)"/>
<path d="" fill="#000000" transform="translate(0,0)"/>
<path d="" fill="#000000" transform="translate(0,0)"/>
<path d="" fill="#000000" transform="translate(0,0)"/>
<path d="" fill="#000000" transform="translate(0,0)"/>
<path d="" fill="#000000" transform="translate(0,0)"/>
<path d="" fill="#000000" transform="translate(0,0)"/>
<path d="" fill="#000000" transform="translate(0,0)"/>
<path d="" fill="#000000" transform="translate(0,0)"/>
<path d="" fill="#000000" transform="translate(0,0)"/>
<path d="" fill="#000000" transform="translate(0,0)"/>
<path d="" fill="#000000" transform="translate(0,0)"/>
<path d="" fill="#000000" transform="translate(0,0)"/>
<path d="" fill="#000000" transform="translate(0,0)"/>
<path d="" fill="#000000" transform="translate(0,0)"/>
<path d="" fill="#000000" transform="translate(0,0)"/>
<path d="" fill="#000000" transform="translate(0,0)"/>
<path d="" fill="#000000" transform="translate(0,0)"/>
<path d="" fill="#000000" transform="translate(0,0)"/>
<path d="" fill="#000000" transform="translate(0,0)"/>
<path d="" fill="#000000" transform="translate(0,0)"/>
<path d="" fill="#000000" transform="translate(0,0)"/>
<path d="" fill="#000000" transform="translate(0,0)"/>
<path d="" fill="#000000" transform="translate(0,0)"/>
<path d="" fill="#000000" transform="translate(0,0)"/>
<path d="" fill="#000000" transform="translate(0,0)"/>
<path d="" fill="#000000" transform="translate(0,0)"/>
<path d="" fill="#000000" transform="translate(0,0)"/>
<path d="" fill="#000000" transform="translate(0,0)"/>
<path d="" fill="#000000" transform="translate(0,0)"/>
<path d="" fill="#000000" transform="translate(0,0)"/>
<path d="" fill="#000000" transform="translate(0,0)"/>
<path d="" fill="#000000" transform="translate(0,0)"/>
<path d="" fill="#000000" transform="translate(0,0)"/>
<path d="" fill="#000000" transform="translate(0,0)"/>
<path d="" fill="#000000" transform="translate(0,0)"/>
<path d="" fill="#000000" transform="translate(0,0)"/>
<path d="" fill="#000000" transform="translate(0,0)"/>
<path d="" fill="#000000" transform="translate(0,0)"/>
<path d="" fill="#000000" transform="translate(0,0)"/>
<path d="" fill="#000000" transform="translate(0,0)"/>
<path d="" fill="#000000" transform="translate(0,0)"/>
<path d="" fill="#000000" transform="translate(0,0)"/>
<path d="" fill="#000000" transform="translate(0,0)"/>
<path d="" fill="#000000" transform="translate(0,0)"/>
<path d="" fill="#000000" transform="translate(0,0)"/>
<path d="" fill="#000000" transform="translate(0,0)"/>
<path d="" fill="#000000" transform="translate(0,0)"/>
<path d="" fill="#000000" transform="translate(0,0)"/>
<path d="" fill="#000000" transform="translate(0,0)"/>
<path d="" fill="#000000" transform="translate(0,0)"/>
<path d="" fill="#000000" transform="translate(0,0)"/>
<path d="" fill="#000000" transform="translate(0,0)"/>
<path d="" fill="#000000" transform="translate(0,0)"/>
<path d="" fill="#000000" transform="translate(0,0)"/>
<path d="" fill="#000000" transform="translate(0,0)"/>
<path d="" fill="#000000" transform="translate(0,0)"/>
<path d="" fill="#000000" transform="translate(0,0)"/>
<path d="" fill="#000000" transform="translate(0,0)"/>
<path d="" fill="#000000" transform="translate(0,0)"/>
<path d="" fill="#000000" transform="translate(0,0)"/>
<path d="" fill="#000000" transform="translate(0,0)"/>
<path d="" fill="#000000" transform="translate(0,0)"/>
</svg>
